<svg version="1.1" viewBox="0.0 0.0 600.0 371.0" fill="none" stroke="none" stroke-linecap="square" stroke-miterlimit="10" width="600" height="371" xmlns:xlink="http://www.w3.org/1999/xlink" xmlns="http://www.w3.org/2000/svg"><path fill="#ffffff" d="M0 0L600.0 0L600.0 371.0L0 371.0L0 0Z" fill-rule="nonzero"/><path stroke="#cccccc" stroke-width="1.0" stroke-linecap="butt" d="M139.5 88.5L139.5 286.5" fill-rule="nonzero"/><path stroke="#cccccc" stroke-width="1.0" stroke-linecap="butt" d="M246.5 88.5L246.5 286.5" fill-rule="nonzero"/><path stroke="#cccccc" stroke-width="1.0" stroke-linecap="butt" d="M354.5 88.5L354.5 286.5" fill-rule="nonzero"/><path stroke="#cccccc" stroke-width="1.0" stroke-linecap="butt" d="M461.5 88.5L461.5 286.5" fill-rule="nonzero"/><path stroke="#cccccc" stroke-width="1.0" stroke-linecap="butt" d="M568.5 88.5L568.5 286.5" fill-rule="nonzero"/><path stroke="#333333" stroke-width="1.0" stroke-linecap="butt" d="M66.5 286.5L581.5 286.5" fill-rule="nonzero"/><path stroke="#cccccc" stroke-width="1.0" stroke-linecap="butt" d="M66.5 220.5L581.5 220.5" fill-rule="nonzero"/><path stroke="#cccccc" stroke-width="1.0" stroke-linecap="butt" d="M66.5 154.5L581.5 154.5" fill-rule="nonzero"/><path stroke="#cccccc" stroke-width="1.0" stroke-linecap="butt" d="M66.5 88.5L581.5 88.5" fill-rule="nonzero"/><clipPath id="id_0"><path d="M66.55 88.28333L581.45 88.28333L581.45 286.45L66.55 286.45L66.55 88.28333Z" clip-rule="nonzero"/></clipPath><path stroke="#4285f4" stroke-width="2.0" stroke-linecap="butt" clip-path="url(#id_0)" d="M66.55 274.56C66.55 274.56 89.43445 263.22046 100.87666 260.02777C112.318886 256.83508 146.64555 255.62407 169.53 250.78C192.41444 245.93593 261.06778 226.00917 306.83667 211.14667C352.60556 196.28416 581.45 112.06333 581.45 112.06333" fill-rule="nonzero"/><path stroke="#ea4335" stroke-width="2.0" stroke-linecap="butt" clip-path="url(#id_0)" d="M66.55 273.2389C66.55 273.2389 89.43445 273.2389 100.87666 273.2389C112.318886 273.2389 146.64555 273.2389 169.53 273.2389C192.41444 273.2389 261.06778 273.2389 306.83667 273.2389C352.60556 273.2389 581.45 273.2389 581.45 273.2389" fill-rule="nonzero"/><path fill="#000000" fill-opacity="0.0" clip-path="url(#id_0)" d="M69.55 274.56C69.55 276.21686 68.206856 277.56 66.55 277.56C64.89314 277.56 63.55 276.21686 63.55 274.56C63.55 272.90314 64.89314 271.56 66.55 271.56C68.206856 271.56 69.55 272.90314 69.55 274.56Z" fill-rule="nonzero"/><path fill="#000000" fill-opacity="0.0" clip-path="url(#id_0)" d="M103.87666 260.02777C103.87666 261.68463 102.53352 263.02777 100.87666 263.02777C99.21981 263.02777 97.87666 261.68463 97.87666 260.02777C97.87666 258.3709 99.21981 257.02777 100.87666 257.02777C102.53352 257.02777 103.87666 258.3709 103.87666 260.02777Z" fill-rule="nonzero"/><path fill="#000000" fill-opacity="0.0" clip-path="url(#id_0)" d="M172.53 250.78C172.53 252.43686 171.18686 253.78 169.53 253.78C167.87314 253.78 166.53 252.43686 166.53 250.78C166.53 249.12314 167.87314 247.78 169.53 247.78C171.18686 247.78 172.53 249.12314 172.53 250.78Z" fill-rule="nonzero"/><path fill="#000000" fill-opacity="0.0" clip-path="url(#id_0)" d="M309.83667 211.14667C309.83667 212.80353 308.49353 214.14667 306.83667 214.14667C305.1798 214.14667 303.83667 212.80353 303.83667 211.14667C303.83667 209.4898 305.1798 208.14667 306.83667 208.14667C308.49353 208.14667 309.83667 209.4898 309.83667 211.14667Z" fill-rule="nonzero"/><path fill="#000000" fill-opacity="0.0" clip-path="url(#id_0)" d="M584.45 112.06333C584.45 113.720184 583.1069 115.06333 581.45 115.06333C579.79315 115.06333 578.45 113.720184 578.45 112.06333C578.45 110.40648 579.79315 109.06333 581.45 109.06333C583.1069 109.06333 584.45 110.40648 584.45 112.06333Z" fill-rule="nonzero"/><path fill="#000000" fill-opacity="0.0" clip-path="url(#id_0)" d="M69.55 273.2389C69.55 274.89575 68.206856 276.2389 66.55 276.2389C64.89314 276.2389 63.55 274.89575 63.55 273.2389C63.55 271.58203 64.89314 270.2389 66.55 270.2389C68.206856 270.2389 69.55 271.58203 69.55 273.2389Z" fill-rule="nonzero"/><path fill="#000000" fill-opacity="0.0" clip-path="url(#id_0)" d="M103.87666 273.2389C103.87666 274.89575 102.53352 276.2389 100.87666 276.2389C99.21981 276.2389 97.87666 274.89575 97.87666 273.2389C97.87666 271.58203 99.21981 270.2389 100.87666 270.2389C102.53352 270.2389 103.87666 271.58203 103.87666 273.2389Z" fill-rule="nonzero"/><path fill="#000000" fill-opacity="0.0" clip-path="url(#id_0)" d="M172.53 273.2389C172.53 274.89575 171.18686 276.2389 169.53 276.2389C167.87314 276.2389 166.53 274.89575 166.53 273.2389C166.53 271.58203 167.87314 270.2389 169.53 270.2389C171.18686 270.2389 172.53 271.58203 172.53 273.2389Z" fill-rule="nonzero"/><path fill="#000000" fill-opacity="0.0" clip-path="url(#id_0)" d="M309.83667 273.2389C309.83667 274.89575 308.49353 276.2389 306.83667 276.2389C305.1798 276.2389 303.83667 274.89575 303.83667 273.2389C303.83667 271.58203 305.1798 270.2389 306.83667 270.2389C308.49353 270.2389 309.83667 271.58203 309.83667 273.2389Z" fill-rule="nonzero"/><path fill="#000000" fill-opacity="0.0" clip-path="url(#id_0)" d="M584.45 273.2389C584.45 274.89575 583.1069 276.2389 581.45 276.2389C579.79315 276.2389 578.45 274.89575 578.45 273.2389C578.45 271.58203 579.79315 270.2389 581.45 270.2389C583.1069 270.2389 584.45 271.58203 584.45 273.2389Z" fill-rule="nonzero"/><path fill="#000000" d="M308.4375 349.45L308.4375 340.85626L312.25 340.85626Q313.40625 340.85626 314.0 341.09064Q314.59375 341.325 314.95312 341.91876Q315.3125 342.4969 315.3125 343.2Q315.3125 344.1219 314.71875 344.7469Q314.125 345.3719 312.89062 345.54376Q313.34375 345.7625 313.57812 345.96564Q314.07812 346.41876 314.51562 347.10626L316.01562 349.45L314.57812 349.45L313.45312 347.66876Q312.95312 346.8875 312.625 346.48126Q312.3125 346.075 312.04688 345.91876Q311.79688 345.7469 311.53125 345.66876Q311.34375 345.6375 310.90625 345.6375L309.57812 345.6375L309.57812 349.45L308.4375 349.45ZM309.57812 344.65314L312.03125 344.65314Q312.79688 344.65314 313.23438 344.4969Q313.6875 344.325 313.90625 343.98126Q314.14062 343.6219 314.14062 343.2Q314.14062 342.59064 313.6875 342.2Q313.25 341.8094 312.29688 341.8094L309.57812 341.8094L309.57812 344.65314ZM317.45312 349.45L317.45312 340.85626L323.65625 340.85626L323.65625 341.8719L318.59375 341.8719L318.59375 344.4969L323.34375 344.4969L323.34375 345.5125L318.59375 345.5125L318.59375 348.4344L323.85938 348.4344L323.85938 349.45L317.45312 349.45ZM324.48438 349.45L327.78125 340.85626L329.0 340.85626L332.51562 349.45L331.23438 349.45L330.21875 346.84064L326.64062 346.84064L325.6875 349.45L324.48438 349.45ZM326.96875 345.91876L329.875 345.91876L328.98438 343.54376Q328.5625 342.46564 328.375 341.7625Q328.20312 342.59064 327.90625 343.40314L326.96875 345.91876ZM332.42188 349.45L332.42188 340.85626L335.39062 340.85626Q336.39062 340.85626 336.92188 340.98126Q337.65625 341.15314 338.17188 341.59064Q338.85938 342.16876 339.1875 343.075Q339.53125 343.96564 339.53125 345.10626Q339.53125 346.09064 339.29688 346.84064Q339.07812 347.59064 338.71875 348.09064Q338.35938 348.59064 337.92188 348.8719Q337.5 349.15314 336.90625 349.3094Q336.3125 349.45 335.53125 349.45L332.42188 349.45ZM333.5625 348.4344L335.39062 348.4344Q336.25 348.4344 336.73438 348.27814Q337.21875 348.1219 337.5 347.825Q337.90625 347.4344 338.125 346.7469Q338.35938 346.0594 338.35938 345.09064Q338.35938 343.7469 337.90625 343.02814Q337.46875 342.29376 336.84375 342.04376Q336.375 341.8719 335.375 341.8719L333.5625 341.8719L333.5625 348.4344Z" fill-rule="nonzero"/><path fill="#000000" d="M26.05 286.21564Q26.05 284.6844 26.3625 283.7625Q26.675 282.825 27.284374 282.325Q27.909374 281.825 28.846874 281.825Q29.534374 281.825 30.05 282.10626Q30.58125 282.3875 30.925 282.91876Q31.26875 283.4344 31.45625 284.1844Q31.64375 284.9344 31.64375 286.21564Q31.64375 287.73126 31.33125 288.65314Q31.034374 289.575 30.409374 290.09064Q29.8 290.59064 28.846874 290.59064Q27.6125 290.59064 26.89375 289.7Q26.05 288.6375 26.05 286.21564ZM27.128124 286.21564Q27.128124 288.325 27.628124 289.02814Q28.128124 289.73126 28.846874 289.73126Q29.58125 289.73126 30.065624 289.02814Q30.565624 288.325 30.565624 286.21564Q30.565624 284.09064 30.065624 283.40314Q29.58125 282.7 28.83125 282.7Q28.1125 282.7 27.675 283.3094Q27.128124 284.09064 27.128124 286.21564ZM33.64375 290.45L33.64375 289.2469L34.846874 289.2469L34.846874 290.45L33.64375 290.45ZM36.05 286.21564Q36.05 284.6844 36.3625 283.7625Q36.675 282.825 37.284374 282.325Q37.909374 281.825 38.846874 281.825Q39.534374 281.825 40.05 282.10626Q40.58125 282.3875 40.925 282.91876Q41.26875 283.4344 41.45625 284.1844Q41.64375 284.9344 41.64375 286.21564Q41.64375 287.73126 41.33125 288.65314Q41.034374 289.575 40.409374 290.09064Q39.8 290.59064 38.846874 290.59064Q37.6125 290.59064 36.89375 289.7Q36.05 288.6375 36.05 286.21564ZM37.128124 286.21564Q37.128124 288.325 37.628124 289.02814Q38.128124 289.73126 38.846874 289.73126Q39.58125 289.73126 40.065624 289.02814Q40.565624 288.325 40.565624 286.21564Q40.565624 284.09064 40.065624 283.40314Q39.58125 282.7 38.83125 282.7Q38.1125 282.7 37.675 283.3094Q37.128124 284.09064 37.128124 286.21564ZM43.346874 290.45L43.346874 284.23126L44.284374 284.23126L44.284374 285.10626Q44.58125 284.6375 45.065624 284.3719Q45.55 284.09064 46.175 284.09064Q46.8625 284.09064 47.3 284.3719Q47.753124 284.65314 47.925 285.16876Q48.675 284.09064 49.846874 284.09064Q50.784374 284.09064 51.26875 284.60626Q51.76875 285.10626 51.76875 286.1844L51.76875 290.45L50.721874 290.45L50.721874 286.52814Q50.721874 285.90314 50.6125 285.6219Q50.51875 285.34064 50.253124 285.16876Q49.9875 284.9969 49.6125 284.9969Q48.95625 284.9969 48.51875 285.4344Q48.096874 285.8719 48.096874 286.84064L48.096874 290.45L47.034374 290.45L47.034374 286.40314Q47.034374 285.7 46.76875 285.35626Q46.51875 284.9969 45.940624 284.9969Q45.4875 284.9969 45.1125 285.23126Q44.7375 285.46564 44.565624 285.91876Q44.39375 286.3719 44.39375 287.21564L44.39375 290.45L43.346874 290.45ZM53.925 288.59064L54.95625 288.4344Q55.05 289.0594 55.440624 289.3875Q55.846874 289.71564 56.58125 289.71564Q57.3 289.71564 57.64375 289.4344Q58.003124 289.1375 58.003124 288.73126Q58.003124 288.3719 57.690624 288.16876Q57.471874 288.02814 56.6125 287.8094Q55.45625 287.5125 55.003124 287.3094Q54.565624 287.09064 54.33125 286.71564Q54.096874 286.34064 54.096874 285.8719Q54.096874 285.46564 54.284374 285.10626Q54.471874 284.7469 54.8 284.5125Q55.05 284.34064 55.471874 284.21564Q55.89375 284.09064 56.39375 284.09064Q57.1125 284.09064 57.659374 284.3094Q58.221874 284.5125 58.4875 284.8719Q58.753124 285.23126 58.846874 285.825L57.815624 285.96564Q57.753124 285.4969 57.409374 285.23126Q57.08125 284.95 56.45625 284.95Q55.7375 284.95 55.425 285.2Q55.1125 285.4344 55.1125 285.7625Q55.1125 285.96564 55.2375 286.1219Q55.378124 286.29376 55.64375 286.40314Q55.8 286.46564 56.58125 286.66876Q57.70625 286.98126 58.14375 287.16876Q58.58125 287.35626 58.83125 287.71564Q59.08125 288.075 59.08125 288.6219Q59.08125 289.15314 58.76875 289.6219Q58.471874 290.075 57.89375 290.34064Q57.315624 290.59064 56.58125 290.59064Q55.3625 290.59064 54.721874 290.09064Q54.096874 289.575 53.925 288.59064Z" fill-rule="nonzero"/><path fill="#000000" d="M23.01875 224.39444L21.971874 224.39444L21.971874 217.67569Q21.58125 218.03506 20.95625 218.41006Q20.346874 218.76944 19.8625 218.94131L19.8625 217.92569Q20.7375 217.50381 21.39375 216.92569Q22.065624 216.33194 22.346874 215.76944L23.01875 215.76944L23.01875 224.39444ZM26.05 220.16006Q26.05 218.62881 26.3625 217.70694Q26.675 216.76944 27.284374 216.26944Q27.909374 215.76944 28.846874 215.76944Q29.534374 215.76944 30.05 216.05069Q30.58125 216.33194 30.925 216.86319Q31.26875 217.37881 31.45625 218.12881Q31.64375 218.87881 31.64375 220.16006Q31.64375 221.67569 31.33125 222.59756Q31.034374 223.51944 30.409374 224.03506Q29.8 224.53506 28.846874 224.53506Q27.6125 224.53506 26.89375 223.64444Q26.05 222.58194 26.05 220.16006ZM27.128124 220.16006Q27.128124 222.26944 27.628124 222.97256Q28.128124 223.67569 28.846874 223.67569Q29.58125 223.67569 30.065624 222.97256Q30.565624 222.26944 30.565624 220.16006Q30.565624 218.03506 30.065624 217.34756Q29.58125 216.64444 28.83125 216.64444Q28.1125 216.64444 27.675 217.25381Q27.128124 218.03506 27.128124 220.16006ZM33.64375 224.39444L33.64375 223.19131L34.846874 223.19131L34.846874 224.39444L33.64375 224.39444ZM36.05 220.16006Q36.05 218.62881 36.3625 217.70694Q36.675 216.76944 37.284374 216.26944Q37.909374 215.76944 38.846874 215.76944Q39.534374 215.76944 40.05 216.05069Q40.58125 216.33194 40.925 216.86319Q41.26875 217.37881 41.45625 218.12881Q41.64375 218.87881 41.64375 220.16006Q41.64375 221.67569 41.33125 222.59756Q41.034374 223.51944 40.409374 224.03506Q39.8 224.53506 38.846874 224.53506Q37.6125 224.53506 36.89375 223.64444Q36.05 222.58194 36.05 220.16006ZM37.128124 220.16006Q37.128124 222.26944 37.628124 222.97256Q38.128124 223.67569 38.846874 223.67569Q39.58125 223.67569 40.065624 222.97256Q40.565624 222.26944 40.565624 220.16006Q40.565624 218.03506 40.065624 217.34756Q39.58125 216.64444 38.83125 216.64444Q38.1125 216.64444 37.675 217.25381Q37.128124 218.03506 37.128124 220.16006ZM43.346874 224.39444L43.346874 218.17569L44.284374 218.17569L44.284374 219.05069Q44.58125 218.58194 45.065624 218.31631Q45.55 218.03506 46.175 218.03506Q46.8625 218.03506 47.3 218.31631Q47.753124 218.59756 47.925 219.11319Q48.675 218.03506 49.846874 218.03506Q50.784374 218.03506 51.26875 218.55069Q51.76875 219.05069 51.76875 220.12881L51.76875 224.39444L50.721874 224.39444L50.721874 220.47256Q50.721874 219.84756 50.6125 219.56631Q50.51875 219.28506 50.253124 219.11319Q49.9875 218.94131 49.6125 218.94131Q48.95625 218.94131 48.51875 219.37881Q48.096874 219.81631 48.096874 220.78506L48.096874 224.39444L47.034374 224.39444L47.034374 220.34756Q47.034374 219.64444 46.76875 219.30069Q46.51875 218.94131 45.940624 218.94131Q45.4875 218.94131 45.1125 219.17569Q44.7375 219.41006 44.565624 219.86319Q44.39375 220.31631 44.39375 221.16006L44.39375 224.39444L43.346874 224.39444ZM53.925 222.53506L54.95625 222.37881Q55.05 223.00381 55.440624 223.33194Q55.846874 223.66006 56.58125 223.66006Q57.3 223.66006 57.64375 223.37881Q58.003124 223.08194 58.003124 222.67569Q58.003124 222.31631 57.690624 222.11319Q57.471874 221.97256 56.6125 221.75381Q55.45625 221.45694 55.003124 221.25381Q54.565624 221.03506 54.33125 220.66006Q54.096874 220.28506 54.096874 219.81631Q54.096874 219.41006 54.284374 219.05069Q54.471874 218.69131 54.8 218.45694Q55.05 218.28506 55.471874 218.16006Q55.89375 218.03506 56.39375 218.03506Q57.1125 218.03506 57.659374 218.25381Q58.221874 218.45694 58.4875 218.81631Q58.753124 219.17569 58.846874 219.76944L57.815624 219.91006Q57.753124 219.44131 57.409374 219.17569Q57.08125 218.89444 56.45625 218.89444Q55.7375 218.89444 55.425 219.14444Q55.1125 219.37881 55.1125 219.70694Q55.1125 219.91006 55.2375 220.06631Q55.378124 220.23819 55.64375 220.34756Q55.8 220.41006 56.58125 220.61319Q57.70625 220.92569 58.14375 221.11319Q58.58125 221.30069 58.83125 221.66006Q59.08125 222.01944 59.08125 222.56631Q59.08125 223.09756 58.76875 223.56631Q58.471874 224.01944 57.89375 224.28506Q57.315624 224.53506 56.58125 224.53506Q55.3625 224.53506 54.721874 224.03506Q54.096874 223.51944 53.925 222.53506Z" fill-rule="nonzero"/><path fill="#000000" d="M24.596874 157.32326L24.596874 158.33888L18.909374 158.33888Q18.909374 157.96388 19.034374 157.6045Q19.253124 157.02638 19.721874 156.46388Q20.20625 155.90138 21.1125 155.167Q22.51875 154.01076 23.003124 153.33888Q23.503124 152.667 23.503124 152.07326Q23.503124 151.44826 23.05 151.02638Q22.596874 150.58888 21.878124 150.58888Q21.1125 150.58888 20.659374 151.042Q20.20625 151.49513 20.190624 152.30763L19.1125 152.19826Q19.221874 150.9795 19.940624 150.3545Q20.675 149.71388 21.909374 149.71388Q23.14375 149.71388 23.8625 150.40138Q24.58125 151.08888 24.58125 152.1045Q24.58125 152.62013 24.3625 153.12013Q24.159374 153.6045 23.659374 154.167Q23.175 154.71388 22.05 155.667Q21.096874 156.46388 20.815624 156.76076Q20.55 157.042 20.378124 157.32326L24.596874 157.32326ZM26.05 154.1045Q26.05 152.57326 26.3625 151.65138Q26.675 150.71388 27.284374 150.21388Q27.909374 149.71388 28.846874 149.71388Q29.534374 149.71388 30.05 149.99513Q30.58125 150.27638 30.925 150.80763Q31.26875 151.32326 31.45625 152.07326Q31.64375 152.82326 31.64375 154.1045Q31.64375 155.62013 31.33125 156.542Q31.034374 157.46388 30.409374 157.9795Q29.8 158.4795 28.846874 158.4795Q27.6125 158.4795 26.89375 157.58888Q26.05 156.52638 26.05 154.1045ZM27.128124 154.1045Q27.128124 156.21388 27.628124 156.917Q28.128124 157.62013 28.846874 157.62013Q29.58125 157.62013 30.065624 156.917Q30.565624 156.21388 30.565624 154.1045Q30.565624 151.9795 30.065624 151.292Q29.58125 150.58888 28.83125 150.58888Q28.1125 150.58888 27.675 151.19826Q27.128124 151.9795 27.128124 154.1045ZM33.64375 158.33888L33.64375 157.13576L34.846874 157.13576L34.846874 158.33888L33.64375 158.33888ZM36.05 154.1045Q36.05 152.57326 36.3625 151.65138Q36.675 150.71388 37.284374 150.21388Q37.909374 149.71388 38.846874 149.71388Q39.534374 149.71388 40.05 149.99513Q40.58125 150.27638 40.925 150.80763Q41.26875 151.32326 41.45625 152.07326Q41.64375 152.82326 41.64375 154.1045Q41.64375 155.62013 41.33125 156.542Q41.034374 157.46388 40.409374 157.9795Q39.8 158.4795 38.846874 158.4795Q37.6125 158.4795 36.89375 157.58888Q36.05 156.52638 36.05 154.1045ZM37.128124 154.1045Q37.128124 156.21388 37.628124 156.917Q38.128124 157.62013 38.846874 157.62013Q39.58125 157.62013 40.065624 156.917Q40.565624 156.21388 40.565624 154.1045Q40.565624 151.9795 40.065624 151.292Q39.58125 150.58888 38.83125 150.58888Q38.1125 150.58888 37.675 151.19826Q37.128124 151.9795 37.128124 154.1045ZM43.346874 158.33888L43.346874 152.12013L44.284374 152.12013L44.284374 152.99513Q44.58125 152.52638 45.065624 152.26076Q45.55 151.9795 46.175 151.9795Q46.8625 151.9795 47.3 152.26076Q47.753124 152.542 47.925 153.05763Q48.675 151.9795 49.846874 151.9795Q50.784374 151.9795 51.26875 152.49513Q51.76875 152.99513 51.76875 154.07326L51.76875 158.33888L50.721874 158.33888L50.721874 154.417Q50.721874 153.792 50.6125 153.51076Q50.51875 153.2295 50.253124 153.05763Q49.9875 152.88576 49.6125 152.88576Q48.95625 152.88576 48.51875 153.32326Q48.096874 153.76076 48.096874 154.7295L48.096874 158.33888L47.034374 158.33888L47.034374 154.292Q47.034374 153.58888 46.76875 153.24513Q46.51875 152.88576 45.940624 152.88576Q45.4875 152.88576 45.1125 153.12013Q44.7375 153.3545 44.565624 153.80763Q44.39375 154.26076 44.39375 155.1045L44.39375 158.33888L43.346874 158.33888ZM53.925 156.4795L54.95625 156.32326Q55.05 156.94826 55.440624 157.27638Q55.846874 157.6045 56.58125 157.6045Q57.3 157.6045 57.64375 157.32326Q58.003124 157.02638 58.003124 156.62013Q58.003124 156.26076 57.690624 156.05763Q57.471874 155.917 56.6125 155.69826Q55.45625 155.40138 55.003124 155.19826Q54.565624 154.9795 54.33125 154.6045Q54.096874 154.2295 54.096874 153.76076Q54.096874 153.3545 54.284374 152.99513Q54.471874 152.63576 54.8 152.40138Q55.05 152.2295 55.471874 152.1045Q55.89375 151.9795 56.39375 151.9795Q57.1125 151.9795 57.659374 152.19826Q58.221874 152.40138 58.4875 152.76076Q58.753124 153.12013 58.846874 153.71388L57.815624 153.8545Q57.753124 153.38576 57.409374 153.12013Q57.08125 152.83888 56.45625 152.83888Q55.7375 152.83888 55.425 153.08888Q55.1125 153.32326 55.1125 153.65138Q55.1125 153.8545 55.2375 154.01076Q55.378124 154.18263 55.64375 154.292Q55.8 154.3545 56.58125 154.55763Q57.70625 154.87013 58.14375 155.05763Q58.58125 155.24513 58.83125 155.6045Q59.08125 155.96388 59.08125 156.51076Q59.08125 157.042 58.76875 157.51076Q58.471874 157.96388 57.89375 158.2295Q57.315624 158.4795 56.58125 158.4795Q55.3625 158.4795 54.721874 157.9795Q54.096874 157.46388 53.925 156.4795Z" fill-rule="nonzero"/><path fill="#000000" d="M19.05 90.01771L20.1125 89.87708Q20.284374 90.76771 20.721874 91.17396Q21.159374 91.56458 21.784374 91.56458Q22.534374 91.56458 23.05 91.04896Q23.565624 90.53333 23.565624 89.76771Q23.565624 89.04896 23.08125 88.58021Q22.6125 88.09583 21.878124 88.09583Q21.58125 88.09583 21.128124 88.22083L21.253124 87.28333Q21.3625 87.29896 21.425 87.29896Q22.096874 87.29896 22.628124 86.95521Q23.175 86.59583 23.175 85.86146Q23.175 85.28333 22.784374 84.90833Q22.39375 84.51771 21.76875 84.51771Q21.159374 84.51771 20.7375 84.90833Q20.33125 85.29896 20.221874 86.06458L19.159374 85.87708Q19.346874 84.83021 20.034374 84.25208Q20.721874 83.65833 21.7375 83.65833Q22.440624 83.65833 23.034374 83.97083Q23.628124 84.26771 23.940624 84.78333Q24.253124 85.29896 24.253124 85.89271Q24.253124 86.43958 23.95625 86.90833Q23.659374 87.36146 23.08125 87.62708Q23.83125 87.79896 24.253124 88.36146Q24.675 88.90833 24.675 89.75208Q24.675 90.87708 23.846874 91.65833Q23.034374 92.43958 21.784374 92.43958Q20.659374 92.43958 19.909374 91.76771Q19.159374 91.08021 19.05 90.01771ZM26.05 88.04896Q26.05 86.51771 26.3625 85.59583Q26.675 84.65833 27.284374 84.15833Q27.909374 83.65833 28.846874 83.65833Q29.534374 83.65833 30.05 83.93958Q30.58125 84.22083 30.925 84.75208Q31.26875 85.26771 31.45625 86.01771Q31.64375 86.76771 31.64375 88.04896Q31.64375 89.56458 31.33125 90.48646Q31.034374 91.40833 30.409374 91.92396Q29.8 92.42396 28.846874 92.42396Q27.6125 92.42396 26.89375 91.53333Q26.05 90.47083 26.05 88.04896ZM27.128124 88.04896Q27.128124 90.15833 27.628124 90.86146Q28.128124 91.56458 28.846874 91.56458Q29.58125 91.56458 30.065624 90.86146Q30.565624 90.15833 30.565624 88.04896Q30.565624 85.92396 30.065624 85.23646Q29.58125 84.53333 28.83125 84.53333Q28.1125 84.53333 27.675 85.14271Q27.128124 85.92396 27.128124 88.04896ZM33.64375 92.28333L33.64375 91.08021L34.846874 91.08021L34.846874 92.28333L33.64375 92.28333ZM36.05 88.04896Q36.05 86.51771 36.3625 85.59583Q36.675 84.65833 37.284374 84.15833Q37.909374 83.65833 38.846874 83.65833Q39.534374 83.65833 40.05 83.93958Q40.58125 84.22083 40.925 84.75208Q41.26875 85.26771 41.45625 86.01771Q41.64375 86.76771 41.64375 88.04896Q41.64375 89.56458 41.33125 90.48646Q41.034374 91.40833 40.409374 91.92396Q39.8 92.42396 38.846874 92.42396Q37.6125 92.42396 36.89375 91.53333Q36.05 90.47083 36.05 88.04896ZM37.128124 88.04896Q37.128124 90.15833 37.628124 90.86146Q38.128124 91.56458 38.846874 91.56458Q39.58125 91.56458 40.065624 90.86146Q40.565624 90.15833 40.565624 88.04896Q40.565624 85.92396 40.065624 85.23646Q39.58125 84.53333 38.83125 84.53333Q38.1125 84.53333 37.675 85.14271Q37.128124 85.92396 37.128124 88.04896ZM43.346874 92.28333L43.346874 86.06458L44.284374 86.06458L44.284374 86.93958Q44.58125 86.47083 45.065624 86.20521Q45.55 85.92396 46.175 85.92396Q46.8625 85.92396 47.3 86.20521Q47.753124 86.48646 47.925 87.00208Q48.675 85.92396 49.846874 85.92396Q50.784374 85.92396 51.26875 86.43958Q51.76875 86.93958 51.76875 88.01771L51.76875 92.28333L50.721874 92.28333L50.721874 88.36146Q50.721874 87.73646 50.6125 87.45521Q50.51875 87.17396 50.253124 87.00208Q49.9875 86.83021 49.6125 86.83021Q48.95625 86.83021 48.51875 87.26771Q48.096874 87.70521 48.096874 88.67396L48.096874 92.28333L47.034374 92.28333L47.034374 88.23646Q47.034374 87.53333 46.76875 87.18958Q46.51875 86.83021 45.940624 86.83021Q45.4875 86.83021 45.1125 87.06458Q44.7375 87.29896 44.565624 87.75208Q44.39375 88.20521 44.39375 89.04896L44.39375 92.28333L43.346874 92.28333ZM53.925 90.42396L54.95625 90.26771Q55.05 90.89271 55.440624 91.22083Q55.846874 91.54896 56.58125 91.54896Q57.3 91.54896 57.64375 91.26771Q58.003124 90.97083 58.003124 90.56458Q58.003124 90.20521 57.690624 90.00208Q57.471874 89.86146 56.6125 89.64271Q55.45625 89.34583 55.003124 89.14271Q54.565624 88.92396 54.33125 88.54896Q54.096874 88.17396 54.096874 87.70521Q54.096874 87.29896 54.284374 86.93958Q54.471874 86.58021 54.8 86.34583Q55.05 86.17396 55.471874 86.04896Q55.89375 85.92396 56.39375 85.92396Q57.1125 85.92396 57.659374 86.14271Q58.221874 86.34583 58.4875 86.70521Q58.753124 87.06458 58.846874 87.65833L57.815624 87.79896Q57.753124 87.33021 57.409374 87.06458Q57.08125 86.78333 56.45625 86.78333Q55.7375 86.78333 55.425 87.03333Q55.1125 87.26771 55.1125 87.59583Q55.1125 87.79896 55.2375 87.95521Q55.378124 88.12708 55.64375 88.23646Q55.8 88.29896 56.58125 88.50208Q57.70625 88.81458 58.14375 89.00208Q58.58125 89.18958 58.83125 89.54896Q59.08125 89.90833 59.08125 90.45521Q59.08125 90.98646 58.76875 91.45521Q58.471874 91.90833 57.89375 92.17396Q57.315624 92.42396 56.58125 92.42396Q55.3625 92.42396 54.721874 91.92396Q54.096874 91.40833 53.925 90.42396Z" fill-rule="nonzero"/><path fill="#000000" d="M105.47854 303.45L105.47854 294.85626L111.27541 294.85626L111.27541 295.8719L106.61916 295.8719L106.61916 298.52814L110.65041 298.52814L110.65041 299.54376L106.61916 299.54376L106.61916 303.45L105.47854 303.45ZM112.27541 303.45L112.27541 297.23126L113.22854 297.23126L113.22854 298.16876Q113.58791 297.5125 113.88479 297.3094Q114.19729 297.09064 114.57229 297.09064Q115.10354 297.09064 115.65041 297.41876L115.29104 298.40314Q114.90041 298.16876 114.52541 298.16876Q114.16604 298.16876 113.88479 298.3875Q113.61916 298.59064 113.50979 298.96564Q113.32229 299.52814 113.32229 300.1844L113.32229 303.45L112.27541 303.45ZM115.90041 300.34064Q115.90041 298.60626 116.85354 297.77814Q117.65041 297.09064 118.80666 297.09064Q120.08791 297.09064 120.90041 297.9344Q121.72854 298.7625 121.72854 300.2469Q121.72854 301.45 121.36916 302.1375Q121.00979 302.825 120.30666 303.21564Q119.61916 303.59064 118.80666 303.59064Q117.50979 303.59064 116.69729 302.7625Q115.90041 301.91876 115.90041 300.34064ZM116.97854 300.34064Q116.97854 301.52814 117.49416 302.1219Q118.02541 302.71564 118.80666 302.71564Q119.60354 302.71564 120.11916 302.1219Q120.63479 301.52814 120.63479 300.3094Q120.63479 299.15314 120.10354 298.5594Q119.58791 297.96564 118.80666 297.96564Q118.02541 297.96564 117.49416 298.5594Q116.97854 299.1375 116.97854 300.34064ZM123.29104 303.45L123.29104 297.23126L124.22854 297.23126L124.22854 298.10626Q124.52541 297.6375 125.00979 297.3719Q125.49416 297.09064 126.11916 297.09064Q126.80666 297.09064 127.24416 297.3719Q127.69729 297.65314 127.86916 298.16876Q128.61917 297.09064 129.79105 297.09064Q130.72855 297.09064 131.21292 297.60626Q131.71292 298.10626 131.71292 299.1844L131.71292 303.45L130.66605 303.45L130.66605 299.52814Q130.66605 298.90314 130.55667 298.6219Q130.46292 298.34064 130.1973 298.16876Q129.93167 297.9969 129.55667 297.9969Q128.90042 297.9969 128.46292 298.4344Q128.04105 298.8719 128.04105 299.84064L128.04105 303.45L126.97854 303.45L126.97854 299.40314Q126.97854 298.7 126.71291 298.35626Q126.46291 297.9969 125.88479 297.9969Q125.43166 297.9969 125.05666 298.23126Q124.68166 298.46564 124.50979 298.91876Q124.33791 299.3719 124.33791 300.21564L124.33791 303.45L123.29104 303.45ZM142.54105 302.4344L142.54105 303.45L136.85355 303.45Q136.85355 303.075 136.97855 302.71564Q137.1973 302.1375 137.66605 301.575Q138.15042 301.0125 139.05667 300.27814Q140.46292 299.1219 140.9473 298.45Q141.4473 297.77814 141.4473 297.1844Q141.4473 296.5594 140.99417 296.1375Q140.54105 295.7 139.8223 295.7Q139.05667 295.7 138.60355 296.15314Q138.15042 296.60626 138.1348 297.41876L137.05667 297.3094Q137.16605 296.09064 137.8848 295.46564Q138.61917 294.825 139.85355 294.825Q141.08792 294.825 141.80667 295.5125Q142.52542 296.2 142.52542 297.21564Q142.52542 297.73126 142.30667 298.23126Q142.10355 298.71564 141.60355 299.27814Q141.11917 299.825 139.99417 300.77814Q139.04105 301.575 138.7598 301.8719Q138.49417 302.15314 138.3223 302.4344L142.54105 302.4344ZM143.99417 301.2L145.10355 301.10626Q145.22855 301.91876 145.66605 302.325Q146.11917 302.73126 146.7598 302.73126Q147.5098 302.73126 148.04105 302.15314Q148.5723 301.575 148.5723 300.6375Q148.5723 299.73126 148.05667 299.21564Q147.55667 298.6844 146.72855 298.6844Q146.22855 298.6844 145.80667 298.91876Q145.40042 299.15314 145.16605 299.5125L144.18167 299.3875L145.0098 294.98126L149.29105 294.98126L149.29105 295.98126L145.85355 295.98126L145.40042 298.29376Q146.16605 297.7469 147.0098 297.7469Q148.1348 297.7469 148.90042 298.52814Q149.68167 299.3094 149.68167 300.54376Q149.68167 301.7 149.0098 302.5594Q148.18167 303.59064 146.7598 303.59064Q145.58792 303.59064 144.83792 302.9344Q144.10355 302.27814 143.99417 301.2ZM151.55667 303.45L151.55667 302.2469L152.7598 302.2469L152.7598 303.45Q152.7598 304.10626 152.52542 304.5125Q152.29105 304.9344 151.79105 305.15314L151.49417 304.7Q151.8223 304.5594 151.97855 304.2625Q152.1348 303.98126 152.16605 303.45L151.55667 303.45ZM153.99417 299.21564Q153.99417 297.6844 154.30667 296.7625Q154.61917 295.825 155.22855 295.325Q155.85355 294.825 156.79105 294.825Q157.47855 294.825 157.99417 295.10626Q158.52542 295.3875 158.86917 295.91876Q159.21292 296.4344 159.40042 297.1844Q159.58792 297.9344 159.58792 299.21564Q159.58792 300.73126 159.27542 301.65314Q158.97855 302.575 158.35355 303.09064Q157.74417 303.59064 156.79105 303.59064Q155.55667 303.59064 154.83792 302.7Q153.99417 301.6375 153.99417 299.21564ZM155.0723 299.21564Q155.0723 301.325 155.5723 302.02814Q156.0723 302.73126 156.79105 302.73126Q157.52542 302.73126 158.0098 302.02814Q158.5098 301.325 158.5098 299.21564Q158.5098 297.09064 158.0098 296.40314Q157.52542 295.7 156.77542 295.7Q156.05667 295.7 155.61917 296.3094Q155.0723 297.09064 155.0723 299.21564ZM160.99417 299.21564Q160.99417 297.6844 161.30667 296.7625Q161.61917 295.825 162.22855 295.325Q162.85355 294.825 163.79105 294.825Q164.47855 294.825 164.99417 295.10626Q165.52542 295.3875 165.86917 295.91876Q166.21292 296.4344 166.40042 297.1844Q166.58792 297.9344 166.58792 299.21564Q166.58792 300.73126 166.27542 301.65314Q165.97855 302.575 165.35355 303.09064Q164.74417 303.59064 163.79105 303.59064Q162.55667 303.59064 161.83792 302.7Q160.99417 301.6375 160.99417 299.21564ZM162.0723 299.21564Q162.0723 301.325 162.5723 302.02814Q163.0723 302.73126 163.79105 302.73126Q164.52542 302.73126 165.0098 302.02814Q165.5098 301.325 165.5098 299.21564Q165.5098 297.09064 165.0098 296.40314Q164.52542 295.7 163.77542 295.7Q163.05667 295.7 162.61917 296.3094Q162.0723 297.09064 162.0723 299.21564ZM167.99417 299.21564Q167.99417 297.6844 168.30667 296.7625Q168.61917 295.825 169.22855 295.325Q169.85355 294.825 170.79105 294.825Q171.47855 294.825 171.99417 295.10626Q172.52542 295.3875 172.86917 295.91876Q173.21292 296.4344 173.40042 297.1844Q173.58792 297.9344 173.58792 299.21564Q173.58792 300.73126 173.27542 301.65314Q172.97855 302.575 172.35355 303.09064Q171.74417 303.59064 170.79105 303.59064Q169.55667 303.59064 168.83792 302.7Q167.99417 301.6375 167.99417 299.21564ZM169.0723 299.21564Q169.0723 301.325 169.5723 302.02814Q170.0723 302.73126 170.79105 302.73126Q171.52542 302.73126 172.0098 302.02814Q172.5098 301.325 172.5098 299.21564Q172.5098 297.09064 172.0098 296.40314Q171.52542 295.7 170.77542 295.7Q170.05667 295.7 169.61917 296.3094Q169.0723 297.09064 169.0723 299.21564Z" fill-rule="nonzero"/><path fill="#000000" d="M119.27541 317.45L119.27541 311.23126L120.22854 311.23126L120.22854 312.16876Q120.58791 311.5125 120.88479 311.3094Q121.19729 311.09064 121.57229 311.09064Q122.10354 311.09064 122.65041 311.41876L122.29104 312.40314Q121.90041 312.16876 121.52541 312.16876Q121.16604 312.16876 120.88479 312.3875Q120.61916 312.59064 120.50979 312.96564Q120.32229 313.52814 120.32229 314.1844L120.32229 317.45L119.27541 317.45ZM127.54104 315.45L128.6348 315.575Q128.3848 316.52814 127.68166 317.0594Q126.97854 317.59064 125.90041 317.59064Q124.54104 317.59064 123.72854 316.7469Q122.93166 315.90314 122.93166 314.3875Q122.93166 312.825 123.74416 311.96564Q124.55666 311.09064 125.83791 311.09064Q127.08791 311.09064 127.86916 311.9344Q128.66605 312.77814 128.66605 314.325Q128.66605 314.41876 128.66605 314.60626L124.02541 314.60626Q124.08791 315.6375 124.60354 316.1844Q125.11916 316.71564 125.90041 316.71564Q126.47854 316.71564 126.88479 316.41876Q127.30666 316.10626 127.54104 315.45ZM124.08791 313.7469L127.55666 313.7469Q127.49416 312.95 127.16604 312.5594Q126.65041 311.95 125.85354 311.95Q125.11916 311.95 124.61916 312.4344Q124.13479 312.91876 124.08791 313.7469ZM134.35355 315.16876L135.3848 315.3094Q135.21292 316.3719 134.5098 316.98126Q133.80667 317.59064 132.79105 317.59064Q131.5098 317.59064 130.72855 316.7625Q129.96292 315.91876 129.96292 314.35626Q129.96292 313.35626 130.29105 312.60626Q130.6348 311.84064 131.30667 311.46564Q131.99417 311.09064 132.80667 311.09064Q133.80667 311.09064 134.4473 311.60626Q135.10355 312.10626 135.29105 313.0594L134.2598 313.21564Q134.11917 312.59064 133.74417 312.27814Q133.36917 311.95 132.83792 311.95Q132.04105 311.95 131.54105 312.52814Q131.04105 313.09064 131.04105 314.325Q131.04105 315.59064 131.52542 316.15314Q132.0098 316.71564 132.77542 316.71564Q133.40042 316.71564 133.80667 316.34064Q134.22855 315.96564 134.35355 315.16876ZM135.90042 314.34064Q135.90042 312.60626 136.85355 311.77814Q137.65042 311.09064 138.80667 311.09064Q140.08792 311.09064 140.90042 311.9344Q141.72855 312.7625 141.72855 314.2469Q141.72855 315.45 141.36917 316.1375Q141.0098 316.825 140.30667 317.21564Q139.61917 317.59064 138.80667 317.59064Q137.5098 317.59064 136.6973 316.7625Q135.90042 315.91876 135.90042 314.34064ZM136.97855 314.34064Q136.97855 315.52814 137.49417 316.1219Q138.02542 316.71564 138.80667 316.71564Q139.60355 316.71564 140.11917 316.1219Q140.6348 315.52814 140.6348 314.3094Q140.6348 313.15314 140.10355 312.5594Q139.58792 311.96564 138.80667 311.96564Q138.02542 311.96564 137.49417 312.5594Q136.97855 313.1375 136.97855 314.34064ZM143.27542 317.45L143.27542 311.23126L144.22855 311.23126L144.22855 312.16876Q144.58792 311.5125 144.8848 311.3094Q145.1973 311.09064 145.5723 311.09064Q146.10355 311.09064 146.65042 311.41876L146.29105 312.40314Q145.90042 312.16876 145.52542 312.16876Q145.16605 312.16876 144.8848 312.3875Q144.61917 312.59064 144.5098 312.96564Q144.3223 313.52814 144.3223 314.1844L144.3223 317.45L143.27542 317.45ZM151.3223 317.45L151.3223 316.66876Q150.72855 317.59064 149.58792 317.59064Q148.83792 317.59064 148.21292 317.1844Q147.58792 316.7625 147.24417 316.02814Q146.90042 315.29376 146.90042 314.34064Q146.90042 313.41876 147.21292 312.65314Q147.52542 311.8875 148.15042 311.4969Q148.77542 311.09064 149.54105 311.09064Q150.10355 311.09064 150.54105 311.325Q150.97855 311.5594 151.2598 311.9344L151.2598 308.85626L152.30667 308.85626L152.30667 317.45L151.3223 317.45ZM147.99417 314.34064Q147.99417 315.54376 148.49417 316.1375Q148.99417 316.71564 149.68167 316.71564Q150.36917 316.71564 150.85355 316.15314Q151.33792 315.59064 151.33792 314.4344Q151.33792 313.15314 150.83792 312.5594Q150.35355 311.96564 149.6348 311.96564Q148.93167 311.96564 148.46292 312.54376Q147.99417 313.10626 147.99417 314.34064ZM153.86917 315.59064L154.90042 315.4344Q154.99417 316.0594 155.3848 316.3875Q155.79105 316.71564 156.52542 316.71564Q157.24417 316.71564 157.58792 316.4344Q157.9473 316.1375 157.9473 315.73126Q157.9473 315.3719 157.6348 315.16876Q157.41605 315.02814 156.55667 314.8094Q155.40042 314.5125 154.9473 314.3094Q154.5098 314.09064 154.27542 313.71564Q154.04105 313.34064 154.04105 312.8719Q154.04105 312.46564 154.22855 312.10626Q154.41605 311.7469 154.74417 311.5125Q154.99417 311.34064 155.41605 311.21564Q155.83792 311.09064 156.33792 311.09064Q157.05667 311.09064 157.60355 311.3094Q158.16605 311.5125 158.43167 311.8719Q158.6973 312.23126 158.79105 312.825L157.7598 312.96564Q157.6973 312.4969 157.35355 312.23126Q157.02542 311.95 156.40042 311.95Q155.68167 311.95 155.36917 312.2Q155.05667 312.4344 155.05667 312.7625Q155.05667 312.96564 155.18167 313.1219Q155.3223 313.29376 155.58792 313.40314Q155.74417 313.46564 156.52542 313.66876Q157.65042 313.98126 158.08792 314.16876Q158.52542 314.35626 158.77542 314.71564Q159.02542 315.075 159.02542 315.6219Q159.02542 316.15314 158.71292 316.6219Q158.41605 317.075 157.83792 317.34064Q157.2598 317.59064 156.52542 317.59064Q155.30667 317.59064 154.66605 317.09064Q154.04105 316.575 153.86917 315.59064Z" fill-rule="nonzero"/><path fill="#000000" d="M212.74937 303.45L212.74937 294.85626L218.54625 294.85626L218.54625 295.8719L213.89 295.8719L213.89 298.52814L217.92125 298.52814L217.92125 299.54376L213.89 299.54376L213.89 303.45L212.74937 303.45ZM219.54625 303.45L219.54625 297.23126L220.49937 297.23126L220.49937 298.16876Q220.85875 297.5125 221.15562 297.3094Q221.46812 297.09064 221.84312 297.09064Q222.37437 297.09064 222.92125 297.41876L222.56187 298.40314Q222.17125 298.16876 221.79625 298.16876Q221.43687 298.16876 221.15562 298.3875Q220.89 298.59064 220.78062 298.96564Q220.59312 299.52814 220.59312 300.1844L220.59312 303.45L219.54625 303.45ZM223.17125 300.34064Q223.17125 298.60626 224.12437 297.77814Q224.92125 297.09064 226.0775 297.09064Q227.35875 297.09064 228.17125 297.9344Q228.99937 298.7625 228.99937 300.2469Q228.99937 301.45 228.64 302.1375Q228.28062 302.825 227.5775 303.21564Q226.89 303.59064 226.0775 303.59064Q224.78062 303.59064 223.96812 302.7625Q223.17125 301.91876 223.17125 300.34064ZM224.24937 300.34064Q224.24937 301.52814 224.765 302.1219Q225.29625 302.71564 226.0775 302.71564Q226.87437 302.71564 227.39 302.1219Q227.90562 301.52814 227.90562 300.3094Q227.90562 299.15314 227.37437 298.5594Q226.85875 297.96564 226.0775 297.96564Q225.29625 297.96564 224.765 298.5594Q224.24937 299.1375 224.24937 300.34064ZM230.56187 303.45L230.56187 297.23126L231.49937 297.23126L231.49937 298.10626Q231.79625 297.6375 232.28062 297.3719Q232.765 297.09064 233.39 297.09064Q234.0775 297.09064 234.515 297.3719Q234.96812 297.65314 235.14 298.16876Q235.89 297.09064 237.06187 297.09064Q237.99937 297.09064 238.48375 297.60626Q238.98375 298.10626 238.98375 299.1844L238.98375 303.45L237.93687 303.45L237.93687 299.52814Q237.93687 298.90314 237.8275 298.6219Q237.73375 298.34064 237.46812 298.16876Q237.2025 297.9969 236.8275 297.9969Q236.17125 297.9969 235.73375 298.4344Q235.31187 298.8719 235.31187 299.84064L235.31187 303.45L234.24937 303.45L234.24937 299.40314Q234.24937 298.7 233.98375 298.35626Q233.73375 297.9969 233.15562 297.9969Q232.7025 297.9969 232.3275 298.23126Q231.9525 298.46564 231.78062 298.91876Q231.60875 299.3719 231.60875 300.21564L231.60875 303.45L230.56187 303.45ZM244.265 301.2L245.37437 301.10626Q245.49937 301.91876 245.93687 302.325Q246.39 302.73126 247.03062 302.73126Q247.78062 302.73126 248.31187 302.15314Q248.84312 301.575 248.84312 300.6375Q248.84312 299.73126 248.3275 299.21564Q247.8275 298.6844 246.99937 298.6844Q246.49937 298.6844 246.0775 298.91876Q245.67125 299.15314 245.43687 299.5125L244.4525 299.3875L245.28062 294.98126L249.56187 294.98126L249.56187 295.98126L246.12437 295.98126L245.67125 298.29376Q246.43687 297.7469 247.28062 297.7469Q248.40562 297.7469 249.17125 298.52814Q249.9525 299.3094 249.9525 300.54376Q249.9525 301.7 249.28062 302.5594Q248.4525 303.59064 247.03062 303.59064Q245.85875 303.59064 245.10875 302.9344Q244.37437 302.27814 244.265 301.2ZM251.265 299.21564Q251.265 297.6844 251.5775 296.7625Q251.89 295.825 252.49937 295.325Q253.12437 294.825 254.06187 294.825Q254.74937 294.825 255.265 295.10626Q255.79625 295.3875 256.14 295.91876Q256.48376 296.4344 256.67126 297.1844Q256.85876 297.9344 256.85876 299.21564Q256.85876 300.73126 256.54626 301.65314Q256.2494 302.575 255.62437 303.09064Q255.015 303.59064 254.06187 303.59064Q252.8275 303.59064 252.10875 302.7Q251.265 301.6375 251.265 299.21564ZM252.34312 299.21564Q252.34312 301.325 252.84312 302.02814Q253.34312 302.73126 254.06187 302.73126Q254.79625 302.73126 255.28062 302.02814Q255.78062 301.325 255.78062 299.21564Q255.78062 297.09064 255.28062 296.40314Q254.79625 295.7 254.04625 295.7Q253.3275 295.7 252.89 296.3094Q252.34312 297.09064 252.34312 299.21564ZM258.8275 303.45L258.8275 302.2469L260.03064 302.2469L260.03064 303.45Q260.03064 304.10626 259.79626 304.5125Q259.5619 304.9344 259.0619 305.15314L258.765 304.7Q259.09314 304.5594 259.2494 304.2625Q259.40564 303.98126 259.4369 303.45L258.8275 303.45ZM261.265 299.21564Q261.265 297.6844 261.5775 296.7625Q261.89 295.825 262.4994 295.325Q263.1244 294.825 264.0619 294.825Q264.7494 294.825 265.265 295.10626Q265.79626 295.3875 266.14 295.91876Q266.48376 296.4344 266.67126 297.1844Q266.85876 297.9344 266.85876 299.21564Q266.85876 300.73126 266.54626 301.65314Q266.2494 302.575 265.6244 303.09064Q265.015 303.59064 264.0619 303.59064Q262.8275 303.59064 262.10876 302.7Q261.265 301.6375 261.265 299.21564ZM262.34314 299.21564Q262.34314 301.325 262.84314 302.02814Q263.34314 302.73126 264.0619 302.73126Q264.79626 302.73126 265.28064 302.02814Q265.78064 301.325 265.78064 299.21564Q265.78064 297.09064 265.28064 296.40314Q264.79626 295.7 264.04626 295.7Q263.3275 295.7 262.89 296.3094Q262.34314 297.09064 262.34314 299.21564ZM268.265 299.21564Q268.265 297.6844 268.5775 296.7625Q268.89 295.825 269.4994 295.325Q270.1244 294.825 271.0619 294.825Q271.7494 294.825 272.265 295.10626Q272.79626 295.3875 273.14 295.91876Q273.48376 296.4344 273.67126 297.1844Q273.85876 297.9344 273.85876 299.21564Q273.85876 300.73126 273.54626 301.65314Q273.2494 302.575 272.6244 303.09064Q272.015 303.59064 271.0619 303.59064Q269.8275 303.59064 269.10876 302.7Q268.265 301.6375 268.265 299.21564ZM269.34314 299.21564Q269.34314 301.325 269.84314 302.02814Q270.34314 302.73126 271.0619 302.73126Q271.79626 302.73126 272.28064 302.02814Q272.78064 301.325 272.78064 299.21564Q272.78064 297.09064 272.28064 296.40314Q271.79626 295.7 271.04626 295.7Q270.3275 295.7 269.89 296.3094Q269.34314 297.09064 269.34314 299.21564ZM275.265 299.21564Q275.265 297.6844 275.5775 296.7625Q275.89 295.825 276.4994 295.325Q277.1244 294.825 278.0619 294.825Q278.7494 294.825 279.265 295.10626Q279.79626 295.3875 280.14 295.91876Q280.48376 296.4344 280.67126 297.1844Q280.85876 297.9344 280.85876 299.21564Q280.85876 300.73126 280.54626 301.65314Q280.2494 302.575 279.6244 303.09064Q279.015 303.59064 278.0619 303.59064Q276.8275 303.59064 276.10876 302.7Q275.265 301.6375 275.265 299.21564ZM276.34314 299.21564Q276.34314 301.325 276.84314 302.02814Q277.34314 302.73126 278.0619 302.73126Q278.79626 302.73126 279.28064 302.02814Q279.78064 301.325 279.78064 299.21564Q279.78064 297.09064 279.28064 296.40314Q278.79626 295.7 278.04626 295.7Q277.3275 295.7 276.89 296.3094Q276.34314 297.09064 276.34314 299.21564Z" fill-rule="nonzero"/><path fill="#000000" d="M226.54625 317.45L226.54625 311.23126L227.49937 311.23126L227.49937 312.16876Q227.85875 311.5125 228.15562 311.3094Q228.46812 311.09064 228.84312 311.09064Q229.37437 311.09064 229.92125 311.41876L229.56187 312.40314Q229.17125 312.16876 228.79625 312.16876Q228.43687 312.16876 228.15562 312.3875Q227.89 312.59064 227.78062 312.96564Q227.59312 313.52814 227.59312 314.1844L227.59312 317.45L226.54625 317.45ZM234.81187 315.45L235.90562 315.575Q235.65562 316.52814 234.9525 317.0594Q234.24937 317.59064 233.17125 317.59064Q231.81187 317.59064 230.99937 316.7469Q230.2025 315.90314 230.2025 314.3875Q230.2025 312.825 231.015 311.96564Q231.8275 311.09064 233.10875 311.09064Q234.35875 311.09064 235.14 311.9344Q235.93687 312.77814 235.93687 314.325Q235.93687 314.41876 235.93687 314.60626L231.29625 314.60626Q231.35875 315.6375 231.87437 316.1844Q232.39 316.71564 233.17125 316.71564Q233.74937 316.71564 234.15562 316.41876Q234.5775 316.10626 234.81187 315.45ZM231.35875 313.7469L234.8275 313.7469Q234.765 312.95 234.43687 312.5594Q233.92125 311.95 233.12437 311.95Q232.39 311.95 231.89 312.4344Q231.40562 312.91876 231.35875 313.7469ZM241.62437 315.16876L242.65562 315.3094Q242.48375 316.3719 241.78062 316.98126Q241.0775 317.59064 240.06187 317.59064Q238.78062 317.59064 237.99937 316.7625Q237.23375 315.91876 237.23375 314.35626Q237.23375 313.35626 237.56187 312.60626Q237.90562 311.84064 238.5775 311.46564Q239.265 311.09064 240.0775 311.09064Q241.0775 311.09064 241.71812 311.60626Q242.37437 312.10626 242.56187 313.0594L241.53062 313.21564Q241.39 312.59064 241.015 312.27814Q240.64 311.95 240.10875 311.95Q239.31187 311.95 238.81187 312.52814Q238.31187 313.09064 238.31187 314.325Q238.31187 315.59064 238.79625 316.15314Q239.28062 316.71564 240.04625 316.71564Q240.67125 316.71564 241.0775 316.34064Q241.49937 315.96564 241.62437 315.16876ZM243.17125 314.34064Q243.17125 312.60626 244.12437 311.77814Q244.92125 311.09064 246.0775 311.09064Q247.35875 311.09064 248.17125 311.9344Q248.99937 312.7625 248.99937 314.2469Q248.99937 315.45 248.64 316.1375Q248.28062 316.825 247.5775 317.21564Q246.89 317.59064 246.0775 317.59064Q244.78062 317.59064 243.96812 316.7625Q243.17125 315.91876 243.17125 314.34064ZM244.24937 314.34064Q244.24937 315.52814 244.765 316.1219Q245.29625 316.71564 246.0775 316.71564Q246.87437 316.71564 247.39 316.1219Q247.90562 315.52814 247.90562 314.3094Q247.90562 313.15314 247.37437 312.5594Q246.85875 311.96564 246.0775 311.96564Q245.29625 311.96564 244.765 312.5594Q244.24937 313.1375 244.24937 314.34064ZM250.54625 317.45L250.54625 311.23126L251.49937 311.23126L251.49937 312.16876Q251.85875 311.5125 252.15562 311.3094Q252.46812 311.09064 252.84312 311.09064Q253.37437 311.09064 253.92125 311.41876L253.56187 312.40314Q253.17125 312.16876 252.79625 312.16876Q252.43687 312.16876 252.15562 312.3875Q251.89 312.59064 251.78062 312.96564Q251.59312 313.52814 251.59312 314.1844L251.59312 317.45L250.54625 317.45ZM258.59314 317.45L258.59314 316.66876Q257.9994 317.59064 256.85876 317.59064Q256.10876 317.59064 255.48375 317.1844Q254.85875 316.7625 254.515 316.02814Q254.17125 315.29376 254.17125 314.34064Q254.17125 313.41876 254.48375 312.65314Q254.79625 311.8875 255.42125 311.4969Q256.04626 311.09064 256.8119 311.09064Q257.3744 311.09064 257.8119 311.325Q258.2494 311.5594 258.53064 311.9344L258.53064 308.85626L259.5775 308.85626L259.5775 317.45L258.59314 317.45ZM255.265 314.34064Q255.265 315.54376 255.765 316.1375Q256.265 316.71564 256.9525 316.71564Q257.64 316.71564 258.1244 316.15314Q258.60876 315.59064 258.60876 314.4344Q258.60876 313.15314 258.10876 312.5594Q257.6244 311.96564 256.90564 311.96564Q256.2025 311.96564 255.73375 312.54376Q255.265 313.10626 255.265 314.34064ZM261.14 315.59064L262.17126 315.4344Q262.265 316.0594 262.65564 316.3875Q263.0619 316.71564 263.79626 316.71564Q264.515 316.71564 264.85876 316.4344Q265.21814 316.1375 265.21814 315.73126Q265.21814 315.3719 264.90564 315.16876Q264.6869 315.02814 263.8275 314.8094Q262.67126 314.5125 262.21814 314.3094Q261.78064 314.09064 261.54626 313.71564Q261.3119 313.34064 261.3119 312.8719Q261.3119 312.46564 261.4994 312.10626Q261.6869 311.7469 262.015 311.5125Q262.265 311.34064 262.6869 311.21564Q263.10876 311.09064 263.60876 311.09064Q264.3275 311.09064 264.8744 311.3094Q265.4369 311.5125 265.7025 311.8719Q265.96814 312.23126 266.0619 312.825L265.03064 312.96564Q264.96814 312.4969 264.6244 312.23126Q264.29626 311.95 263.67126 311.95Q262.9525 311.95 262.64 312.2Q262.3275 312.4344 262.3275 312.7625Q262.3275 312.96564 262.4525 313.1219Q262.59314 313.29376 262.85876 313.40314Q263.015 313.46564 263.79626 313.66876Q264.92126 313.98126 265.35876 314.16876Q265.79626 314.35626 266.04626 314.71564Q266.29626 315.075 266.29626 315.6219Q266.29626 316.15314 265.98376 316.6219Q265.6869 317.075 265.10876 317.34064Q264.53064 317.59064 263.79626 317.59064Q262.5775 317.59064 261.9369 317.09064Q261.3119 316.575 261.14 315.59064Z" fill-rule="nonzero"/><path fill="#000000" d="M320.0202 303.45L320.0202 294.85626L325.81708 294.85626L325.81708 295.8719L321.16083 295.8719L321.16083 298.52814L325.19208 298.52814L325.19208 299.54376L321.16083 299.54376L321.16083 303.45L320.0202 303.45ZM326.81708 303.45L326.81708 297.23126L327.7702 297.23126L327.7702 298.16876Q328.12958 297.5125 328.42645 297.3094Q328.73895 297.09064 329.11395 297.09064Q329.6452 297.09064 330.19208 297.41876L329.8327 298.40314Q329.44208 298.16876 329.06708 298.16876Q328.7077 298.16876 328.42645 298.3875Q328.16083 298.59064 328.05145 298.96564Q327.86395 299.52814 327.86395 300.1844L327.86395 303.45L326.81708 303.45ZM330.44208 300.34064Q330.44208 298.60626 331.3952 297.77814Q332.19208 297.09064 333.34833 297.09064Q334.62958 297.09064 335.44208 297.9344Q336.2702 298.7625 336.2702 300.2469Q336.2702 301.45 335.91083 302.1375Q335.55145 302.825 334.84833 303.21564Q334.16083 303.59064 333.34833 303.59064Q332.05145 303.59064 331.23895 302.7625Q330.44208 301.91876 330.44208 300.34064ZM331.5202 300.34064Q331.5202 301.52814 332.03583 302.1219Q332.56708 302.71564 333.34833 302.71564Q334.1452 302.71564 334.66083 302.1219Q335.17645 301.52814 335.17645 300.3094Q335.17645 299.15314 334.6452 298.5594Q334.12958 297.96564 333.34833 297.96564Q332.56708 297.96564 332.03583 298.5594Q331.5202 299.1375 331.5202 300.34064ZM337.8327 303.45L337.8327 297.23126L338.7702 297.23126L338.7702 298.10626Q339.06708 297.6375 339.55145 297.3719Q340.03583 297.09064 340.66083 297.09064Q341.34833 297.09064 341.78583 297.3719Q342.23895 297.65314 342.41083 298.16876Q343.16083 297.09064 344.3327 297.09064Q345.2702 297.09064 345.75458 297.60626Q346.25458 298.10626 346.25458 299.1844L346.25458 303.45L345.2077 303.45L345.2077 299.52814Q345.2077 298.90314 345.09833 298.6219Q345.00458 298.34064 344.73895 298.16876Q344.47333 297.9969 344.09833 297.9969Q343.44208 297.9969 343.00458 298.4344Q342.5827 298.8719 342.5827 299.84064L342.5827 303.45L341.5202 303.45L341.5202 299.40314Q341.5202 298.7 341.25458 298.35626Q341.00458 297.9969 340.42645 297.9969Q339.97333 297.9969 339.59833 298.23126Q339.22333 298.46564 339.05145 298.91876Q338.87958 299.3719 338.87958 300.21564L338.87958 303.45L337.8327 303.45ZM351.59833 295.98126L351.59833 294.96564L357.16083 294.96564L357.16083 295.79376Q356.34833 296.66876 355.53583 298.1219Q354.73895 299.5594 354.30145 301.09064Q353.97333 302.16876 353.8952 303.45L352.80145 303.45Q352.81708 302.4344 353.19208 300.9969Q353.5827 299.5594 354.28583 298.23126Q355.00458 296.90314 355.81708 295.98126L351.59833 295.98126ZM358.53583 301.2L359.6452 301.10626Q359.7702 301.91876 360.2077 302.325Q360.66083 302.73126 361.30145 302.73126Q362.05145 302.73126 362.5827 302.15314Q363.11395 301.575 363.11395 300.6375Q363.11395 299.73126 362.59833 299.21564Q362.09833 298.6844 361.2702 298.6844Q360.7702 298.6844 360.34833 298.91876Q359.94208 299.15314 359.7077 299.5125L358.72333 299.3875L359.55145 294.98126L363.8327 294.98126L363.8327 295.98126L360.3952 295.98126L359.94208 298.29376Q360.7077 297.7469 361.55145 297.7469Q362.67645 297.7469 363.44208 298.52814Q364.22333 299.3094 364.22333 300.54376Q364.22333 301.7 363.55145 302.5594Q362.72333 303.59064 361.30145 303.59064Q360.12958 303.59064 359.37958 302.9344Q358.6452 302.27814 358.53583 301.2ZM366.09833 303.45L366.09833 302.2469L367.30145 302.2469L367.30145 303.45Q367.30145 304.10626 367.06708 304.5125Q366.8327 304.9344 366.3327 305.15314L366.03583 304.7Q366.36395 304.5594 366.5202 304.2625Q366.67645 303.98126 366.7077 303.45L366.09833 303.45ZM368.53583 299.21564Q368.53583 297.6844 368.84833 296.7625Q369.16083 295.825 369.7702 295.325Q370.3952 294.825 371.3327 294.825Q372.0202 294.825 372.53583 295.10626Q373.06708 295.3875 373.41083 295.91876Q373.75458 296.4344 373.94208 297.1844Q374.12958 297.9344 374.12958 299.21564Q374.12958 300.73126 373.81708 301.65314Q373.5202 302.575 372.8952 303.09064Q372.28583 303.59064 371.3327 303.59064Q370.09833 303.59064 369.37958 302.7Q368.53583 301.6375 368.53583 299.21564ZM369.61395 299.21564Q369.61395 301.325 370.11395 302.02814Q370.61395 302.73126 371.3327 302.73126Q372.06708 302.73126 372.55145 302.02814Q373.05145 301.325 373.05145 299.21564Q373.05145 297.09064 372.55145 296.40314Q372.06708 295.7 371.31708 295.7Q370.59833 295.7 370.16083 296.3094Q369.61395 297.09064 369.61395 299.21564ZM375.53583 299.21564Q375.53583 297.6844 375.84833 296.7625Q376.16083 295.825 376.7702 295.325Q377.3952 294.825 378.3327 294.825Q379.0202 294.825 379.53583 295.10626Q380.06708 295.3875 380.41083 295.91876Q380.75458 296.4344 380.94208 297.1844Q381.12958 297.9344 381.12958 299.21564Q381.12958 300.73126 380.81708 301.65314Q380.5202 302.575 379.8952 303.09064Q379.28583 303.59064 378.3327 303.59064Q377.09833 303.59064 376.37958 302.7Q375.53583 301.6375 375.53583 299.21564ZM376.61395 299.21564Q376.61395 301.325 377.11395 302.02814Q377.61395 302.73126 378.3327 302.73126Q379.06708 302.73126 379.55145 302.02814Q380.05145 301.325 380.05145 299.21564Q380.05145 297.09064 379.55145 296.40314Q379.06708 295.7 378.31708 295.7Q377.59833 295.7 377.16083 296.3094Q376.61395 297.09064 376.61395 299.21564ZM382.53583 299.21564Q382.53583 297.6844 382.84833 296.7625Q383.16083 295.825 383.7702 295.325Q384.3952 294.825 385.3327 294.825Q386.0202 294.825 386.53583 295.10626Q387.06708 295.3875 387.41083 295.91876Q387.75458 296.4344 387.94208 297.1844Q388.12958 297.9344 388.12958 299.21564Q388.12958 300.73126 387.81708 301.65314Q387.5202 302.575 386.8952 303.09064Q386.28583 303.59064 385.3327 303.59064Q384.09833 303.59064 383.37958 302.7Q382.53583 301.6375 382.53583 299.21564ZM383.61395 299.21564Q383.61395 301.325 384.11395 302.02814Q384.61395 302.73126 385.3327 302.73126Q386.06708 302.73126 386.55145 302.02814Q387.05145 301.325 387.05145 299.21564Q387.05145 297.09064 386.55145 296.40314Q386.06708 295.7 385.31708 295.7Q384.59833 295.7 384.16083 296.3094Q383.61395 297.09064 383.61395 299.21564Z" fill-rule="nonzero"/><path fill="#000000" d="M333.81708 317.45L333.81708 311.23126L334.7702 311.23126L334.7702 312.16876Q335.12958 311.5125 335.42645 311.3094Q335.73895 311.09064 336.11395 311.09064Q336.6452 311.09064 337.19208 311.41876L336.8327 312.40314Q336.44208 312.16876 336.06708 312.16876Q335.7077 312.16876 335.42645 312.3875Q335.16083 312.59064 335.05145 312.96564Q334.86395 313.52814 334.86395 314.1844L334.86395 317.45L333.81708 317.45ZM342.0827 315.45L343.17645 315.575Q342.92645 316.52814 342.22333 317.0594Q341.5202 317.59064 340.44208 317.59064Q339.0827 317.59064 338.2702 316.7469Q337.47333 315.90314 337.47333 314.3875Q337.47333 312.825 338.28583 311.96564Q339.09833 311.09064 340.37958 311.09064Q341.62958 311.09064 342.41083 311.9344Q343.2077 312.77814 343.2077 314.325Q343.2077 314.41876 343.2077 314.60626L338.56708 314.60626Q338.62958 315.6375 339.1452 316.1844Q339.66083 316.71564 340.44208 316.71564Q341.0202 316.71564 341.42645 316.41876Q341.84833 316.10626 342.0827 315.45ZM338.62958 313.7469L342.09833 313.7469Q342.03583 312.95 341.7077 312.5594Q341.19208 311.95 340.3952 311.95Q339.66083 311.95 339.16083 312.4344Q338.67645 312.91876 338.62958 313.7469ZM348.8952 315.16876L349.92645 315.3094Q349.75458 316.3719 349.05145 316.98126Q348.34833 317.59064 347.3327 317.59064Q346.05145 317.59064 345.2702 316.7625Q344.50458 315.91876 344.50458 314.35626Q344.50458 313.35626 344.8327 312.60626Q345.17645 311.84064 345.84833 311.46564Q346.53583 311.09064 347.34833 311.09064Q348.34833 311.09064 348.98895 311.60626Q349.6452 312.10626 349.8327 313.0594L348.80145 313.21564Q348.66083 312.59064 348.28583 312.27814Q347.91083 311.95 347.37958 311.95Q346.5827 311.95 346.0827 312.52814Q345.5827 313.09064 345.5827 314.325Q345.5827 315.59064 346.06708 316.15314Q346.55145 316.71564 347.31708 316.71564Q347.94208 316.71564 348.34833 316.34064Q348.7702 315.96564 348.8952 315.16876ZM350.44208 314.34064Q350.44208 312.60626 351.3952 311.77814Q352.19208 311.09064 353.34833 311.09064Q354.62958 311.09064 355.44208 311.9344Q356.2702 312.7625 356.2702 314.2469Q356.2702 315.45 355.91083 316.1375Q355.55145 316.825 354.84833 317.21564Q354.16083 317.59064 353.34833 317.59064Q352.05145 317.59064 351.23895 316.7625Q350.44208 315.91876 350.44208 314.34064ZM351.5202 314.34064Q351.5202 315.52814 352.03583 316.1219Q352.56708 316.71564 353.34833 316.71564Q354.1452 316.71564 354.66083 316.1219Q355.17645 315.52814 355.17645 314.3094Q355.17645 313.15314 354.6452 312.5594Q354.12958 311.96564 353.34833 311.96564Q352.56708 311.96564 352.03583 312.5594Q351.5202 313.1375 351.5202 314.34064ZM357.81708 317.45L357.81708 311.23126L358.7702 311.23126L358.7702 312.16876Q359.12958 311.5125 359.42645 311.3094Q359.73895 311.09064 360.11395 311.09064Q360.6452 311.09064 361.19208 311.41876L360.8327 312.40314Q360.44208 312.16876 360.06708 312.16876Q359.7077 312.16876 359.42645 312.3875Q359.16083 312.59064 359.05145 312.96564Q358.86395 313.52814 358.86395 314.1844L358.86395 317.45L357.81708 317.45ZM365.86395 317.45L365.86395 316.66876Q365.2702 317.59064 364.12958 317.59064Q363.37958 317.59064 362.75458 317.1844Q362.12958 316.7625 361.78583 316.02814Q361.44208 315.29376 361.44208 314.34064Q361.44208 313.41876 361.75458 312.65314Q362.06708 311.8875 362.69208 311.4969Q363.31708 311.09064 364.0827 311.09064Q364.6452 311.09064 365.0827 311.325Q365.5202 311.5594 365.80145 311.9344L365.80145 308.85626L366.84833 308.85626L366.84833 317.45L365.86395 317.45ZM362.53583 314.34064Q362.53583 315.54376 363.03583 316.1375Q363.53583 316.71564 364.22333 316.71564Q364.91083 316.71564 365.3952 316.15314Q365.87958 315.59064 365.87958 314.4344Q365.87958 313.15314 365.37958 312.5594Q364.8952 311.96564 364.17645 311.96564Q363.47333 311.96564 363.00458 312.54376Q362.53583 313.10626 362.53583 314.34064ZM368.41083 315.59064L369.44208 315.4344Q369.53583 316.0594 369.92645 316.3875Q370.3327 316.71564 371.06708 316.71564Q371.78583 316.71564 372.12958 316.4344Q372.48895 316.1375 372.48895 315.73126Q372.48895 315.3719 372.17645 315.16876Q371.9577 315.02814 371.09833 314.8094Q369.94208 314.5125 369.48895 314.3094Q369.05145 314.09064 368.81708 313.71564Q368.5827 313.34064 368.5827 312.8719Q368.5827 312.46564 368.7702 312.10626Q368.9577 311.7469 369.28583 311.5125Q369.53583 311.34064 369.9577 311.21564Q370.37958 311.09064 370.87958 311.09064Q371.59833 311.09064 372.1452 311.3094Q372.7077 311.5125 372.97333 311.8719Q373.23895 312.23126 373.3327 312.825L372.30145 312.96564Q372.23895 312.4969 371.8952 312.23126Q371.56708 311.95 370.94208 311.95Q370.22333 311.95 369.91083 312.2Q369.59833 312.4344 369.59833 312.7625Q369.59833 312.96564 369.72333 313.1219Q369.86395 313.29376 370.12958 313.40314Q370.28583 313.46564 371.06708 313.66876Q372.19208 313.98126 372.62958 314.16876Q373.06708 314.35626 373.31708 314.71564Q373.56708 315.075 373.56708 315.6219Q373.56708 316.15314 373.25458 316.6219Q372.9577 317.075 372.37958 317.34064Q371.80145 317.59064 371.06708 317.59064Q369.84833 317.59064 369.2077 317.09064Q368.5827 316.575 368.41083 315.59064Z" fill-rule="nonzero"/><path fill="#000000" d="M423.79105 303.45L423.79105 294.85626L429.58792 294.85626L429.58792 295.8719L424.93167 295.8719L424.93167 298.52814L428.96292 298.52814L428.96292 299.54376L424.93167 299.54376L424.93167 303.45L423.79105 303.45ZM430.58792 303.45L430.58792 297.23126L431.54105 297.23126L431.54105 298.16876Q431.90042 297.5125 432.1973 297.3094Q432.5098 297.09064 432.8848 297.09064Q433.41605 297.09064 433.96292 297.41876L433.60355 298.40314Q433.21292 298.16876 432.83792 298.16876Q432.47855 298.16876 432.1973 298.3875Q431.93167 298.59064 431.8223 298.96564Q431.6348 299.52814 431.6348 300.1844L431.6348 303.45L430.58792 303.45ZM434.21292 300.34064Q434.21292 298.60626 435.16605 297.77814Q435.96292 297.09064 437.11917 297.09064Q438.40042 297.09064 439.21292 297.9344Q440.04105 298.7625 440.04105 300.2469Q440.04105 301.45 439.68167 302.1375Q439.3223 302.825 438.61917 303.21564Q437.93167 303.59064 437.11917 303.59064Q435.8223 303.59064 435.0098 302.7625Q434.21292 301.91876 434.21292 300.34064ZM435.29105 300.34064Q435.29105 301.52814 435.80667 302.1219Q436.33792 302.71564 437.11917 302.71564Q437.91605 302.71564 438.43167 302.1219Q438.9473 301.52814 438.9473 300.3094Q438.9473 299.15314 438.41605 298.5594Q437.90042 297.96564 437.11917 297.96564Q436.33792 297.96564 435.80667 298.5594Q435.29105 299.1375 435.29105 300.34064ZM441.60355 303.45L441.60355 297.23126L442.54105 297.23126L442.54105 298.10626Q442.83792 297.6375 443.3223 297.3719Q443.80667 297.09064 444.43167 297.09064Q445.11917 297.09064 445.55667 297.3719Q446.0098 297.65314 446.18167 298.16876Q446.93167 297.09064 448.10355 297.09064Q449.04105 297.09064 449.52542 297.60626Q450.02542 298.10626 450.02542 299.1844L450.02542 303.45L448.97855 303.45L448.97855 299.52814Q448.97855 298.90314 448.86917 298.6219Q448.77542 298.34064 448.5098 298.16876Q448.24417 297.9969 447.86917 297.9969Q447.21292 297.9969 446.77542 298.4344Q446.35355 298.8719 446.35355 299.84064L446.35355 303.45L445.29105 303.45L445.29105 299.40314Q445.29105 298.7 445.02542 298.35626Q444.77542 297.9969 444.1973 297.9969Q443.74417 297.9969 443.36917 298.23126Q442.99417 298.46564 442.8223 298.91876Q442.65042 299.3719 442.65042 300.21564L442.65042 303.45L441.60355 303.45ZM459.27542 303.45L458.22855 303.45L458.22855 296.73126Q457.83792 297.09064 457.21292 297.46564Q456.60355 297.825 456.11917 297.9969L456.11917 296.98126Q456.99417 296.5594 457.65042 295.98126Q458.3223 295.3875 458.60355 294.825L459.27542 294.825L459.27542 303.45ZM462.30667 299.21564Q462.30667 297.6844 462.61917 296.7625Q462.93167 295.825 463.54105 295.325Q464.16605 294.825 465.10355 294.825Q465.79105 294.825 466.30667 295.10626Q466.83792 295.3875 467.18167 295.91876Q467.52542 296.4344 467.71292 297.1844Q467.90042 297.9344 467.90042 299.21564Q467.90042 300.73126 467.58792 301.65314Q467.29105 302.575 466.66605 303.09064Q466.05667 303.59064 465.10355 303.59064Q463.86917 303.59064 463.15042 302.7Q462.30667 301.6375 462.30667 299.21564ZM463.3848 299.21564Q463.3848 301.325 463.8848 302.02814Q464.3848 302.73126 465.10355 302.73126Q465.83792 302.73126 466.3223 302.02814Q466.8223 301.325 466.8223 299.21564Q466.8223 297.09064 466.3223 296.40314Q465.83792 295.7 465.08792 295.7Q464.36917 295.7 463.93167 296.3094Q463.3848 297.09064 463.3848 299.21564ZM469.30667 299.21564Q469.30667 297.6844 469.61917 296.7625Q469.93167 295.825 470.54105 295.325Q471.16605 294.825 472.10355 294.825Q472.79105 294.825 473.30667 295.10626Q473.83792 295.3875 474.18167 295.91876Q474.52542 296.4344 474.71292 297.1844Q474.90042 297.9344 474.90042 299.21564Q474.90042 300.73126 474.58792 301.65314Q474.29105 302.575 473.66605 303.09064Q473.05667 303.59064 472.10355 303.59064Q470.86917 303.59064 470.15042 302.7Q469.30667 301.6375 469.30667 299.21564ZM470.3848 299.21564Q470.3848 301.325 470.8848 302.02814Q471.3848 302.73126 472.10355 302.73126Q472.83792 302.73126 473.3223 302.02814Q473.8223 301.325 473.8223 299.21564Q473.8223 297.09064 473.3223 296.40314Q472.83792 295.7 472.08792 295.7Q471.36917 295.7 470.93167 296.3094Q470.3848 297.09064 470.3848 299.21564ZM476.86917 303.45L476.86917 302.2469L478.0723 302.2469L478.0723 303.45Q478.0723 304.10626 477.83792 304.5125Q477.60355 304.9344 477.10355 305.15314L476.80667 304.7Q477.1348 304.5594 477.29105 304.2625Q477.4473 303.98126 477.47855 303.45L476.86917 303.45ZM479.30667 299.21564Q479.30667 297.6844 479.61917 296.7625Q479.93167 295.825 480.54105 295.325Q481.16605 294.825 482.10355 294.825Q482.79105 294.825 483.30667 295.10626Q483.83792 295.3875 484.18167 295.91876Q484.52542 296.4344 484.71292 297.1844Q484.90042 297.9344 484.90042 299.21564Q484.90042 300.73126 484.58792 301.65314Q484.29105 302.575 483.66605 303.09064Q483.05667 303.59064 482.10355 303.59064Q480.86917 303.59064 480.15042 302.7Q479.30667 301.6375 479.30667 299.21564ZM480.3848 299.21564Q480.3848 301.325 480.8848 302.02814Q481.3848 302.73126 482.10355 302.73126Q482.83792 302.73126 483.3223 302.02814Q483.8223 301.325 483.8223 299.21564Q483.8223 297.09064 483.3223 296.40314Q482.83792 295.7 482.08792 295.7Q481.36917 295.7 480.93167 296.3094Q480.3848 297.09064 480.3848 299.21564ZM486.30667 299.21564Q486.30667 297.6844 486.61917 296.7625Q486.93167 295.825 487.54105 295.325Q488.16605 294.825 489.10355 294.825Q489.79105 294.825 490.30667 295.10626Q490.83792 295.3875 491.18167 295.91876Q491.52542 296.4344 491.71292 297.1844Q491.90042 297.9344 491.90042 299.21564Q491.90042 300.73126 491.58792 301.65314Q491.29105 302.575 490.66605 303.09064Q490.05667 303.59064 489.10355 303.59064Q487.86917 303.59064 487.15042 302.7Q486.30667 301.6375 486.30667 299.21564ZM487.3848 299.21564Q487.3848 301.325 487.8848 302.02814Q488.3848 302.73126 489.10355 302.73126Q489.83792 302.73126 490.3223 302.02814Q490.8223 301.325 490.8223 299.21564Q490.8223 297.09064 490.3223 296.40314Q489.83792 295.7 489.08792 295.7Q488.36917 295.7 487.93167 296.3094Q487.3848 297.09064 487.3848 299.21564ZM493.30667 299.21564Q493.30667 297.6844 493.61917 296.7625Q493.93167 295.825 494.54105 295.325Q495.16605 294.825 496.10355 294.825Q496.79105 294.825 497.30667 295.10626Q497.83792 295.3875 498.18167 295.91876Q498.52542 296.4344 498.71292 297.1844Q498.90042 297.9344 498.90042 299.21564Q498.90042 300.73126 498.58792 301.65314Q498.29105 302.575 497.66605 303.09064Q497.05667 303.59064 496.10355 303.59064Q494.86917 303.59064 494.15042 302.7Q493.30667 301.6375 493.30667 299.21564ZM494.3848 299.21564Q494.3848 301.325 494.8848 302.02814Q495.3848 302.73126 496.10355 302.73126Q496.83792 302.73126 497.3223 302.02814Q497.8223 301.325 497.8223 299.21564Q497.8223 297.09064 497.3223 296.40314Q496.83792 295.7 496.08792 295.7Q495.36917 295.7 494.93167 296.3094Q494.3848 297.09064 494.3848 299.21564Z" fill-rule="nonzero"/><path fill="#000000" d="M441.08792 317.45L441.08792 311.23126L442.04105 311.23126L442.04105 312.16876Q442.40042 311.5125 442.6973 311.3094Q443.0098 311.09064 443.3848 311.09064Q443.91605 311.09064 444.46292 311.41876L444.10355 312.40314Q443.71292 312.16876 443.33792 312.16876Q442.97855 312.16876 442.6973 312.3875Q442.43167 312.59064 442.3223 312.96564Q442.1348 313.52814 442.1348 314.1844L442.1348 317.45L441.08792 317.45ZM449.35355 315.45L450.4473 315.575Q450.1973 316.52814 449.49417 317.0594Q448.79105 317.59064 447.71292 317.59064Q446.35355 317.59064 445.54105 316.7469Q444.74417 315.90314 444.74417 314.3875Q444.74417 312.825 445.55667 311.96564Q446.36917 311.09064 447.65042 311.09064Q448.90042 311.09064 449.68167 311.9344Q450.47855 312.77814 450.47855 314.325Q450.47855 314.41876 450.47855 314.60626L445.83792 314.60626Q445.90042 315.6375 446.41605 316.1844Q446.93167 316.71564 447.71292 316.71564Q448.29105 316.71564 448.6973 316.41876Q449.11917 316.10626 449.35355 315.45ZM445.90042 313.7469L449.36917 313.7469Q449.30667 312.95 448.97855 312.5594Q448.46292 311.95 447.66605 311.95Q446.93167 311.95 446.43167 312.4344Q445.9473 312.91876 445.90042 313.7469ZM456.16605 315.16876L457.1973 315.3094Q457.02542 316.3719 456.3223 316.98126Q455.61917 317.59064 454.60355 317.59064Q453.3223 317.59064 452.54105 316.7625Q451.77542 315.91876 451.77542 314.35626Q451.77542 313.35626 452.10355 312.60626Q452.4473 311.84064 453.11917 311.46564Q453.80667 311.09064 454.61917 311.09064Q455.61917 311.09064 456.2598 311.60626Q456.91605 312.10626 457.10355 313.0594L456.0723 313.21564Q455.93167 312.59064 455.55667 312.27814Q455.18167 311.95 454.65042 311.95Q453.85355 311.95 453.35355 312.52814Q452.85355 313.09064 452.85355 314.325Q452.85355 315.59064 453.33792 316.15314Q453.8223 316.71564 454.58792 316.71564Q455.21292 316.71564 455.61917 316.34064Q456.04105 315.96564 456.16605 315.16876ZM457.71292 314.34064Q457.71292 312.60626 458.66605 311.77814Q459.46292 311.09064 460.61917 311.09064Q461.90042 311.09064 462.71292 311.9344Q463.54105 312.7625 463.54105 314.2469Q463.54105 315.45 463.18167 316.1375Q462.8223 316.825 462.11917 317.21564Q461.43167 317.59064 460.61917 317.59064Q459.3223 317.59064 458.5098 316.7625Q457.71292 315.91876 457.71292 314.34064ZM458.79105 314.34064Q458.79105 315.52814 459.30667 316.1219Q459.83792 316.71564 460.61917 316.71564Q461.41605 316.71564 461.93167 316.1219Q462.4473 315.52814 462.4473 314.3094Q462.4473 313.15314 461.91605 312.5594Q461.40042 311.96564 460.61917 311.96564Q459.83792 311.96564 459.30667 312.5594Q458.79105 313.1375 458.79105 314.34064ZM465.08792 317.45L465.08792 311.23126L466.04105 311.23126L466.04105 312.16876Q466.40042 311.5125 466.6973 311.3094Q467.0098 311.09064 467.3848 311.09064Q467.91605 311.09064 468.46292 311.41876L468.10355 312.40314Q467.71292 312.16876 467.33792 312.16876Q466.97855 312.16876 466.6973 312.3875Q466.43167 312.59064 466.3223 312.96564Q466.1348 313.52814 466.1348 314.1844L466.1348 317.45L465.08792 317.45ZM473.1348 317.45L473.1348 316.66876Q472.54105 317.59064 471.40042 317.59064Q470.65042 317.59064 470.02542 317.1844Q469.40042 316.7625 469.05667 316.02814Q468.71292 315.29376 468.71292 314.34064Q468.71292 313.41876 469.02542 312.65314Q469.33792 311.8875 469.96292 311.4969Q470.58792 311.09064 471.35355 311.09064Q471.91605 311.09064 472.35355 311.325Q472.79105 311.5594 473.0723 311.9344L473.0723 308.85626L474.11917 308.85626L474.11917 317.45L473.1348 317.45ZM469.80667 314.34064Q469.80667 315.54376 470.30667 316.1375Q470.80667 316.71564 471.49417 316.71564Q472.18167 316.71564 472.66605 316.15314Q473.15042 315.59064 473.15042 314.4344Q473.15042 313.15314 472.65042 312.5594Q472.16605 311.96564 471.4473 311.96564Q470.74417 311.96564 470.27542 312.54376Q469.80667 313.10626 469.80667 314.34064ZM475.68167 315.59064L476.71292 315.4344Q476.80667 316.0594 477.1973 316.3875Q477.60355 316.71564 478.33792 316.71564Q479.05667 316.71564 479.40042 316.4344Q479.7598 316.1375 479.7598 315.73126Q479.7598 315.3719 479.4473 315.16876Q479.22855 315.02814 478.36917 314.8094Q477.21292 314.5125 476.7598 314.3094Q476.3223 314.09064 476.08792 313.71564Q475.85355 313.34064 475.85355 312.8719Q475.85355 312.46564 476.04105 312.10626Q476.22855 311.7469 476.55667 311.5125Q476.80667 311.34064 477.22855 311.21564Q477.65042 311.09064 478.15042 311.09064Q478.86917 311.09064 479.41605 311.3094Q479.97855 311.5125 480.24417 311.8719Q480.5098 312.23126 480.60355 312.825L479.5723 312.96564Q479.5098 312.4969 479.16605 312.23126Q478.83792 311.95 478.21292 311.95Q477.49417 311.95 477.18167 312.2Q476.86917 312.4344 476.86917 312.7625Q476.86917 312.96564 476.99417 313.1219Q477.1348 313.29376 477.40042 313.40314Q477.55667 313.46564 478.33792 313.66876Q479.46292 313.98126 479.90042 314.16876Q480.33792 314.35626 480.58792 314.71564Q480.83792 315.075 480.83792 315.6219Q480.83792 316.15314 480.52542 316.6219Q480.22855 317.075 479.65042 317.34064Q479.0723 317.59064 478.33792 317.59064Q477.11917 317.59064 476.47855 317.09064Q475.85355 316.575 475.68167 315.59064Z" fill-rule="nonzero"/><path stroke="#4285f4" stroke-width="4.0" stroke-linecap="butt" d="M245.5 61.916668L257.5 61.916668" fill-rule="nonzero"/><path fill="#1a1a1a" d="M265.84375 63.479164L266.875 63.33854Q266.90625 64.322914 267.23438 64.68229Q267.5625 65.041664 268.15625 65.041664Q268.57812 65.041664 268.89062 64.854164Q269.20312 64.65104 269.3125 64.322914Q269.4375 63.979164 269.4375 63.24479L269.4375 57.322914L270.5625 57.322914L270.5625 63.18229Q270.5625 64.260414 270.29688 64.854164Q270.04688 65.447914 269.48438 65.760414Q268.92188 66.05729 268.15625 66.05729Q267.03125 66.05729 266.42188 65.416664Q265.82812 64.760414 265.84375 63.479164ZM272.04688 63.15104L273.10938 63.05729Q273.1875 63.71354 273.46875 64.11979Q273.75 64.52604 274.32812 64.791664Q274.92188 65.041664 275.65625 65.041664Q276.29688 65.041664 276.79688 64.854164Q277.29688 64.65104 277.53125 64.322914Q277.78125 63.979164 277.78125 63.58854Q277.78125 63.18229 277.54688 62.885414Q277.3125 62.572914 276.78125 62.36979Q276.42188 62.229164 275.23438 61.947914Q274.0625 61.666664 273.59375 61.416664Q272.96875 61.08854 272.67188 60.61979Q272.375 60.135414 272.375 59.541664Q272.375 58.90104 272.73438 58.33854Q273.10938 57.760414 273.8125 57.479164Q274.53125 57.18229 275.39062 57.18229Q276.34375 57.18229 277.07812 57.49479Q277.8125 57.791664 278.20312 58.40104Q278.59375 58.99479 278.625 59.74479L277.53125 59.822914Q277.4375 59.010414 276.92188 58.604164Q276.42188 58.18229 275.4375 58.18229Q274.40625 58.18229 273.9375 58.55729Q273.46875 58.93229 273.46875 59.46354Q273.46875 59.93229 273.79688 60.229164Q274.125 60.52604 275.5 60.83854Q276.89062 61.15104 277.40625 61.385414Q278.15625 61.74479 278.51562 62.27604Q278.875 62.791664 278.875 63.49479Q278.875 64.18229 278.48438 64.791664Q278.09375 65.385414 277.35938 65.729164Q276.625 66.05729 275.70312 66.05729Q274.53125 66.05729 273.73438 65.729164Q272.95312 65.385414 272.5 64.697914Q272.0625 64.010414 272.04688 63.15104ZM280.07812 61.729164Q280.07812 59.58854 281.21875 58.385414Q282.375 57.166664 284.1875 57.166664Q285.39062 57.166664 286.34375 57.74479Q287.29688 58.30729 287.79688 59.322914Q288.29688 60.33854 288.29688 61.635414Q288.29688 62.93229 287.76562 63.96354Q287.23438 64.99479 286.26562 65.52604Q285.3125 66.05729 284.1875 66.05729Q282.96875 66.05729 282.01562 65.479164Q281.0625 64.885414 280.5625 63.885414Q280.07812 62.86979 280.07812 61.729164ZM281.25 61.74479Q281.25 63.30729 282.07812 64.197914Q282.92188 65.08854 284.1875 65.08854Q285.46875 65.08854 286.29688 64.197914Q287.125 63.291664 287.125 61.61979Q287.125 60.572914 286.76562 59.791664Q286.42188 59.010414 285.73438 58.58854Q285.04688 58.15104 284.20312 58.15104Q283.0 58.15104 282.125 58.979164Q281.25 59.80729 281.25 61.74479ZM289.42188 65.916664L289.42188 57.322914L290.57812 57.322914L295.09375 64.072914L295.09375 57.322914L296.1875 57.322914L296.1875 65.916664L295.01562 65.916664L290.5 59.166664L290.5 65.916664L289.42188 65.916664Z" fill-rule="nonzero"/><path stroke="#ea4335" stroke-width="4.0" stroke-linecap="butt" d="M313.5 61.916668L325.5 61.916668" fill-rule="nonzero"/><path fill="#1a1a1a" d="M334.375 65.916664L334.375 57.322914L335.51562 57.322914L335.51562 61.58854L339.78125 57.322914L341.32812 57.322914L337.71875 60.80729L341.48438 65.916664L339.98438 65.916664L336.92188 61.572914L335.51562 62.93229L335.51562 65.916664L334.375 65.916664ZM342.26562 65.916664L342.26562 57.322914L343.32812 57.322914L343.32812 65.916664L342.26562 65.916664ZM349.35938 65.15104Q348.76562 65.65104 348.21875 65.854164Q347.6875 66.05729 347.0625 66.05729Q346.03125 66.05729 345.48438 65.55729Q344.9375 65.05729 344.9375 64.27604Q344.9375 63.822914 345.14062 63.447914Q345.34375 63.05729 345.6875 62.83854Q346.03125 62.604164 346.45312 62.49479Q346.75 62.40104 347.39062 62.322914Q348.65625 62.18229 349.26562 61.96354Q349.26562 61.74479 349.26562 61.697914Q349.26562 61.041664 348.96875 60.77604Q348.5625 60.43229 347.76562 60.43229Q347.03125 60.43229 346.67188 60.697914Q346.3125 60.947914 346.14062 61.604164L345.10938 61.46354Q345.25 60.80729 345.57812 60.40104Q345.90625 59.99479 346.51562 59.77604Q347.125 59.55729 347.92188 59.55729Q348.71875 59.55729 349.21875 59.74479Q349.71875 59.93229 349.95312 60.21354Q350.1875 60.49479 350.28125 60.93229Q350.32812 61.197914 350.32812 61.90104L350.32812 63.30729Q350.32812 64.77604 350.39062 65.166664Q350.46875 65.55729 350.67188 65.916664L349.5625 65.916664Q349.40625 65.58854 349.35938 65.15104ZM349.26562 62.791664Q348.6875 63.02604 347.54688 63.197914Q346.89062 63.291664 346.625 63.416664Q346.35938 63.52604 346.20312 63.74479Q346.0625 63.96354 346.0625 64.24479Q346.0625 64.666664 346.375 64.947914Q346.70312 65.229164 347.3125 65.229164Q347.92188 65.229164 348.39062 64.96354Q348.875 64.697914 349.09375 64.229164Q349.26562 63.86979 349.26562 63.18229L349.26562 62.791664ZM352.54688 65.916664L352.54688 60.510414L351.60938 60.510414L351.60938 59.697914L352.54688 59.697914L352.54688 59.02604Q352.54688 58.40104 352.65625 58.104164Q352.8125 57.68229 353.1875 57.43229Q353.57812 57.18229 354.26562 57.18229Q354.71875 57.18229 355.25 57.291664L355.09375 58.197914Q354.76562 58.15104 354.46875 58.15104Q353.98438 58.15104 353.78125 58.354164Q353.59375 58.55729 353.59375 59.11979L353.59375 59.697914L354.8125 59.697914L354.8125 60.510414L353.59375 60.510414L353.59375 65.916664L352.54688 65.916664Z" fill-rule="nonzero"/><path fill="#757575" d="M19.128124 33.4875L20.83125 33.253124Q20.909374 34.89375 21.45625 35.503124Q22.003124 36.096874 22.971874 36.096874Q23.675 36.096874 24.190624 35.784374Q24.70625 35.45625 24.89375 34.89375Q25.096874 34.33125 25.096874 33.096874L25.096874 23.2375L27.003124 23.2375L27.003124 32.9875Q27.003124 34.784374 26.565624 35.76875Q26.128124 36.753124 25.175 37.284374Q24.2375 37.8 22.971874 37.8Q21.096874 37.8 20.08125 36.721874Q19.08125 35.628124 19.128124 33.4875ZM29.45625 32.95625L31.2375 32.8Q31.3625 33.8625 31.815624 34.55Q32.284374 35.2375 33.253124 35.675Q34.2375 36.096874 35.471874 36.096874Q36.55 36.096874 37.378124 35.784374Q38.20625 35.45625 38.6125 34.89375Q39.01875 34.33125 39.01875 33.659374Q39.01875 32.9875 38.628124 32.4875Q38.2375 31.9875 37.346874 31.64375Q36.76875 31.409374 34.784374 30.940624Q32.815624 30.471874 32.034374 30.05Q31.003124 29.51875 30.503124 28.721874Q30.003124 27.925 30.003124 26.940624Q30.003124 25.846874 30.6125 24.909374Q31.221874 23.971874 32.409374 23.4875Q33.596874 22.9875 35.034374 22.9875Q36.628124 22.9875 37.846874 23.503124Q39.065624 24.01875 39.70625 25.01875Q40.3625 26.003124 40.409374 27.26875L38.596874 27.409374Q38.45625 26.05 37.6125 25.3625Q36.76875 24.659374 35.1125 24.659374Q33.39375 24.659374 32.596874 25.3Q31.815624 25.925 31.815624 26.8Q31.815624 27.58125 32.378124 28.08125Q32.925 28.58125 35.2375 29.096874Q37.55 29.6125 38.409374 30.003124Q39.659374 30.58125 40.253124 31.471874Q40.846874 32.346874 40.846874 33.503124Q40.846874 34.64375 40.190624 35.659374Q39.534374 36.675 38.3 37.2375Q37.08125 37.8 35.55 37.8Q33.6125 37.8 32.3 37.2375Q30.9875 36.659374 30.2375 35.51875Q29.4875 34.378124 29.45625 32.95625ZM42.51875 30.58125Q42.51875 27.01875 44.425 25.003124Q46.346874 22.971874 49.378124 22.971874Q51.3625 22.971874 52.940624 23.925Q54.534374 24.878124 55.3625 26.58125Q56.20625 28.26875 56.20625 30.409374Q56.20625 32.58125 55.33125 34.3Q54.45625 36.01875 52.83125 36.909374Q51.221874 37.8 49.3625 37.8Q47.346874 37.8 45.753124 36.83125Q44.159374 35.846874 43.33125 34.159374Q42.51875 32.45625 42.51875 30.58125ZM44.471874 30.6125Q44.471874 33.190624 45.8625 34.690624Q47.253124 36.175 49.346874 36.175Q51.4875 36.175 52.8625 34.675Q54.253124 33.159374 54.253124 30.39375Q54.253124 28.659374 53.659374 27.3625Q53.08125 26.05 51.940624 25.33125Q50.8 24.6125 49.378124 24.6125Q47.378124 24.6125 45.925 26.003124Q44.471874 27.378124 44.471874 30.6125ZM59.08125 37.55L59.08125 23.2375L61.01875 23.2375L68.53438 34.471874L68.53438 23.2375L70.34688 23.2375L70.34688 37.55L68.40938 37.55L60.89375 26.3L60.89375 37.55L59.08125 37.55ZM72.33125 37.55L72.33125 35.55L74.33125 35.55L74.33125 37.55Q74.33125 38.659374 73.94063 39.33125Q73.55 40.01875 72.70625 40.378124L72.20625 39.628124Q72.76875 39.39375 73.03438 38.909374Q73.3 38.440624 73.33125 37.55L72.33125 37.55ZM84.01875 37.55L84.01875 23.2375L85.90938 23.2375L85.90938 30.33125L93.01875 23.2375L95.58125 23.2375L89.58125 29.034374L95.84688 37.55L93.34688 37.55L88.25313 30.3L85.90938 32.58125L85.90938 37.55L84.01875 37.55ZM96.83125 37.55L96.83125 23.2375L98.58125 23.2375L98.58125 37.55L96.83125 37.55ZM107.64375 36.26875Q106.65938 37.096874 105.75313 37.440624Q104.84688 37.784374 103.81563 37.784374Q102.1125 37.784374 101.19063 36.95625Q100.26875 36.1125 100.26875 34.815624Q100.26875 34.05 100.6125 33.425Q100.97188 32.8 101.53438 32.425Q102.09688 32.034374 102.8 31.83125Q103.31563 31.70625 104.3625 31.565624Q106.4875 31.315624 107.4875 30.971874Q107.50313 30.6125 107.50313 30.503124Q107.50313 29.440624 107.00313 28.9875Q106.33125 28.39375 105.00313 28.39375Q103.75313 28.39375 103.15938 28.83125Q102.58125 29.26875 102.3 30.378124L100.58125 30.14375Q100.81563 29.034374 101.34688 28.3625Q101.87813 27.675 102.89375 27.315624Q103.90938 26.940624 105.25313 26.940624Q106.58125 26.940624 107.40938 27.253124Q108.2375 27.565624 108.62813 28.05Q109.01875 28.51875 109.175 29.2375Q109.26875 29.690624 109.26875 30.8625L109.26875 33.20625Q109.26875 35.659374 109.37813 36.315624Q109.4875 36.95625 109.83125 37.55L107.9875 37.55Q107.72188 37.003124 107.64375 36.26875ZM107.4875 32.346874Q106.53438 32.7375 104.6125 33.003124Q103.53438 33.159374 103.08125 33.3625Q102.64375 33.55 102.39375 33.925Q102.14375 34.3 102.14375 34.76875Q102.14375 35.471874 102.675 35.940624Q103.20625 36.409374 104.2375 36.409374Q105.25313 36.409374 106.03438 35.971874Q106.83125 35.51875 107.20625 34.753124Q107.4875 34.14375 107.4875 32.9875L107.4875 32.346874ZM112.28438 37.55L112.28438 28.55L110.7375 28.55L110.7375 27.175L112.28438 27.175L112.28438 26.08125Q112.28438 25.034374 112.47188 24.51875Q112.72188 23.83125 113.3625 23.409374Q114.00313 22.9875 115.15938 22.9875Q115.90938 22.9875 116.8 23.159374L116.53438 24.690624Q115.9875 24.596874 115.50313 24.596874Q114.70625 24.596874 114.3625 24.940624Q114.03438 25.284374 114.03438 26.221874L114.03438 27.175L116.06563 27.175L116.06563 28.55L114.03438 28.55L114.03438 37.55L112.28438 37.55Z" fill-rule="nonzero"/></svg>