<svg version="1.1" style="font-family: Roboto; font-size: 12px;" xmlns="http://www.w3.org/2000/svg" width="650" height="400" viewBox="0 0 650 400" aria-hidden="false" aria-label="Interactive chart"><defs aria-hidden="true"><clipPath ><rect x="0" y="0" width="603" height="279" fill="none"></rect></clipPath><clipPath ><rect x="0" y="0" width="603" height="279" fill="none"></rect></clipPath></defs><rect fill="#ffffff" x="0" y="0" width="650" height="400" rx="0" ry="0" aria-hidden="true"></rect><rect fill="none" x="37" y="47" width="603" height="279" aria-hidden="true"></rect><g data-z-index="0" aria-hidden="true"></g><rect fill="none" data-z-index="1" x="37" y="47" width="603" height="279" aria-hidden="true"></rect><g data-z-index="1" aria-hidden="true"><path fill="none" stroke-dasharray="none" data-z-index="1" d="M 157.5 47 L 157.5 326" opacity="1"></path><path fill="none" stroke-dasharray="none" data-z-index="1" d="M 277.5 47 L 277.5 326" opacity="1"></path><path fill="none" stroke-dasharray="none" data-z-index="1" d="M 398.5 47 L 398.5 326" opacity="1"></path><path fill="none" stroke-dasharray="none" data-z-index="1" d="M 518.5 47 L 518.5 326" opacity="1"></path><path fill="none" stroke-dasharray="none" data-z-index="1" d="M 639.5 47 L 639.5 326" opacity="1"></path><path fill="none" stroke-dasharray="none" data-z-index="1" d="M 36.5 47 L 36.5 326" opacity="1"></path></g><g data-z-index="1" aria-hidden="true"><path fill="none" stroke="#e6e6e6" stroke-width="1" stroke-dasharray="none" data-z-index="1" d="M 37 326.5 L 640 326.5" opacity="1"></path><path fill="none" stroke="#e6e6e6" stroke-width="1" stroke-dasharray="none" data-z-index="1" d="M 37 280.5 L 640 280.5" opacity="1"></path><path fill="none" stroke="#e6e6e6" stroke-width="1" stroke-dasharray="none" data-z-index="1" d="M 37 233.5 L 640 233.5" opacity="1"></path><path fill="none" stroke="#e6e6e6" stroke-width="1" stroke-dasharray="none" data-z-index="1" d="M 37 187.5 L 640 187.5" opacity="1"></path><path fill="none" stroke="#e6e6e6" stroke-width="1" stroke-dasharray="none" data-z-index="1" d="M 37 140.5 L 640 140.5" opacity="1"></path><path fill="none" stroke="#e6e6e6" stroke-width="1" stroke-dasharray="none" data-z-index="1" d="M 37 94.5 L 640 94.5" opacity="1"></path><path fill="none" stroke="#e6e6e6" stroke-width="1" stroke-dasharray="none" data-z-index="1" d="M 37 46.5 L 640 46.5" opacity="1"></path></g><g data-z-index="2" aria-hidden="true"><path fill="none" stroke="#ccd6eb" stroke-width="1" data-z-index="7" d="M 37 326.5 L 640 326.5"></path></g><g data-z-index="2" aria-hidden="true"><path fill="none" data-z-index="7" d="M 37 47 L 37 326"></path></g><g data-z-index="3" aria-hidden="false"><g data-z-index="0.1" opacity="1" transform="translate(37,47) scale(1 1)" clip-path="url(#highcharts-2ahtmys-1000-)" aria-hidden="true"><path fill="none" d="M 60.3 262.26 C 60.3 262.26 132.66000000000003 248.496 180.9 241.8 C 229.14000000000001 235.104 253.26 241.8 301.5 228.78 C 349.74 215.76 373.86 212.04000000000002 422.1 172.98000000000002 C 470.34000000000003 133.92000000000002 542.7 33.47999999999999 542.7 33.47999999999999" data-z-index="1" stroke="#6f58e9" stroke-width="2" stroke-linejoin="round" stroke-linecap="round"></path><path fill="none" d="M 60.3 262.26 C 60.3 262.26 132.66000000000003 248.496 180.9 241.8 C 229.14000000000001 235.104 253.26 241.8 301.5 228.78 C 349.74 215.76 373.86 212.04000000000002 422.1 172.98000000000002 C 470.34000000000003 133.92000000000002 542.7 33.47999999999999 542.7 33.47999999999999" data-z-index="2" stroke-linecap="round" stroke-linejoin="round" stroke="rgba(192,192,192,0.0001)" stroke-width="22" style="cursor: pointer;"></path></g><g data-z-index="0.1" opacity="1" transform="translate(37,47) scale(1 1)" clip-path="none" style="cursor: pointer; outline: none;" aria-hidden="false" role="region" tabindex="-1" aria-label="JSON, line 1 of 2 with 5 data points."><path fill="#6f58e9" d="M 60 266.26 A 4 4 0 1 1 60.00399999933334 266.25999800000017 Z" opacity="1" tabindex="-1" role="img" aria-label="8,000 Times, 1.8. JSON." style="outline: none;"></path><path fill="#6f58e9" d="M 180 245.8 A 4 4 0 1 1 180.00399999933333 245.7999980000002 Z" opacity="1" tabindex="-1" role="img" aria-label="16,000 Times, 4. JSON." style="outline: none;"></path><path fill="#6f58e9" d="M 301 232.78 A 4 4 0 1 1 301.00399999933336 232.77999800000018 Z" opacity="1" tabindex="-1" role="img" aria-label="32,000 Times, 5.4. JSON." style="outline: none;"></path><path fill="#6f58e9" d="M 422 176.98000000000002 A 4 4 0 1 1 422.00399999933336 176.9799980000002 Z" opacity="1" tabindex="-1" role="img" aria-label="64,000 Times, 11.4. JSON." style="outline: none;"></path><path fill="#6f58e9" d="M 542 37.47999999999999 A 4 4 0 1 1 542.0039999993334 37.47999800000016 Z" opacity="1" tabindex="-1" role="img" aria-label="128,000 Times, 26.4. JSON." style="outline: none;"></path></g><g data-z-index="0.1" opacity="1" transform="translate(37,47) scale(1 1)" clip-path="url(#highcharts-2ahtmys-1000-)" aria-hidden="true"><path fill="none" d="M 60.3 226.92000000000002 C 60.3 226.92000000000002 132.66000000000003 260.4 180.9 260.4 C 229.14000000000001 260.4 253.26 258.54 301.5 258.54 C 349.74 258.54 373.86 260.4 422.1 260.4 C 470.34000000000003 260.4 542.7 254.82 542.7 254.82" data-z-index="1" stroke="#ff9800" stroke-width="2" stroke-linejoin="round" stroke-linecap="round"></path><path fill="none" d="M 60.3 226.92000000000002 C 60.3 226.92000000000002 132.66000000000003 260.4 180.9 260.4 C 229.14000000000001 260.4 253.26 258.54 301.5 258.54 C 349.74 258.54 373.86 260.4 422.1 260.4 C 470.34000000000003 260.4 542.7 254.82 542.7 254.82" data-z-index="2" stroke-linecap="round" stroke-linejoin="round" stroke="rgba(192,192,192,0.0001)" stroke-width="22" style="cursor: pointer;"></path></g><g data-z-index="0.1" opacity="1" transform="translate(37,47) scale(1 1)" clip-path="none" style="cursor: pointer; outline: none;" aria-hidden="false" role="region" tabindex="-1" aria-label="TISSUE-ROLL, line 2 of 2 with 5 data points."><path fill="#ff9800" d="M 60 222.92000000000002 L 64 226.92000000000002 L 60 230.92000000000002 L 56 226.92000000000002 Z" opacity="1" tabindex="-1" role="img" aria-label="8,000 Times, 5.6. TISSUE-ROLL." style="outline: none;"></path><path fill="#ff9800" d="M 180 256.4 L 184 260.4 L 180 264.4 L 176 260.4 Z" opacity="1" tabindex="-1" role="img" aria-label="16,000 Times, 2. TISSUE-ROLL." style="outline: none;"></path><path fill="#ff9800" d="M 301 254.54000000000002 L 305 258.54 L 301 262.54 L 297 258.54 Z" opacity="1" tabindex="-1" role="img" aria-label="32,000 Times, 2.2. TISSUE-ROLL." style="outline: none;"></path><path fill="#ff9800" d="M 422 256.4 L 426 260.4 L 422 264.4 L 418 260.4 Z" opacity="1" tabindex="-1" role="img" aria-label="64,000 Times, 2. TISSUE-ROLL." style="outline: none;"></path><path fill="#ff9800" d="M 542 250.82 L 546 254.82 L 542 258.82 L 538 254.82 Z" opacity="1" tabindex="-1" role="img" aria-label="128,000 Times, 2.6. TISSUE-ROLL." style="outline: none;"></path></g></g><g data-z-index="3" aria-hidden="true"><g stroke-linecap="round" style="cursor: pointer;" transform="translate(616,10)"><title>Chart context menu</title><rect fill="#ffffff" x="0.5" y="0.5" width="24" height="22" rx="2" ry="2" stroke="none" stroke-width="1"></rect><path fill="#666666" d="M 6 6.5 L 20 6.5 M 6 11.5 L 20 11.5 M 6 16.5 L 20 16.5" data-z-index="1" stroke="#666666" stroke-width="3"></path><text font-family='Roboto-Regular,Roboto' x="0" data-z-index="1" y="15.5" style="color: rgb(51, 51, 51); font-weight: normal; fill: rgb(51, 51, 51);"></text></g></g><text font-family='Roboto-Regular,Roboto' x="325" text-anchor="middle" data-z-index="4" style="color: rgb(51, 51, 51); font-size: 18px; fill: rgb(51, 51, 51);" y="24" aria-hidden="true">READ</text><text font-family='Roboto-Regular,Roboto' x="325" text-anchor="middle" data-z-index="4" style="color: rgb(102, 102, 102); fill: rgb(102, 102, 102);" y="46" aria-hidden="true"></text><text font-family='Roboto-Regular,Roboto' x="10" text-anchor="start" data-z-index="4" style="color: rgb(102, 102, 102); fill: rgb(102, 102, 102);" y="397" aria-hidden="true"></text><g data-z-index="7" aria-hidden="true" transform="translate(233,359)"><rect fill="none" rx="0" ry="0" x="0" y="0" width="183" height="26"></rect><g data-z-index="1"><g><g data-z-index="1" transform="translate(8,3)"><path fill="none" d="M 0 11 L 16 11" stroke="#6f58e9" stroke-width="2"></path><path fill="#6f58e9" d="M 8 15 A 4 4 0 1 1 8.003999999333336 14.999998000000167 Z" opacity="1"></path><text font-family='Roboto-Regular,Roboto' x="21" text-anchor="start" data-z-index="2" y="15" style="color: rgb(51, 51, 51); cursor: pointer; font-size: 12px; font-weight: bold; fill: rgb(51, 51, 51);">JSON</text></g><g data-z-index="1" transform="translate(80.990234375,3)"><path fill="none" d="M 0 11 L 16 11" stroke="#ff9800" stroke-width="2"></path><path fill="#ff9800" d="M 8 7 L 12 11 L 8 15 L 4 11 Z" opacity="1"></path><text font-family='Roboto-Regular,Roboto' x="21" y="15" text-anchor="start" data-z-index="2" style="color: rgb(51, 51, 51); cursor: pointer; font-size: 12px; font-weight: bold; fill: rgb(51, 51, 51);">TISSUE-ROLL</text></g></g></g></g><g data-z-index="7" aria-hidden="true"><text font-family='Roboto-Regular,Roboto' x="97.3" style="color: rgb(102, 102, 102); cursor: default; font-size: 11px; fill: rgb(102, 102, 102);" text-anchor="middle" transform="translate(0,0)" y="345" opacity="1">8,000 Times</text><text font-family='Roboto-Regular,Roboto' x="217.89999999999998" style="color: rgb(102, 102, 102); cursor: default; font-size: 11px; fill: rgb(102, 102, 102);" text-anchor="middle" transform="translate(0,0)" y="345" opacity="1">16,000 Times</text><text font-family='Roboto-Regular,Roboto' x="338.5" style="color: rgb(102, 102, 102); cursor: default; font-size: 11px; fill: rgb(102, 102, 102);" text-anchor="middle" transform="translate(0,0)" y="345" opacity="1">32,000 Times</text><text font-family='Roboto-Regular,Roboto' x="459.09999999999997" style="color: rgb(102, 102, 102); cursor: default; font-size: 11px; fill: rgb(102, 102, 102);" text-anchor="middle" transform="translate(0,0)" y="345" opacity="1">64,000 Times</text><text font-family='Roboto-Regular,Roboto' x="579.7" style="color: rgb(102, 102, 102); cursor: default; font-size: 11px; fill: rgb(102, 102, 102);" text-anchor="middle" transform="translate(0,0)" y="345" opacity="1">128,000 Times</text></g><g data-z-index="7" aria-hidden="true"><text font-family='Roboto-Regular,Roboto' x="22" style="color: rgb(102, 102, 102); cursor: default; font-size: 11px; fill: rgb(102, 102, 102);" text-anchor="end" transform="translate(0,0)" y="331" opacity="1">0</text><text font-family='Roboto-Regular,Roboto' x="22" style="color: rgb(102, 102, 102); cursor: default; font-size: 11px; fill: rgb(102, 102, 102);" text-anchor="end" transform="translate(0,0)" y="284" opacity="1">5</text><text font-family='Roboto-Regular,Roboto' x="22" style="color: rgb(102, 102, 102); cursor: default; font-size: 11px; fill: rgb(102, 102, 102);" text-anchor="end" transform="translate(0,0)" y="238" opacity="1">10</text><text font-family='Roboto-Regular,Roboto' x="22" text-anchor="end" transform="translate(0,0)" style="color: rgb(102, 102, 102); cursor: default; font-size: 11px; fill: rgb(102, 102, 102);" y="191" opacity="1">15</text><text font-family='Roboto-Regular,Roboto' x="22" text-anchor="end" transform="translate(0,0)" style="color: rgb(102, 102, 102); cursor: default; font-size: 11px; fill: rgb(102, 102, 102);" y="145" opacity="1">20</text><text font-family='Roboto-Regular,Roboto' x="22" text-anchor="end" transform="translate(0,0)" style="color: rgb(102, 102, 102); cursor: default; font-size: 11px; fill: rgb(102, 102, 102);" y="98" opacity="1">25</text><text font-family='Roboto-Regular,Roboto' x="22" text-anchor="end" transform="translate(0,0)" style="color: rgb(102, 102, 102); cursor: default; font-size: 11px; fill: rgb(102, 102, 102);" y="52" opacity="1">30</text></g></svg>