<svg version="1.1" viewBox="0.0 0.0 600.0 371.0" fill="none" stroke="none" stroke-linecap="square" stroke-miterlimit="10" width="600" height="371" xmlns:xlink="http://www.w3.org/1999/xlink" xmlns="http://www.w3.org/2000/svg"><path fill="#ffffff" d="M0 0L600.0 0L600.0 371.0L0 371.0L0 0Z" fill-rule="nonzero"/><path stroke="#cccccc" stroke-width="1.0" stroke-linecap="butt" d="M152.5 88.5L152.5 300.5" fill-rule="nonzero"/><path stroke="#cccccc" stroke-width="1.0" stroke-linecap="butt" d="M295.5 88.5L295.5 300.5" fill-rule="nonzero"/><path stroke="#cccccc" stroke-width="1.0" stroke-linecap="butt" d="M438.5 88.5L438.5 300.5" fill-rule="nonzero"/><path stroke="#cccccc" stroke-width="1.0" stroke-linecap="butt" d="M581.5 88.5L581.5 300.5" fill-rule="nonzero"/><path stroke="#333333" stroke-width="1.0" stroke-linecap="butt" d="M80.5 300.5L581.5 300.5" fill-rule="nonzero"/><path stroke="#cccccc" stroke-width="1.0" stroke-linecap="butt" d="M80.5 247.5L581.5 247.5" fill-rule="nonzero"/><path stroke="#cccccc" stroke-width="1.0" stroke-linecap="butt" d="M80.5 194.5L581.5 194.5" fill-rule="nonzero"/><path stroke="#cccccc" stroke-width="1.0" stroke-linecap="butt" d="M80.5 141.5L581.5 141.5" fill-rule="nonzero"/><path stroke="#cccccc" stroke-width="1.0" stroke-linecap="butt" d="M80.5 88.5L581.5 88.5" fill-rule="nonzero"/><clipPath id="id_0"><path d="M80.55 88.28333L581.45 88.28333L581.45 300.45L80.55 300.45L80.55 88.28333Z" clip-rule="nonzero"/></clipPath><path stroke="#4285f4" stroke-width="2.0" stroke-linecap="butt" clip-path="url(#id_0)" d="M80.55 289.69315C80.55 289.69315 128.25476 282.2797 152.10715 277.11166C175.95952 271.94363 247.51666 254.93848 295.22144 240.25832C342.92618 225.57816 581.45 137.80304 581.45 137.80304" fill-rule="nonzero"/><path stroke="#ea4335" stroke-width="2.0" stroke-linecap="butt" clip-path="url(#id_0)" d="M80.55 291.2844C80.55 291.2844 128.25476 285.18726 152.10715 282.41583C175.95952 279.6444 247.51666 271.9242 295.22144 266.89584C342.92618 261.8675 581.45 237.59563 581.45 237.59563" fill-rule="nonzero"/><path fill="#000000" fill-opacity="0.0" clip-path="url(#id_0)" d="M83.55 289.69315C83.55 291.35 82.206856 292.69315 80.55 292.69315C78.89314 292.69315 77.55 291.35 77.55 289.69315C77.55 288.0363 78.89314 286.69315 80.55 286.69315C82.206856 286.69315 83.55 288.0363 83.55 289.69315Z" fill-rule="nonzero"/><path fill="#000000" fill-opacity="0.0" clip-path="url(#id_0)" d="M155.10715 277.11166C155.10715 278.76852 153.76399 280.11166 152.10715 280.11166C150.45029 280.11166 149.10715 278.76852 149.10715 277.11166C149.10715 275.4548 150.45029 274.11166 152.10715 274.11166C153.76399 274.11166 155.10715 275.4548 155.10715 277.11166Z" fill-rule="nonzero"/><path fill="#000000" fill-opacity="0.0" clip-path="url(#id_0)" d="M298.22144 240.25832C298.22144 241.91518 296.8783 243.25832 295.22144 243.25832C293.56458 243.25832 292.22144 241.91518 292.22144 240.25832C292.22144 238.60146 293.56458 237.25832 295.22144 237.25832C296.8783 237.25832 298.22144 238.60146 298.22144 240.25832Z" fill-rule="nonzero"/><path fill="#000000" fill-opacity="0.0" clip-path="url(#id_0)" d="M584.45 137.80304C584.45 139.45988 583.1069 140.80304 581.45 140.80304C579.79315 140.80304 578.45 139.45988 578.45 137.80304C578.45 136.14618 579.79315 134.80304 581.45 134.80304C583.1069 134.80304 584.45 136.14618 584.45 137.80304Z" fill-rule="nonzero"/><path fill="#000000" fill-opacity="0.0" clip-path="url(#id_0)" d="M83.55 291.2844C83.55 292.94125 82.206856 294.2844 80.55 294.2844C78.89314 294.2844 77.55 292.94125 77.55 291.2844C77.55 289.62753 78.89314 288.2844 80.55 288.2844C82.206856 288.2844 83.55 289.62753 83.55 291.2844Z" fill-rule="nonzero"/><path fill="#000000" fill-opacity="0.0" clip-path="url(#id_0)" d="M155.10715 282.41583C155.10715 284.0727 153.76399 285.41583 152.10715 285.41583C150.45029 285.41583 149.10715 284.0727 149.10715 282.41583C149.10715 280.75897 150.45029 279.41583 152.10715 279.41583C153.76399 279.41583 155.10715 280.75897 155.10715 282.41583Z" fill-rule="nonzero"/><path fill="#000000" fill-opacity="0.0" clip-path="url(#id_0)" d="M298.22144 266.89584C298.22144 268.5527 296.8783 269.89584 295.22144 269.89584C293.56458 269.89584 292.22144 268.5527 292.22144 266.89584C292.22144 265.23898 293.56458 263.89584 295.22144 263.89584C296.8783 263.89584 298.22144 265.23898 298.22144 266.89584Z" fill-rule="nonzero"/><path fill="#000000" fill-opacity="0.0" clip-path="url(#id_0)" d="M584.45 237.59563C584.45 239.25247 583.1069 240.59563 581.45 240.59563C579.79315 240.59563 578.45 239.25247 578.45 237.59563C578.45 235.93877 579.79315 234.59563 581.45 234.59563C583.1069 234.59563 584.45 235.93877 584.45 237.59563Z" fill-rule="nonzero"/><path fill="#000000" d="M314.42188 349.45L312.14062 340.85626L313.3125 340.85626L314.625 346.4969Q314.82812 347.3719 314.98438 348.2469Q315.3125 346.8719 315.375 346.65314L317.0 340.85626L318.375 340.85626L319.60938 345.2Q320.0625 346.825 320.28125 348.2469Q320.4375 347.4344 320.70312 346.3719L322.04688 340.85626L323.1875 340.85626L320.84375 349.45L319.73438 349.45L317.9375 342.90314Q317.70312 342.09064 317.65625 341.90314Q317.53125 342.48126 317.40625 342.90314L315.59375 349.45L314.42188 349.45ZM323.9375 349.45L323.9375 340.85626L327.75 340.85626Q328.90625 340.85626 329.5 341.09064Q330.09375 341.325 330.45312 341.91876Q330.8125 342.4969 330.8125 343.2Q330.8125 344.1219 330.21875 344.7469Q329.625 345.3719 328.39062 345.54376Q328.84375 345.7625 329.07812 345.96564Q329.57812 346.41876 330.01562 347.10626L331.51562 349.45L330.07812 349.45L328.95312 347.66876Q328.45312 346.8875 328.125 346.48126Q327.8125 346.075 327.54688 345.91876Q327.29688 345.7469 327.03125 345.66876Q326.84375 345.6375 326.40625 345.6375L325.07812 345.6375L325.07812 349.45L323.9375 349.45ZM325.07812 344.65314L327.53125 344.65314Q328.29688 344.65314 328.73438 344.4969Q329.1875 344.325 329.40625 343.98126Q329.64062 343.6219 329.64062 343.2Q329.64062 342.59064 329.1875 342.2Q328.75 341.8094 327.79688 341.8094L325.07812 341.8094L325.07812 344.65314ZM333.125 349.45L333.125 340.85626L334.25 340.85626L334.25 349.45L333.125 349.45ZM338.10938 349.45L338.10938 341.8719L335.28125 341.8719L335.28125 340.85626L342.09375 340.85626L342.09375 341.8719L339.25 341.8719L339.25 349.45L338.10938 349.45ZM342.95312 349.45L342.95312 340.85626L349.15625 340.85626L349.15625 341.8719L344.09375 341.8719L344.09375 344.4969L348.84375 344.4969L348.84375 345.5125L344.09375 345.5125L344.09375 348.4344L349.35938 348.4344L349.35938 349.45L342.95312 349.45Z" fill-rule="nonzero"/><path fill="#000000" d="M50.05 300.21564Q50.05 298.6844 50.3625 297.7625Q50.675 296.825 51.284374 296.325Q51.909374 295.825 52.846874 295.825Q53.534374 295.825 54.05 296.10626Q54.58125 296.3875 54.925 296.91876Q55.26875 297.4344 55.45625 298.1844Q55.64375 298.9344 55.64375 300.21564Q55.64375 301.73126 55.33125 302.65314Q55.034374 303.575 54.409374 304.09064Q53.8 304.59064 52.846874 304.59064Q51.6125 304.59064 50.89375 303.7Q50.05 302.6375 50.05 300.21564ZM51.128124 300.21564Q51.128124 302.325 51.628124 303.02814Q52.128124 303.73126 52.846874 303.73126Q53.58125 303.73126 54.065624 303.02814Q54.565624 302.325 54.565624 300.21564Q54.565624 298.09064 54.065624 297.40314Q53.58125 296.7 52.83125 296.7Q52.1125 296.7 51.675 297.3094Q51.128124 298.09064 51.128124 300.21564ZM57.346874 304.45L57.346874 298.23126L58.284374 298.23126L58.284374 299.10626Q58.58125 298.6375 59.065624 298.3719Q59.55 298.09064 60.175 298.09064Q60.8625 298.09064 61.3 298.3719Q61.753124 298.65314 61.925 299.16876Q62.675 298.09064 63.846874 298.09064Q64.78438 298.09064 65.26875 298.60626Q65.76875 299.10626 65.76875 300.1844L65.76875 304.45L64.72188 304.45L64.72188 300.52814Q64.72188 299.90314 64.6125 299.6219Q64.51875 299.34064 64.25313 299.16876Q63.9875 298.9969 63.6125 298.9969Q62.95625 298.9969 62.51875 299.4344Q62.096874 299.8719 62.096874 300.84064L62.096874 304.45L61.034374 304.45L61.034374 300.40314Q61.034374 299.7 60.76875 299.35626Q60.51875 298.9969 59.940624 298.9969Q59.4875 298.9969 59.1125 299.23126Q58.7375 299.46564 58.565624 299.91876Q58.39375 300.3719 58.39375 301.21564L58.39375 304.45L57.346874 304.45ZM67.925 302.59064L68.95625 302.4344Q69.05 303.0594 69.44063 303.3875Q69.84688 303.71564 70.58125 303.71564Q71.3 303.71564 71.64375 303.4344Q72.00313 303.1375 72.00313 302.73126Q72.00313 302.3719 71.69063 302.16876Q71.47188 302.02814 70.6125 301.8094Q69.45625 301.5125 69.00313 301.3094Q68.56563 301.09064 68.33125 300.71564Q68.09688 300.34064 68.09688 299.8719Q68.09688 299.46564 68.28438 299.10626Q68.47188 298.7469 68.8 298.5125Q69.05 298.34064 69.47188 298.21564Q69.89375 298.09064 70.39375 298.09064Q71.1125 298.09064 71.65938 298.3094Q72.22188 298.5125 72.4875 298.8719Q72.75313 299.23126 72.84688 299.825L71.81563 299.96564Q71.75313 299.4969 71.40938 299.23126Q71.08125 298.95 70.45625 298.95Q69.7375 298.95 69.425 299.2Q69.1125 299.4344 69.1125 299.7625Q69.1125 299.96564 69.2375 300.1219Q69.37813 300.29376 69.64375 300.40314Q69.8 300.46564 70.58125 300.66876Q71.70625 300.98126 72.14375 301.16876Q72.58125 301.35626 72.83125 301.71564Q73.08125 302.075 73.08125 302.6219Q73.08125 303.15314 72.76875 303.6219Q72.47188 304.075 71.89375 304.34064Q71.31563 304.59064 70.58125 304.59064Q69.3625 304.59064 68.72188 304.09064Q68.09688 303.575 67.925 302.59064Z" fill-rule="nonzero"/><path fill="#000000" d="M26.05 249.15834L27.159374 249.06459Q27.284374 249.87709 27.721874 250.28334Q28.175 250.68959 28.815624 250.68959Q29.565624 250.68959 30.096874 250.11147Q30.628124 249.53334 30.628124 248.59584Q30.628124 247.68959 30.1125 247.17397Q29.6125 246.64272 28.784374 246.64272Q28.284374 246.64272 27.8625 246.87709Q27.45625 247.11147 27.221874 247.47084L26.2375 247.34584L27.065624 242.93959L31.346874 242.93959L31.346874 243.93959L27.909374 243.93959L27.45625 246.25209Q28.221874 245.70522 29.065624 245.70522Q30.190624 245.70522 30.95625 246.48647Q31.7375 247.26772 31.7375 248.50209Q31.7375 249.65834 31.065624 250.51772Q30.2375 251.54897 28.815624 251.54897Q27.64375 251.54897 26.89375 250.89272Q26.159374 250.23647 26.05 249.15834ZM33.6125 251.40834L33.6125 250.20522L34.815624 250.20522L34.815624 251.40834Q34.815624 252.06459 34.58125 252.47084Q34.346874 252.89272 33.846874 253.11147L33.55 252.65834Q33.878124 252.51772 34.034374 252.22084Q34.190624 251.93959 34.221874 251.40834L33.6125 251.40834ZM36.05 247.17397Q36.05 245.64272 36.3625 244.72084Q36.675 243.78334 37.284374 243.28334Q37.909374 242.78334 38.846874 242.78334Q39.534374 242.78334 40.05 243.06459Q40.58125 243.34584 40.925 243.87709Q41.26875 244.39272 41.45625 245.14272Q41.64375 245.89272 41.64375 247.17397Q41.64375 248.68959 41.33125 249.61147Q41.034374 250.53334 40.409374 251.04897Q39.8 251.54897 38.846874 251.54897Q37.6125 251.54897 36.89375 250.65834Q36.05 249.59584 36.05 247.17397ZM37.128124 247.17397Q37.128124 249.28334 37.628124 249.98647Q38.128124 250.68959 38.846874 250.68959Q39.58125 250.68959 40.065624 249.98647Q40.565624 249.28334 40.565624 247.17397Q40.565624 245.04897 40.065624 244.36147Q39.58125 243.65834 38.83125 243.65834Q38.1125 243.65834 37.675 244.26772Q37.128124 245.04897 37.128124 247.17397ZM43.05 247.17397Q43.05 245.64272 43.3625 244.72084Q43.675 243.78334 44.284374 243.28334Q44.909374 242.78334 45.846874 242.78334Q46.534374 242.78334 47.05 243.06459Q47.58125 243.34584 47.925 243.87709Q48.26875 244.39272 48.45625 245.14272Q48.64375 245.89272 48.64375 247.17397Q48.64375 248.68959 48.33125 249.61147Q48.034374 250.53334 47.409374 251.04897Q46.8 251.54897 45.846874 251.54897Q44.6125 251.54897 43.89375 250.65834Q43.05 249.59584 43.05 247.17397ZM44.128124 247.17397Q44.128124 249.28334 44.628124 249.98647Q45.128124 250.68959 45.846874 250.68959Q46.58125 250.68959 47.065624 249.98647Q47.565624 249.28334 47.565624 247.17397Q47.565624 245.04897 47.065624 244.36147Q46.58125 243.65834 45.83125 243.65834Q45.1125 243.65834 44.675 244.26772Q44.128124 245.04897 44.128124 247.17397ZM50.05 247.17397Q50.05 245.64272 50.3625 244.72084Q50.675 243.78334 51.284374 243.28334Q51.909374 242.78334 52.846874 242.78334Q53.534374 242.78334 54.05 243.06459Q54.58125 243.34584 54.925 243.87709Q55.26875 244.39272 55.45625 245.14272Q55.64375 245.89272 55.64375 247.17397Q55.64375 248.68959 55.33125 249.61147Q55.034374 250.53334 54.409374 251.04897Q53.8 251.54897 52.846874 251.54897Q51.6125 251.54897 50.89375 250.65834Q50.05 249.59584 50.05 247.17397ZM51.128124 247.17397Q51.128124 249.28334 51.628124 249.98647Q52.128124 250.68959 52.846874 250.68959Q53.58125 250.68959 54.065624 249.98647Q54.565624 249.28334 54.565624 247.17397Q54.565624 245.04897 54.065624 244.36147Q53.58125 243.65834 52.83125 243.65834Q52.1125 243.65834 51.675 244.26772Q51.128124 245.04897 51.128124 247.17397ZM57.346874 251.40834L57.346874 245.18959L58.284374 245.18959L58.284374 246.06459Q58.58125 245.59584 59.065624 245.33022Q59.55 245.04897 60.175 245.04897Q60.8625 245.04897 61.3 245.33022Q61.753124 245.61147 61.925 246.12709Q62.675 245.04897 63.846874 245.04897Q64.78438 245.04897 65.26875 245.56459Q65.76875 246.06459 65.76875 247.14272L65.76875 251.40834L64.72188 251.40834L64.72188 247.48647Q64.72188 246.86147 64.6125 246.58022Q64.51875 246.29897 64.25313 246.12709Q63.9875 245.95522 63.6125 245.95522Q62.95625 245.95522 62.51875 246.39272Q62.096874 246.83022 62.096874 247.79897L62.096874 251.40834L61.034374 251.40834L61.034374 247.36147Q61.034374 246.65834 60.76875 246.31459Q60.51875 245.95522 59.940624 245.95522Q59.4875 245.95522 59.1125 246.18959Q58.7375 246.42397 58.565624 246.87709Q58.39375 247.33022 58.39375 248.17397L58.39375 251.40834L57.346874 251.40834ZM67.925 249.54897L68.95625 249.39272Q69.05 250.01772 69.44063 250.34584Q69.84688 250.67397 70.58125 250.67397Q71.3 250.67397 71.64375 250.39272Q72.00313 250.09584 72.00313 249.68959Q72.00313 249.33022 71.69063 249.12709Q71.47188 248.98647 70.6125 248.76772Q69.45625 248.47084 69.00313 248.26772Q68.56563 248.04897 68.33125 247.67397Q68.09688 247.29897 68.09688 246.83022Q68.09688 246.42397 68.28438 246.06459Q68.47188 245.70522 68.8 245.47084Q69.05 245.29897 69.47188 245.17397Q69.89375 245.04897 70.39375 245.04897Q71.1125 245.04897 71.65938 245.26772Q72.22188 245.47084 72.4875 245.83022Q72.75313 246.18959 72.84688 246.78334L71.81563 246.92397Q71.75313 246.45522 71.40938 246.18959Q71.08125 245.90834 70.45625 245.90834Q69.7375 245.90834 69.425 246.15834Q69.1125 246.39272 69.1125 246.72084Q69.1125 246.92397 69.2375 247.08022Q69.37813 247.25209 69.64375 247.36147Q69.8 247.42397 70.58125 247.62709Q71.70625 247.93959 72.14375 248.12709Q72.58125 248.31459 72.83125 248.67397Q73.08125 249.03334 73.08125 249.58022Q73.08125 250.11147 72.76875 250.58022Q72.47188 251.03334 71.89375 251.29897Q71.31563 251.54897 70.58125 251.54897Q69.3625 251.54897 68.72188 251.04897Q68.09688 250.53334 67.925 249.54897Z" fill-rule="nonzero"/><path fill="#000000" d="M23.01875 198.36667L21.971874 198.36667L21.971874 191.64792Q21.58125 192.0073 20.95625 192.3823Q20.346874 192.74167 19.8625 192.91354L19.8625 191.89792Q20.7375 191.47604 21.39375 190.89792Q22.065624 190.30417 22.346874 189.74167L23.01875 189.74167L23.01875 198.36667ZM26.05 194.1323Q26.05 192.60104 26.3625 191.67917Q26.675 190.74167 27.284374 190.24167Q27.909374 189.74167 28.846874 189.74167Q29.534374 189.74167 30.05 190.02292Q30.58125 190.30417 30.925 190.83542Q31.26875 191.35104 31.45625 192.10104Q31.64375 192.85104 31.64375 194.1323Q31.64375 195.64792 31.33125 196.5698Q31.034374 197.49167 30.409374 198.0073Q29.8 198.5073 28.846874 198.5073Q27.6125 198.5073 26.89375 197.61667Q26.05 196.55417 26.05 194.1323ZM27.128124 194.1323Q27.128124 196.24167 27.628124 196.9448Q28.128124 197.64792 28.846874 197.64792Q29.58125 197.64792 30.065624 196.9448Q30.565624 196.24167 30.565624 194.1323Q30.565624 192.0073 30.065624 191.3198Q29.58125 190.61667 28.83125 190.61667Q28.1125 190.61667 27.675 191.22604Q27.128124 192.0073 27.128124 194.1323ZM33.6125 198.36667L33.6125 197.16354L34.815624 197.16354L34.815624 198.36667Q34.815624 199.02292 34.58125 199.42917Q34.346874 199.85104 33.846874 200.0698L33.55 199.61667Q33.878124 199.47604 34.034374 199.17917Q34.190624 198.89792 34.221874 198.36667L33.6125 198.36667ZM36.05 194.1323Q36.05 192.60104 36.3625 191.67917Q36.675 190.74167 37.284374 190.24167Q37.909374 189.74167 38.846874 189.74167Q39.534374 189.74167 40.05 190.02292Q40.58125 190.30417 40.925 190.83542Q41.26875 191.35104 41.45625 192.10104Q41.64375 192.85104 41.64375 194.1323Q41.64375 195.64792 41.33125 196.5698Q41.034374 197.49167 40.409374 198.0073Q39.8 198.5073 38.846874 198.5073Q37.6125 198.5073 36.89375 197.61667Q36.05 196.55417 36.05 194.1323ZM37.128124 194.1323Q37.128124 196.24167 37.628124 196.9448Q38.128124 197.64792 38.846874 197.64792Q39.58125 197.64792 40.065624 196.9448Q40.565624 196.24167 40.565624 194.1323Q40.565624 192.0073 40.065624 191.3198Q39.58125 190.61667 38.83125 190.61667Q38.1125 190.61667 37.675 191.22604Q37.128124 192.0073 37.128124 194.1323ZM43.05 194.1323Q43.05 192.60104 43.3625 191.67917Q43.675 190.74167 44.284374 190.24167Q44.909374 189.74167 45.846874 189.74167Q46.534374 189.74167 47.05 190.02292Q47.58125 190.30417 47.925 190.83542Q48.26875 191.35104 48.45625 192.10104Q48.64375 192.85104 48.64375 194.1323Q48.64375 195.64792 48.33125 196.5698Q48.034374 197.49167 47.409374 198.0073Q46.8 198.5073 45.846874 198.5073Q44.6125 198.5073 43.89375 197.61667Q43.05 196.55417 43.05 194.1323ZM44.128124 194.1323Q44.128124 196.24167 44.628124 196.9448Q45.128124 197.64792 45.846874 197.64792Q46.58125 197.64792 47.065624 196.9448Q47.565624 196.24167 47.565624 194.1323Q47.565624 192.0073 47.065624 191.3198Q46.58125 190.61667 45.83125 190.61667Q45.1125 190.61667 44.675 191.22604Q44.128124 192.0073 44.128124 194.1323ZM50.05 194.1323Q50.05 192.60104 50.3625 191.67917Q50.675 190.74167 51.284374 190.24167Q51.909374 189.74167 52.846874 189.74167Q53.534374 189.74167 54.05 190.02292Q54.58125 190.30417 54.925 190.83542Q55.26875 191.35104 55.45625 192.10104Q55.64375 192.85104 55.64375 194.1323Q55.64375 195.64792 55.33125 196.5698Q55.034374 197.49167 54.409374 198.0073Q53.8 198.5073 52.846874 198.5073Q51.6125 198.5073 50.89375 197.61667Q50.05 196.55417 50.05 194.1323ZM51.128124 194.1323Q51.128124 196.24167 51.628124 196.9448Q52.128124 197.64792 52.846874 197.64792Q53.58125 197.64792 54.065624 196.9448Q54.565624 196.24167 54.565624 194.1323Q54.565624 192.0073 54.065624 191.3198Q53.58125 190.61667 52.83125 190.61667Q52.1125 190.61667 51.675 191.22604Q51.128124 192.0073 51.128124 194.1323ZM57.346874 198.36667L57.346874 192.14792L58.284374 192.14792L58.284374 193.02292Q58.58125 192.55417 59.065624 192.28854Q59.55 192.0073 60.175 192.0073Q60.8625 192.0073 61.3 192.28854Q61.753124 192.5698 61.925 193.08542Q62.675 192.0073 63.846874 192.0073Q64.78438 192.0073 65.26875 192.52292Q65.76875 193.02292 65.76875 194.10104L65.76875 198.36667L64.72188 198.36667L64.72188 194.4448Q64.72188 193.8198 64.6125 193.53854Q64.51875 193.2573 64.25313 193.08542Q63.9875 192.91354 63.6125 192.91354Q62.95625 192.91354 62.51875 193.35104Q62.096874 193.78854 62.096874 194.7573L62.096874 198.36667L61.034374 198.36667L61.034374 194.3198Q61.034374 193.61667 60.76875 193.27292Q60.51875 192.91354 59.940624 192.91354Q59.4875 192.91354 59.1125 193.14792Q58.7375 193.3823 58.565624 193.83542Q58.39375 194.28854 58.39375 195.1323L58.39375 198.36667L57.346874 198.36667ZM67.925 196.5073L68.95625 196.35104Q69.05 196.97604 69.44063 197.30417Q69.84688 197.6323 70.58125 197.6323Q71.3 197.6323 71.64375 197.35104Q72.00313 197.05417 72.00313 196.64792Q72.00313 196.28854 71.69063 196.08542Q71.47188 195.9448 70.6125 195.72604Q69.45625 195.42917 69.00313 195.22604Q68.56563 195.0073 68.33125 194.6323Q68.09688 194.2573 68.09688 193.78854Q68.09688 193.3823 68.28438 193.02292Q68.47188 192.66354 68.8 192.42917Q69.05 192.2573 69.47188 192.1323Q69.89375 192.0073 70.39375 192.0073Q71.1125 192.0073 71.65938 192.22604Q72.22188 192.42917 72.4875 192.78854Q72.75313 193.14792 72.84688 193.74167L71.81563 193.8823Q71.75313 193.41354 71.40938 193.14792Q71.08125 192.86667 70.45625 192.86667Q69.7375 192.86667 69.425 193.11667Q69.1125 193.35104 69.1125 193.67917Q69.1125 193.8823 69.2375 194.03854Q69.37813 194.21042 69.64375 194.3198Q69.8 194.3823 70.58125 194.58542Q71.70625 194.89792 72.14375 195.08542Q72.58125 195.27292 72.83125 195.6323Q73.08125 195.99167 73.08125 196.53854Q73.08125 197.0698 72.76875 197.53854Q72.47188 197.99167 71.89375 198.2573Q71.31563 198.5073 70.58125 198.5073Q69.3625 198.5073 68.72188 198.0073Q68.09688 197.49167 67.925 196.5073Z" fill-rule="nonzero"/><path fill="#000000" d="M23.01875 145.325L21.971874 145.325L21.971874 138.60625Q21.58125 138.96562 20.95625 139.34062Q20.346874 139.7 19.8625 139.87187L19.8625 138.85625Q20.7375 138.43437 21.39375 137.85625Q22.065624 137.2625 22.346874 136.7L23.01875 136.7L23.01875 145.325ZM26.05 143.075L27.159374 142.98125Q27.284374 143.79375 27.721874 144.2Q28.175 144.60625 28.815624 144.60625Q29.565624 144.60625 30.096874 144.02812Q30.628124 143.45 30.628124 142.5125Q30.628124 141.60625 30.1125 141.09062Q29.6125 140.55937 28.784374 140.55937Q28.284374 140.55937 27.8625 140.79375Q27.45625 141.02812 27.221874 141.3875L26.2375 141.2625L27.065624 136.85625L31.346874 136.85625L31.346874 137.85625L27.909374 137.85625L27.45625 140.16875Q28.221874 139.62187 29.065624 139.62187Q30.190624 139.62187 30.95625 140.40312Q31.7375 141.18437 31.7375 142.41875Q31.7375 143.575 31.065624 144.43437Q30.2375 145.46562 28.815624 145.46562Q27.64375 145.46562 26.89375 144.80937Q26.159374 144.15312 26.05 143.075ZM33.6125 145.325L33.6125 144.12187L34.815624 144.12187L34.815624 145.325Q34.815624 145.98125 34.58125 146.3875Q34.346874 146.80937 33.846874 147.02812L33.55 146.575Q33.878124 146.43437 34.034374 146.1375Q34.190624 145.85625 34.221874 145.325L33.6125 145.325ZM36.05 141.09062Q36.05 139.55937 36.3625 138.6375Q36.675 137.7 37.284374 137.2Q37.909374 136.7 38.846874 136.7Q39.534374 136.7 40.05 136.98125Q40.58125 137.2625 40.925 137.79375Q41.26875 138.30937 41.45625 139.05937Q41.64375 139.80937 41.64375 141.09062Q41.64375 142.60625 41.33125 143.52812Q41.034374 144.45 40.409374 144.96562Q39.8 145.46562 38.846874 145.46562Q37.6125 145.46562 36.89375 144.575Q36.05 143.5125 36.05 141.09062ZM37.128124 141.09062Q37.128124 143.2 37.628124 143.90312Q38.128124 144.60625 38.846874 144.60625Q39.58125 144.60625 40.065624 143.90312Q40.565624 143.2 40.565624 141.09062Q40.565624 138.96562 40.065624 138.27812Q39.58125 137.575 38.83125 137.575Q38.1125 137.575 37.675 138.18437Q37.128124 138.96562 37.128124 141.09062ZM43.05 141.09062Q43.05 139.55937 43.3625 138.6375Q43.675 137.7 44.284374 137.2Q44.909374 136.7 45.846874 136.7Q46.534374 136.7 47.05 136.98125Q47.58125 137.2625 47.925 137.79375Q48.26875 138.30937 48.45625 139.05937Q48.64375 139.80937 48.64375 141.09062Q48.64375 142.60625 48.33125 143.52812Q48.034374 144.45 47.409374 144.96562Q46.8 145.46562 45.846874 145.46562Q44.6125 145.46562 43.89375 144.575Q43.05 143.5125 43.05 141.09062ZM44.128124 141.09062Q44.128124 143.2 44.628124 143.90312Q45.128124 144.60625 45.846874 144.60625Q46.58125 144.60625 47.065624 143.90312Q47.565624 143.2 47.565624 141.09062Q47.565624 138.96562 47.065624 138.27812Q46.58125 137.575 45.83125 137.575Q45.1125 137.575 44.675 138.18437Q44.128124 138.96562 44.128124 141.09062ZM50.05 141.09062Q50.05 139.55937 50.3625 138.6375Q50.675 137.7 51.284374 137.2Q51.909374 136.7 52.846874 136.7Q53.534374 136.7 54.05 136.98125Q54.58125 137.2625 54.925 137.79375Q55.26875 138.30937 55.45625 139.05937Q55.64375 139.80937 55.64375 141.09062Q55.64375 142.60625 55.33125 143.52812Q55.034374 144.45 54.409374 144.96562Q53.8 145.46562 52.846874 145.46562Q51.6125 145.46562 50.89375 144.575Q50.05 143.5125 50.05 141.09062ZM51.128124 141.09062Q51.128124 143.2 51.628124 143.90312Q52.128124 144.60625 52.846874 144.60625Q53.58125 144.60625 54.065624 143.90312Q54.565624 143.2 54.565624 141.09062Q54.565624 138.96562 54.065624 138.27812Q53.58125 137.575 52.83125 137.575Q52.1125 137.575 51.675 138.18437Q51.128124 138.96562 51.128124 141.09062ZM57.346874 145.325L57.346874 139.10625L58.284374 139.10625L58.284374 139.98125Q58.58125 139.5125 59.065624 139.24687Q59.55 138.96562 60.175 138.96562Q60.8625 138.96562 61.3 139.24687Q61.753124 139.52812 61.925 140.04375Q62.675 138.96562 63.846874 138.96562Q64.78438 138.96562 65.26875 139.48125Q65.76875 139.98125 65.76875 141.05937L65.76875 145.325L64.72188 145.325L64.72188 141.40312Q64.72188 140.77812 64.6125 140.49687Q64.51875 140.21562 64.25313 140.04375Q63.9875 139.87187 63.6125 139.87187Q62.95625 139.87187 62.51875 140.30937Q62.096874 140.74687 62.096874 141.71562L62.096874 145.325L61.034374 145.325L61.034374 141.27812Q61.034374 140.575 60.76875 140.23125Q60.51875 139.87187 59.940624 139.87187Q59.4875 139.87187 59.1125 140.10625Q58.7375 140.34062 58.565624 140.79375Q58.39375 141.24687 58.39375 142.09062L58.39375 145.325L57.346874 145.325ZM67.925 143.46562L68.95625 143.30937Q69.05 143.93437 69.44063 144.2625Q69.84688 144.59062 70.58125 144.59062Q71.3 144.59062 71.64375 144.30937Q72.00313 144.0125 72.00313 143.60625Q72.00313 143.24687 71.69063 143.04375Q71.47188 142.90312 70.6125 142.68437Q69.45625 142.3875 69.00313 142.18437Q68.56563 141.96562 68.33125 141.59062Q68.09688 141.21562 68.09688 140.74687Q68.09688 140.34062 68.28438 139.98125Q68.47188 139.62187 68.8 139.3875Q69.05 139.21562 69.47188 139.09062Q69.89375 138.96562 70.39375 138.96562Q71.1125 138.96562 71.65938 139.18437Q72.22188 139.3875 72.4875 139.74687Q72.75313 140.10625 72.84688 140.7L71.81563 140.84062Q71.75313 140.37187 71.40938 140.10625Q71.08125 139.825 70.45625 139.825Q69.7375 139.825 69.425 140.075Q69.1125 140.30937 69.1125 140.6375Q69.1125 140.84062 69.2375 140.99687Q69.37813 141.16875 69.64375 141.27812Q69.8 141.34062 70.58125 141.54375Q71.70625 141.85625 72.14375 142.04375Q72.58125 142.23125 72.83125 142.59062Q73.08125 142.95 73.08125 143.49687Q73.08125 144.02812 72.76875 144.49687Q72.47188 144.95 71.89375 145.21562Q71.31563 145.46562 70.58125 145.46562Q69.3625 145.46562 68.72188 144.96562Q68.09688 144.45 67.925 143.46562Z" fill-rule="nonzero"/><path fill="#000000" d="M24.596874 91.26771L24.596874 92.28333L18.909374 92.28333Q18.909374 91.90833 19.034374 91.54896Q19.253124 90.97083 19.721874 90.40833Q20.20625 89.84583 21.1125 89.11146Q22.51875 87.95521 23.003124 87.28333Q23.503124 86.61146 23.503124 86.01771Q23.503124 85.39271 23.05 84.97083Q22.596874 84.53333 21.878124 84.53333Q21.1125 84.53333 20.659374 84.98646Q20.20625 85.43958 20.190624 86.25208L19.1125 86.14271Q19.221874 84.92396 19.940624 84.29896Q20.675 83.65833 21.909374 83.65833Q23.14375 83.65833 23.8625 84.34583Q24.58125 85.03333 24.58125 86.04896Q24.58125 86.56458 24.3625 87.06458Q24.159374 87.54896 23.659374 88.11146Q23.175 88.65833 22.05 89.61146Q21.096874 90.40833 20.815624 90.70521Q20.55 90.98646 20.378124 91.26771L24.596874 91.26771ZM26.05 88.04896Q26.05 86.51771 26.3625 85.59583Q26.675 84.65833 27.284374 84.15833Q27.909374 83.65833 28.846874 83.65833Q29.534374 83.65833 30.05 83.93958Q30.58125 84.22083 30.925 84.75208Q31.26875 85.26771 31.45625 86.01771Q31.64375 86.76771 31.64375 88.04896Q31.64375 89.56458 31.33125 90.48646Q31.034374 91.40833 30.409374 91.92396Q29.8 92.42396 28.846874 92.42396Q27.6125 92.42396 26.89375 91.53333Q26.05 90.47083 26.05 88.04896ZM27.128124 88.04896Q27.128124 90.15833 27.628124 90.86146Q28.128124 91.56458 28.846874 91.56458Q29.58125 91.56458 30.065624 90.86146Q30.565624 90.15833 30.565624 88.04896Q30.565624 85.92396 30.065624 85.23646Q29.58125 84.53333 28.83125 84.53333Q28.1125 84.53333 27.675 85.14271Q27.128124 85.92396 27.128124 88.04896ZM33.6125 92.28333L33.6125 91.08021L34.815624 91.08021L34.815624 92.28333Q34.815624 92.93958 34.58125 93.34583Q34.346874 93.76771 33.846874 93.98646L33.55 93.53333Q33.878124 93.39271 34.034374 93.09583Q34.190624 92.81458 34.221874 92.28333L33.6125 92.28333ZM36.05 88.04896Q36.05 86.51771 36.3625 85.59583Q36.675 84.65833 37.284374 84.15833Q37.909374 83.65833 38.846874 83.65833Q39.534374 83.65833 40.05 83.93958Q40.58125 84.22083 40.925 84.75208Q41.26875 85.26771 41.45625 86.01771Q41.64375 86.76771 41.64375 88.04896Q41.64375 89.56458 41.33125 90.48646Q41.034374 91.40833 40.409374 91.92396Q39.8 92.42396 38.846874 92.42396Q37.6125 92.42396 36.89375 91.53333Q36.05 90.47083 36.05 88.04896ZM37.128124 88.04896Q37.128124 90.15833 37.628124 90.86146Q38.128124 91.56458 38.846874 91.56458Q39.58125 91.56458 40.065624 90.86146Q40.565624 90.15833 40.565624 88.04896Q40.565624 85.92396 40.065624 85.23646Q39.58125 84.53333 38.83125 84.53333Q38.1125 84.53333 37.675 85.14271Q37.128124 85.92396 37.128124 88.04896ZM43.05 88.04896Q43.05 86.51771 43.3625 85.59583Q43.675 84.65833 44.284374 84.15833Q44.909374 83.65833 45.846874 83.65833Q46.534374 83.65833 47.05 83.93958Q47.58125 84.22083 47.925 84.75208Q48.26875 85.26771 48.45625 86.01771Q48.64375 86.76771 48.64375 88.04896Q48.64375 89.56458 48.33125 90.48646Q48.034374 91.40833 47.409374 91.92396Q46.8 92.42396 45.846874 92.42396Q44.6125 92.42396 43.89375 91.53333Q43.05 90.47083 43.05 88.04896ZM44.128124 88.04896Q44.128124 90.15833 44.628124 90.86146Q45.128124 91.56458 45.846874 91.56458Q46.58125 91.56458 47.065624 90.86146Q47.565624 90.15833 47.565624 88.04896Q47.565624 85.92396 47.065624 85.23646Q46.58125 84.53333 45.83125 84.53333Q45.1125 84.53333 44.675 85.14271Q44.128124 85.92396 44.128124 88.04896ZM50.05 88.04896Q50.05 86.51771 50.3625 85.59583Q50.675 84.65833 51.284374 84.15833Q51.909374 83.65833 52.846874 83.65833Q53.534374 83.65833 54.05 83.93958Q54.58125 84.22083 54.925 84.75208Q55.26875 85.26771 55.45625 86.01771Q55.64375 86.76771 55.64375 88.04896Q55.64375 89.56458 55.33125 90.48646Q55.034374 91.40833 54.409374 91.92396Q53.8 92.42396 52.846874 92.42396Q51.6125 92.42396 50.89375 91.53333Q50.05 90.47083 50.05 88.04896ZM51.128124 88.04896Q51.128124 90.15833 51.628124 90.86146Q52.128124 91.56458 52.846874 91.56458Q53.58125 91.56458 54.065624 90.86146Q54.565624 90.15833 54.565624 88.04896Q54.565624 85.92396 54.065624 85.23646Q53.58125 84.53333 52.83125 84.53333Q52.1125 84.53333 51.675 85.14271Q51.128124 85.92396 51.128124 88.04896ZM57.346874 92.28333L57.346874 86.06458L58.284374 86.06458L58.284374 86.93958Q58.58125 86.47083 59.065624 86.20521Q59.55 85.92396 60.175 85.92396Q60.8625 85.92396 61.3 86.20521Q61.753124 86.48646 61.925 87.00208Q62.675 85.92396 63.846874 85.92396Q64.78438 85.92396 65.26875 86.43958Q65.76875 86.93958 65.76875 88.01771L65.76875 92.28333L64.72188 92.28333L64.72188 88.36146Q64.72188 87.73646 64.6125 87.45521Q64.51875 87.17396 64.25313 87.00208Q63.9875 86.83021 63.6125 86.83021Q62.95625 86.83021 62.51875 87.26771Q62.096874 87.70521 62.096874 88.67396L62.096874 92.28333L61.034374 92.28333L61.034374 88.23646Q61.034374 87.53333 60.76875 87.18958Q60.51875 86.83021 59.940624 86.83021Q59.4875 86.83021 59.1125 87.06458Q58.7375 87.29896 58.565624 87.75208Q58.39375 88.20521 58.39375 89.04896L58.39375 92.28333L57.346874 92.28333ZM67.925 90.42396L68.95625 90.26771Q69.05 90.89271 69.44063 91.22083Q69.84688 91.54896 70.58125 91.54896Q71.3 91.54896 71.64375 91.26771Q72.00313 90.97083 72.00313 90.56458Q72.00313 90.20521 71.69063 90.00208Q71.47188 89.86146 70.6125 89.64271Q69.45625 89.34583 69.00313 89.14271Q68.56563 88.92396 68.33125 88.54896Q68.09688 88.17396 68.09688 87.70521Q68.09688 87.29896 68.28438 86.93958Q68.47188 86.58021 68.8 86.34583Q69.05 86.17396 69.47188 86.04896Q69.89375 85.92396 70.39375 85.92396Q71.1125 85.92396 71.65938 86.14271Q72.22188 86.34583 72.4875 86.70521Q72.75313 87.06458 72.84688 87.65833L71.81563 87.79896Q71.75313 87.33021 71.40938 87.06458Q71.08125 86.78333 70.45625 86.78333Q69.7375 86.78333 69.425 87.03333Q69.1125 87.26771 69.1125 87.59583Q69.1125 87.79896 69.2375 87.95521Q69.37813 88.12708 69.64375 88.23646Q69.8 88.29896 70.58125 88.50208Q71.70625 88.81458 72.14375 89.00208Q72.58125 89.18958 72.83125 89.54896Q73.08125 89.90833 73.08125 90.45521Q73.08125 90.98646 72.76875 91.45521Q72.47188 91.90833 71.89375 92.17396Q71.31563 92.42396 70.58125 92.42396Q69.3625 92.42396 68.72188 91.92396Q68.09688 91.40833 67.925 90.42396Z" fill-rule="nonzero"/><path fill="#000000" d="M123.654015 316.4344L123.654015 317.45L117.966515 317.45Q117.966515 317.075 118.091515 316.71564Q118.310265 316.1375 118.779015 315.575Q119.26339 315.0125 120.16964 314.27814Q121.57589 313.1219 122.060265 312.45Q122.560265 311.77814 122.560265 311.1844Q122.560265 310.5594 122.10714 310.1375Q121.654015 309.7 120.935265 309.7Q120.16964 309.7 119.716515 310.15314Q119.26339 310.60626 119.247765 311.41876L118.16964 311.3094Q118.279015 310.09064 118.997765 309.46564Q119.73214 308.825 120.966515 308.825Q122.20089 308.825 122.91964 309.5125Q123.63839 310.2 123.63839 311.21564Q123.63839 311.73126 123.41964 312.23126Q123.216515 312.71564 122.716515 313.27814Q122.23214 313.825 121.10714 314.77814Q120.154015 315.575 119.872765 315.8719Q119.60714 316.15314 119.435265 316.4344L123.654015 316.4344ZM125.66964 317.45L125.66964 316.2469L126.872765 316.2469L126.872765 317.45Q126.872765 318.10626 126.63839 318.5125Q126.404015 318.9344 125.904015 319.15314L125.60714 318.7Q125.935265 318.5594 126.091515 318.2625Q126.247765 317.98126 126.279015 317.45L125.66964 317.45ZM128.10715 313.21564Q128.10715 311.6844 128.41965 310.7625Q128.73215 309.825 129.34152 309.325Q129.96652 308.825 130.90402 308.825Q131.59152 308.825 132.10715 309.10626Q132.6384 309.3875 132.98215 309.91876Q133.3259 310.4344 133.5134 311.1844Q133.7009 311.9344 133.7009 313.21564Q133.7009 314.73126 133.3884 315.65314Q133.09152 316.575 132.46652 317.09064Q131.85715 317.59064 130.90402 317.59064Q129.66965 317.59064 128.9509 316.7Q128.10715 315.6375 128.10715 313.21564ZM129.18527 313.21564Q129.18527 315.325 129.68527 316.02814Q130.18527 316.73126 130.90402 316.73126Q131.6384 316.73126 132.12277 316.02814Q132.62277 315.325 132.62277 313.21564Q132.62277 311.09064 132.12277 310.40314Q131.6384 309.7 130.8884 309.7Q130.16965 309.7 129.73215 310.3094Q129.18527 311.09064 129.18527 313.21564ZM135.10715 313.21564Q135.10715 311.6844 135.41965 310.7625Q135.73215 309.825 136.34152 309.325Q136.96652 308.825 137.90402 308.825Q138.59152 308.825 139.10715 309.10626Q139.6384 309.3875 139.98215 309.91876Q140.3259 310.4344 140.5134 311.1844Q140.7009 311.9344 140.7009 313.21564Q140.7009 314.73126 140.3884 315.65314Q140.09152 316.575 139.46652 317.09064Q138.85715 317.59064 137.90402 317.59064Q136.66965 317.59064 135.9509 316.7Q135.10715 315.6375 135.10715 313.21564ZM136.18527 313.21564Q136.18527 315.325 136.68527 316.02814Q137.18527 316.73126 137.90402 316.73126Q138.6384 316.73126 139.12277 316.02814Q139.62277 315.325 139.62277 313.21564Q139.62277 311.09064 139.12277 310.40314Q138.6384 309.7 137.8884 309.7Q137.16965 309.7 136.73215 310.3094Q136.18527 311.09064 136.18527 313.21564ZM142.10715 313.21564Q142.10715 311.6844 142.41965 310.7625Q142.73215 309.825 143.34152 309.325Q143.96652 308.825 144.90402 308.825Q145.59152 308.825 146.10715 309.10626Q146.6384 309.3875 146.98215 309.91876Q147.3259 310.4344 147.5134 311.1844Q147.7009 311.9344 147.7009 313.21564Q147.7009 314.73126 147.3884 315.65314Q147.09152 316.575 146.46652 317.09064Q145.85715 317.59064 144.90402 317.59064Q143.66965 317.59064 142.9509 316.7Q142.10715 315.6375 142.10715 313.21564ZM143.18527 313.21564Q143.18527 315.325 143.68527 316.02814Q144.18527 316.73126 144.90402 316.73126Q145.6384 316.73126 146.12277 316.02814Q146.62277 315.325 146.62277 313.21564Q146.62277 311.09064 146.12277 310.40314Q145.6384 309.7 144.8884 309.7Q144.16965 309.7 143.73215 310.3094Q143.18527 311.09064 143.18527 313.21564ZM154.71652 317.45L154.71652 309.8719L151.8884 309.8719L151.8884 308.85626L158.7009 308.85626L158.7009 309.8719L155.85715 309.8719L155.85715 317.45L154.71652 317.45ZM159.40402 310.075L159.40402 308.85626L160.46652 308.85626L160.46652 310.075L159.40402 310.075ZM159.40402 317.45L159.40402 311.23126L160.46652 311.23126L160.46652 317.45L159.40402 317.45ZM162.40402 317.45L162.40402 311.23126L163.34152 311.23126L163.34152 312.10626Q163.6384 311.6375 164.12277 311.3719Q164.60715 311.09064 165.23215 311.09064Q165.91965 311.09064 166.35715 311.3719Q166.81027 311.65314 166.98215 312.16876Q167.73215 311.09064 168.90402 311.09064Q169.84152 311.09064 170.3259 311.60626Q170.8259 312.10626 170.8259 313.1844L170.8259 317.45L169.77902 317.45L169.77902 313.52814Q169.77902 312.90314 169.66965 312.6219Q169.5759 312.34064 169.31027 312.16876Q169.04465 311.9969 168.66965 311.9969Q168.0134 311.9969 167.5759 312.4344Q167.15402 312.8719 167.15402 313.84064L167.15402 317.45L166.09152 317.45L166.09152 313.40314Q166.09152 312.7 165.8259 312.35626Q165.5759 311.9969 164.99777 311.9969Q164.54465 311.9969 164.16965 312.23126Q163.79465 312.46564 163.62277 312.91876Q163.4509 313.3719 163.4509 314.21564L163.4509 317.45L162.40402 317.45ZM177.65402 315.45L178.74777 315.575Q178.49777 316.52814 177.79465 317.0594Q177.09152 317.59064 176.0134 317.59064Q174.65402 317.59064 173.84152 316.7469Q173.04465 315.90314 173.04465 314.3875Q173.04465 312.825 173.85715 311.96564Q174.66965 311.09064 175.9509 311.09064Q177.2009 311.09064 177.98215 311.9344Q178.77902 312.77814 178.77902 314.325Q178.77902 314.41876 178.77902 314.60626L174.1384 314.60626Q174.2009 315.6375 174.71652 316.1844Q175.23215 316.71564 176.0134 316.71564Q176.59152 316.71564 176.99777 316.41876Q177.41965 316.10626 177.65402 315.45ZM174.2009 313.7469L177.66965 313.7469Q177.60715 312.95 177.27902 312.5594Q176.7634 311.95 175.96652 311.95Q175.23215 311.95 174.73215 312.4344Q174.24777 312.91876 174.2009 313.7469ZM179.98215 315.59064L181.0134 315.4344Q181.10715 316.0594 181.49777 316.3875Q181.90402 316.71564 182.6384 316.71564Q183.35715 316.71564 183.7009 316.4344Q184.06027 316.1375 184.06027 315.73126Q184.06027 315.3719 183.74777 315.16876Q183.52902 315.02814 182.66965 314.8094Q181.5134 314.5125 181.06027 314.3094Q180.62277 314.09064 180.3884 313.71564Q180.15402 313.34064 180.15402 312.8719Q180.15402 312.46564 180.34152 312.10626Q180.52902 311.7469 180.85715 311.5125Q181.10715 311.34064 181.52902 311.21564Q181.9509 311.09064 182.4509 311.09064Q183.16965 311.09064 183.71652 311.3094Q184.27902 311.5125 184.54465 311.8719Q184.81027 312.23126 184.90402 312.825L183.87277 312.96564Q183.81027 312.4969 183.46652 312.23126Q183.1384 311.95 182.5134 311.95Q181.79465 311.95 181.48215 312.2Q181.16965 312.4344 181.16965 312.7625Q181.16965 312.96564 181.29465 313.1219Q181.43527 313.29376 181.7009 313.40314Q181.85715 313.46564 182.6384 313.66876Q183.7634 313.98126 184.2009 314.16876Q184.6384 314.35626 184.8884 314.71564Q185.1384 315.075 185.1384 315.6219Q185.1384 316.15314 184.8259 316.6219Q184.52902 317.075 183.9509 317.34064Q183.37277 317.59064 182.6384 317.59064Q181.41965 317.59064 180.77902 317.09064Q180.15402 316.575 179.98215 315.59064Z" fill-rule="nonzero"/><path fill="#000000" d="M264.59644 317.45L264.59644 315.3875L260.8777 315.3875L260.8777 314.41876L264.79956 308.85626L265.65894 308.85626L265.65894 314.41876L266.8152 314.41876L266.8152 315.3875L265.65894 315.3875L265.65894 317.45L264.59644 317.45ZM264.59644 314.41876L264.59644 310.5594L261.90894 314.41876L264.59644 314.41876ZM268.78394 317.45L268.78394 316.2469L269.98706 316.2469L269.98706 317.45Q269.98706 318.10626 269.7527 318.5125Q269.5183 318.9344 269.0183 319.15314L268.72144 318.7Q269.04956 318.5594 269.2058 318.2625Q269.36206 317.98126 269.3933 317.45L268.78394 317.45ZM271.22144 313.21564Q271.22144 311.6844 271.53394 310.7625Q271.84644 309.825 272.4558 309.325Q273.0808 308.825 274.0183 308.825Q274.7058 308.825 275.22144 309.10626Q275.7527 309.3875 276.09644 309.91876Q276.4402 310.4344 276.6277 311.1844Q276.8152 311.9344 276.8152 313.21564Q276.8152 314.73126 276.5027 315.65314Q276.2058 316.575 275.5808 317.09064Q274.97144 317.59064 274.0183 317.59064Q272.78394 317.59064 272.0652 316.7Q271.22144 315.6375 271.22144 313.21564ZM272.29956 313.21564Q272.29956 315.325 272.79956 316.02814Q273.29956 316.73126 274.0183 316.73126Q274.7527 316.73126 275.23706 316.02814Q275.73706 315.325 275.73706 313.21564Q275.73706 311.09064 275.23706 310.40314Q274.7527 309.7 274.0027 309.7Q273.28394 309.7 272.84644 310.3094Q272.29956 311.09064 272.29956 313.21564ZM278.22144 313.21564Q278.22144 311.6844 278.53394 310.7625Q278.84644 309.825 279.4558 309.325Q280.0808 308.825 281.0183 308.825Q281.7058 308.825 282.22144 309.10626Q282.7527 309.3875 283.09644 309.91876Q283.4402 310.4344 283.6277 311.1844Q283.8152 311.9344 283.8152 313.21564Q283.8152 314.73126 283.5027 315.65314Q283.2058 316.575 282.5808 317.09064Q281.97144 317.59064 281.0183 317.59064Q279.78394 317.59064 279.0652 316.7Q278.22144 315.6375 278.22144 313.21564ZM279.29956 313.21564Q279.29956 315.325 279.79956 316.02814Q280.29956 316.73126 281.0183 316.73126Q281.7527 316.73126 282.23706 316.02814Q282.73706 315.325 282.73706 313.21564Q282.73706 311.09064 282.23706 310.40314Q281.7527 309.7 281.0027 309.7Q280.28394 309.7 279.84644 310.3094Q279.29956 311.09064 279.29956 313.21564ZM285.22144 313.21564Q285.22144 311.6844 285.53394 310.7625Q285.84644 309.825 286.4558 309.325Q287.0808 308.825 288.0183 308.825Q288.7058 308.825 289.22144 309.10626Q289.7527 309.3875 290.09644 309.91876Q290.4402 310.4344 290.6277 311.1844Q290.8152 311.9344 290.8152 313.21564Q290.8152 314.73126 290.5027 315.65314Q290.2058 316.575 289.5808 317.09064Q288.97144 317.59064 288.0183 317.59064Q286.78394 317.59064 286.0652 316.7Q285.22144 315.6375 285.22144 313.21564ZM286.29956 313.21564Q286.29956 315.325 286.79956 316.02814Q287.29956 316.73126 288.0183 316.73126Q288.7527 316.73126 289.23706 316.02814Q289.73706 315.325 289.73706 313.21564Q289.73706 311.09064 289.23706 310.40314Q288.7527 309.7 288.0027 309.7Q287.28394 309.7 286.84644 310.3094Q286.29956 311.09064 286.29956 313.21564ZM297.8308 317.45L297.8308 309.8719L295.0027 309.8719L295.0027 308.85626L301.8152 308.85626L301.8152 309.8719L298.97144 309.8719L298.97144 317.45L297.8308 317.45ZM302.5183 310.075L302.5183 308.85626L303.5808 308.85626L303.5808 310.075L302.5183 310.075ZM302.5183 317.45L302.5183 311.23126L303.5808 311.23126L303.5808 317.45L302.5183 317.45ZM305.5183 317.45L305.5183 311.23126L306.4558 311.23126L306.4558 312.10626Q306.7527 311.6375 307.23706 311.3719Q307.72144 311.09064 308.34644 311.09064Q309.03394 311.09064 309.47144 311.3719Q309.92456 311.65314 310.09644 312.16876Q310.84644 311.09064 312.0183 311.09064Q312.9558 311.09064 313.4402 311.60626Q313.9402 312.10626 313.9402 313.1844L313.9402 317.45L312.8933 317.45L312.8933 313.52814Q312.8933 312.90314 312.78394 312.6219Q312.6902 312.34064 312.42456 312.16876Q312.15894 311.9969 311.78394 311.9969Q311.1277 311.9969 310.6902 312.4344Q310.2683 312.8719 310.2683 313.84064L310.2683 317.45L309.2058 317.45L309.2058 313.40314Q309.2058 312.7 308.9402 312.35626Q308.6902 311.9969 308.11206 311.9969Q307.65894 311.9969 307.28394 312.23126Q306.90894 312.46564 306.73706 312.91876Q306.5652 313.3719 306.5652 314.21564L306.5652 317.45L305.5183 317.45ZM320.7683 315.45L321.86206 315.575Q321.61206 316.52814 320.90894 317.0594Q320.2058 317.59064 319.1277 317.59064Q317.7683 317.59064 316.9558 316.7469Q316.15894 315.90314 316.15894 314.3875Q316.15894 312.825 316.97144 311.96564Q317.78394 311.09064 319.0652 311.09064Q320.3152 311.09064 321.09644 311.9344Q321.8933 312.77814 321.8933 314.325Q321.8933 314.41876 321.8933 314.60626L317.2527 314.60626Q317.3152 315.6375 317.8308 316.1844Q318.34644 316.71564 319.1277 316.71564Q319.7058 316.71564 320.11206 316.41876Q320.53394 316.10626 320.7683 315.45ZM317.3152 313.7469L320.78394 313.7469Q320.72144 312.95 320.3933 312.5594Q319.8777 311.95 319.0808 311.95Q318.34644 311.95 317.84644 312.4344Q317.36206 312.91876 317.3152 313.7469ZM323.09644 315.59064L324.1277 315.4344Q324.22144 316.0594 324.61206 316.3875Q325.0183 316.71564 325.7527 316.71564Q326.47144 316.71564 326.8152 316.4344Q327.17456 316.1375 327.17456 315.73126Q327.17456 315.3719 326.86206 315.16876Q326.6433 315.02814 325.78394 314.8094Q324.6277 314.5125 324.17456 314.3094Q323.73706 314.09064 323.5027 313.71564Q323.2683 313.34064 323.2683 312.8719Q323.2683 312.46564 323.4558 312.10626Q323.6433 311.7469 323.97144 311.5125Q324.22144 311.34064 324.6433 311.21564Q325.0652 311.09064 325.5652 311.09064Q326.28394 311.09064 326.8308 311.3094Q327.3933 311.5125 327.65894 311.8719Q327.92456 312.23126 328.0183 312.825L326.98706 312.96564Q326.92456 312.4969 326.5808 312.23126Q326.2527 311.95 325.6277 311.95Q324.90894 311.95 324.59644 312.2Q324.28394 312.4344 324.28394 312.7625Q324.28394 312.96564 324.40894 313.1219Q324.54956 313.29376 324.8152 313.40314Q324.97144 313.46564 325.7527 313.66876Q326.8777 313.98126 327.3152 314.16876Q327.7527 314.35626 328.0027 314.71564Q328.2527 315.075 328.2527 315.6219Q328.2527 316.15314 327.9402 316.6219Q327.6433 317.075 327.0652 317.34064Q326.48706 317.59064 325.7527 317.59064Q324.53394 317.59064 323.8933 317.09064Q323.2683 316.575 323.09644 315.59064Z" fill-rule="nonzero"/><path fill="#000000" d="M409.80447 310.96564L408.7576 311.04376Q408.61697 310.41876 408.36697 310.1375Q407.92947 309.6844 407.30447 309.6844Q406.80447 309.6844 406.41385 309.96564Q405.92947 310.34064 405.6326 311.04376Q405.35135 311.73126 405.33572 313.0125Q405.71072 312.4344 406.2576 312.15314Q406.8201 311.8719 407.42947 311.8719Q408.47635 311.8719 409.21072 312.65314Q409.96072 313.4344 409.96072 314.65314Q409.96072 315.46564 409.60135 316.16876Q409.2576 316.85626 408.64822 317.23126Q408.03885 317.59064 407.27322 317.59064Q405.9451 317.59064 405.11697 316.6219Q404.28885 315.65314 404.28885 313.4344Q404.28885 310.9344 405.21072 309.8094Q406.0076 308.825 407.36697 308.825Q408.3826 308.825 409.02322 309.40314Q409.67947 309.96564 409.80447 310.96564ZM405.5076 314.66876Q405.5076 315.21564 405.72635 315.71564Q405.96072 316.2 406.36697 316.46564Q406.78885 316.73126 407.2576 316.73126Q407.91385 316.73126 408.39822 316.2Q408.8826 315.65314 408.8826 314.73126Q408.8826 313.84064 408.39822 313.325Q407.92947 312.8094 407.21072 312.8094Q406.49197 312.8094 405.99197 313.325Q405.5076 313.84064 405.5076 314.66876ZM411.89822 317.45L411.89822 316.2469L413.10135 316.2469L413.10135 317.45Q413.10135 318.10626 412.86697 318.5125Q412.6326 318.9344 412.1326 319.15314L411.83572 318.7Q412.16385 318.5594 412.3201 318.2625Q412.47635 317.98126 412.5076 317.45L411.89822 317.45ZM414.33572 313.21564Q414.33572 311.6844 414.64822 310.7625Q414.96072 309.825 415.5701 309.325Q416.1951 308.825 417.1326 308.825Q417.8201 308.825 418.33572 309.10626Q418.86697 309.3875 419.21072 309.91876Q419.55447 310.4344 419.74197 311.1844Q419.92947 311.9344 419.92947 313.21564Q419.92947 314.73126 419.61697 315.65314Q419.3201 316.575 418.6951 317.09064Q418.08572 317.59064 417.1326 317.59064Q415.89822 317.59064 415.17947 316.7Q414.33572 315.6375 414.33572 313.21564ZM415.41385 313.21564Q415.41385 315.325 415.91385 316.02814Q416.41385 316.73126 417.1326 316.73126Q417.86697 316.73126 418.35135 316.02814Q418.85135 315.325 418.85135 313.21564Q418.85135 311.09064 418.35135 310.40314Q417.86697 309.7 417.11697 309.7Q416.39822 309.7 415.96072 310.3094Q415.41385 311.09064 415.41385 313.21564ZM421.33572 313.21564Q421.33572 311.6844 421.64822 310.7625Q421.96072 309.825 422.5701 309.325Q423.1951 308.825 424.1326 308.825Q424.8201 308.825 425.33572 309.10626Q425.86697 309.3875 426.21072 309.91876Q426.55447 310.4344 426.74197 311.1844Q426.92947 311.9344 426.92947 313.21564Q426.92947 314.73126 426.61697 315.65314Q426.3201 316.575 425.6951 317.09064Q425.08572 317.59064 424.1326 317.59064Q422.89822 317.59064 422.17947 316.7Q421.33572 315.6375 421.33572 313.21564ZM422.41385 313.21564Q422.41385 315.325 422.91385 316.02814Q423.41385 316.73126 424.1326 316.73126Q424.86697 316.73126 425.35135 316.02814Q425.85135 315.325 425.85135 313.21564Q425.85135 311.09064 425.35135 310.40314Q424.86697 309.7 424.11697 309.7Q423.39822 309.7 422.96072 310.3094Q422.41385 311.09064 422.41385 313.21564ZM428.33572 313.21564Q428.33572 311.6844 428.64822 310.7625Q428.96072 309.825 429.5701 309.325Q430.1951 308.825 431.1326 308.825Q431.8201 308.825 432.33572 309.10626Q432.86697 309.3875 433.21072 309.91876Q433.55447 310.4344 433.74197 311.1844Q433.92947 311.9344 433.92947 313.21564Q433.92947 314.73126 433.61697 315.65314Q433.3201 316.575 432.6951 317.09064Q432.08572 317.59064 431.1326 317.59064Q429.89822 317.59064 429.17947 316.7Q428.33572 315.6375 428.33572 313.21564ZM429.41385 313.21564Q429.41385 315.325 429.91385 316.02814Q430.41385 316.73126 431.1326 316.73126Q431.86697 316.73126 432.35135 316.02814Q432.85135 315.325 432.85135 313.21564Q432.85135 311.09064 432.35135 310.40314Q431.86697 309.7 431.11697 309.7Q430.39822 309.7 429.96072 310.3094Q429.41385 311.09064 429.41385 313.21564ZM440.9451 317.45L440.9451 309.8719L438.11697 309.8719L438.11697 308.85626L444.92947 308.85626L444.92947 309.8719L442.08572 309.8719L442.08572 317.45L440.9451 317.45ZM445.6326 310.075L445.6326 308.85626L446.6951 308.85626L446.6951 310.075L445.6326 310.075ZM445.6326 317.45L445.6326 311.23126L446.6951 311.23126L446.6951 317.45L445.6326 317.45ZM448.6326 317.45L448.6326 311.23126L449.5701 311.23126L449.5701 312.10626Q449.86697 311.6375 450.35135 311.3719Q450.83572 311.09064 451.46072 311.09064Q452.14822 311.09064 452.58572 311.3719Q453.03885 311.65314 453.21072 312.16876Q453.96072 311.09064 455.1326 311.09064Q456.0701 311.09064 456.55447 311.60626Q457.05447 312.10626 457.05447 313.1844L457.05447 317.45L456.0076 317.45L456.0076 313.52814Q456.0076 312.90314 455.89822 312.6219Q455.80447 312.34064 455.53885 312.16876Q455.27322 311.9969 454.89822 311.9969Q454.24197 311.9969 453.80447 312.4344Q453.3826 312.8719 453.3826 313.84064L453.3826 317.45L452.3201 317.45L452.3201 313.40314Q452.3201 312.7 452.05447 312.35626Q451.80447 311.9969 451.22635 311.9969Q450.77322 311.9969 450.39822 312.23126Q450.02322 312.46564 449.85135 312.91876Q449.67947 313.3719 449.67947 314.21564L449.67947 317.45L448.6326 317.45ZM463.8826 315.45L464.97635 315.575Q464.72635 316.52814 464.02322 317.0594Q463.3201 317.59064 462.24197 317.59064Q460.8826 317.59064 460.0701 316.7469Q459.27322 315.90314 459.27322 314.3875Q459.27322 312.825 460.08572 311.96564Q460.89822 311.09064 462.17947 311.09064Q463.42947 311.09064 464.21072 311.9344Q465.0076 312.77814 465.0076 314.325Q465.0076 314.41876 465.0076 314.60626L460.36697 314.60626Q460.42947 315.6375 460.9451 316.1844Q461.46072 316.71564 462.24197 316.71564Q462.8201 316.71564 463.22635 316.41876Q463.64822 316.10626 463.8826 315.45ZM460.42947 313.7469L463.89822 313.7469Q463.83572 312.95 463.5076 312.5594Q462.99197 311.95 462.1951 311.95Q461.46072 311.95 460.96072 312.4344Q460.47635 312.91876 460.42947 313.7469ZM466.21072 315.59064L467.24197 315.4344Q467.33572 316.0594 467.72635 316.3875Q468.1326 316.71564 468.86697 316.71564Q469.58572 316.71564 469.92947 316.4344Q470.28885 316.1375 470.28885 315.73126Q470.28885 315.3719 469.97635 315.16876Q469.7576 315.02814 468.89822 314.8094Q467.74197 314.5125 467.28885 314.3094Q466.85135 314.09064 466.61697 313.71564Q466.3826 313.34064 466.3826 312.8719Q466.3826 312.46564 466.5701 312.10626Q466.7576 311.7469 467.08572 311.5125Q467.33572 311.34064 467.7576 311.21564Q468.17947 311.09064 468.67947 311.09064Q469.39822 311.09064 469.9451 311.3094Q470.5076 311.5125 470.77322 311.8719Q471.03885 312.23126 471.1326 312.825L470.10135 312.96564Q470.03885 312.4969 469.6951 312.23126Q469.36697 311.95 468.74197 311.95Q468.02322 311.95 467.71072 312.2Q467.39822 312.4344 467.39822 312.7625Q467.39822 312.96564 467.52322 313.1219Q467.66385 313.29376 467.92947 313.40314Q468.08572 313.46564 468.86697 313.66876Q469.99197 313.98126 470.42947 314.16876Q470.86697 314.35626 471.11697 314.71564Q471.36697 315.075 471.36697 315.6219Q471.36697 316.15314 471.05447 316.6219Q470.7576 317.075 470.17947 317.34064Q469.60135 317.59064 468.86697 317.59064Q467.64822 317.59064 467.0076 317.09064Q466.3826 316.575 466.21072 315.59064Z" fill-rule="nonzero"/><path stroke="#4285f4" stroke-width="4.0" stroke-linecap="butt" d="M245.5 61.916668L257.5 61.916668" fill-rule="nonzero"/><path fill="#1a1a1a" d="M265.84375 63.479164L266.875 63.33854Q266.90625 64.322914 267.23438 64.68229Q267.5625 65.041664 268.15625 65.041664Q268.57812 65.041664 268.89062 64.854164Q269.20312 64.65104 269.3125 64.322914Q269.4375 63.979164 269.4375 63.24479L269.4375 57.322914L270.5625 57.322914L270.5625 63.18229Q270.5625 64.260414 270.29688 64.854164Q270.04688 65.447914 269.48438 65.760414Q268.92188 66.05729 268.15625 66.05729Q267.03125 66.05729 266.42188 65.416664Q265.82812 64.760414 265.84375 63.479164ZM272.04688 63.15104L273.10938 63.05729Q273.1875 63.71354 273.46875 64.11979Q273.75 64.52604 274.32812 64.791664Q274.92188 65.041664 275.65625 65.041664Q276.29688 65.041664 276.79688 64.854164Q277.29688 64.65104 277.53125 64.322914Q277.78125 63.979164 277.78125 63.58854Q277.78125 63.18229 277.54688 62.885414Q277.3125 62.572914 276.78125 62.36979Q276.42188 62.229164 275.23438 61.947914Q274.0625 61.666664 273.59375 61.416664Q272.96875 61.08854 272.67188 60.61979Q272.375 60.135414 272.375 59.541664Q272.375 58.90104 272.73438 58.33854Q273.10938 57.760414 273.8125 57.479164Q274.53125 57.18229 275.39062 57.18229Q276.34375 57.18229 277.07812 57.49479Q277.8125 57.791664 278.20312 58.40104Q278.59375 58.99479 278.625 59.74479L277.53125 59.822914Q277.4375 59.010414 276.92188 58.604164Q276.42188 58.18229 275.4375 58.18229Q274.40625 58.18229 273.9375 58.55729Q273.46875 58.93229 273.46875 59.46354Q273.46875 59.93229 273.79688 60.229164Q274.125 60.52604 275.5 60.83854Q276.89062 61.15104 277.40625 61.385414Q278.15625 61.74479 278.51562 62.27604Q278.875 62.791664 278.875 63.49479Q278.875 64.18229 278.48438 64.791664Q278.09375 65.385414 277.35938 65.729164Q276.625 66.05729 275.70312 66.05729Q274.53125 66.05729 273.73438 65.729164Q272.95312 65.385414 272.5 64.697914Q272.0625 64.010414 272.04688 63.15104ZM280.07812 61.729164Q280.07812 59.58854 281.21875 58.385414Q282.375 57.166664 284.1875 57.166664Q285.39062 57.166664 286.34375 57.74479Q287.29688 58.30729 287.79688 59.322914Q288.29688 60.33854 288.29688 61.635414Q288.29688 62.93229 287.76562 63.96354Q287.23438 64.99479 286.26562 65.52604Q285.3125 66.05729 284.1875 66.05729Q282.96875 66.05729 282.01562 65.479164Q281.0625 64.885414 280.5625 63.885414Q280.07812 62.86979 280.07812 61.729164ZM281.25 61.74479Q281.25 63.30729 282.07812 64.197914Q282.92188 65.08854 284.1875 65.08854Q285.46875 65.08854 286.29688 64.197914Q287.125 63.291664 287.125 61.61979Q287.125 60.572914 286.76562 59.791664Q286.42188 59.010414 285.73438 58.58854Q285.04688 58.15104 284.20312 58.15104Q283.0 58.15104 282.125 58.979164Q281.25 59.80729 281.25 61.74479ZM289.42188 65.916664L289.42188 57.322914L290.57812 57.322914L295.09375 64.072914L295.09375 57.322914L296.1875 57.322914L296.1875 65.916664L295.01562 65.916664L290.5 59.166664L290.5 65.916664L289.42188 65.916664Z" fill-rule="nonzero"/><path stroke="#ea4335" stroke-width="4.0" stroke-linecap="butt" d="M313.5 61.916668L325.5 61.916668" fill-rule="nonzero"/><path fill="#1a1a1a" d="M334.375 65.916664L334.375 57.322914L335.51562 57.322914L335.51562 61.58854L339.78125 57.322914L341.32812 57.322914L337.71875 60.80729L341.48438 65.916664L339.98438 65.916664L336.92188 61.572914L335.51562 62.93229L335.51562 65.916664L334.375 65.916664ZM342.26562 65.916664L342.26562 57.322914L343.32812 57.322914L343.32812 65.916664L342.26562 65.916664ZM349.35938 65.15104Q348.76562 65.65104 348.21875 65.854164Q347.6875 66.05729 347.0625 66.05729Q346.03125 66.05729 345.48438 65.55729Q344.9375 65.05729 344.9375 64.27604Q344.9375 63.822914 345.14062 63.447914Q345.34375 63.05729 345.6875 62.83854Q346.03125 62.604164 346.45312 62.49479Q346.75 62.40104 347.39062 62.322914Q348.65625 62.18229 349.26562 61.96354Q349.26562 61.74479 349.26562 61.697914Q349.26562 61.041664 348.96875 60.77604Q348.5625 60.43229 347.76562 60.43229Q347.03125 60.43229 346.67188 60.697914Q346.3125 60.947914 346.14062 61.604164L345.10938 61.46354Q345.25 60.80729 345.57812 60.40104Q345.90625 59.99479 346.51562 59.77604Q347.125 59.55729 347.92188 59.55729Q348.71875 59.55729 349.21875 59.74479Q349.71875 59.93229 349.95312 60.21354Q350.1875 60.49479 350.28125 60.93229Q350.32812 61.197914 350.32812 61.90104L350.32812 63.30729Q350.32812 64.77604 350.39062 65.166664Q350.46875 65.55729 350.67188 65.916664L349.5625 65.916664Q349.40625 65.58854 349.35938 65.15104ZM349.26562 62.791664Q348.6875 63.02604 347.54688 63.197914Q346.89062 63.291664 346.625 63.416664Q346.35938 63.52604 346.20312 63.74479Q346.0625 63.96354 346.0625 64.24479Q346.0625 64.666664 346.375 64.947914Q346.70312 65.229164 347.3125 65.229164Q347.92188 65.229164 348.39062 64.96354Q348.875 64.697914 349.09375 64.229164Q349.26562 63.86979 349.26562 63.18229L349.26562 62.791664ZM352.54688 65.916664L352.54688 60.510414L351.60938 60.510414L351.60938 59.697914L352.54688 59.697914L352.54688 59.02604Q352.54688 58.40104 352.65625 58.104164Q352.8125 57.68229 353.1875 57.43229Q353.57812 57.18229 354.26562 57.18229Q354.71875 57.18229 355.25 57.291664L355.09375 58.197914Q354.76562 58.15104 354.46875 58.15104Q353.98438 58.15104 353.78125 58.354164Q353.59375 58.55729 353.59375 59.11979L353.59375 59.697914L354.8125 59.697914L354.8125 60.510414L353.59375 60.510414L353.59375 65.916664L352.54688 65.916664Z" fill-rule="nonzero"/><path fill="#757575" d="M19.128124 33.4875L20.83125 33.253124Q20.909374 34.89375 21.45625 35.503124Q22.003124 36.096874 22.971874 36.096874Q23.675 36.096874 24.190624 35.784374Q24.70625 35.45625 24.89375 34.89375Q25.096874 34.33125 25.096874 33.096874L25.096874 23.2375L27.003124 23.2375L27.003124 32.9875Q27.003124 34.784374 26.565624 35.76875Q26.128124 36.753124 25.175 37.284374Q24.2375 37.8 22.971874 37.8Q21.096874 37.8 20.08125 36.721874Q19.08125 35.628124 19.128124 33.4875ZM29.45625 32.95625L31.2375 32.8Q31.3625 33.8625 31.815624 34.55Q32.284374 35.2375 33.253124 35.675Q34.2375 36.096874 35.471874 36.096874Q36.55 36.096874 37.378124 35.784374Q38.20625 35.45625 38.6125 34.89375Q39.01875 34.33125 39.01875 33.659374Q39.01875 32.9875 38.628124 32.4875Q38.2375 31.9875 37.346874 31.64375Q36.76875 31.409374 34.784374 30.940624Q32.815624 30.471874 32.034374 30.05Q31.003124 29.51875 30.503124 28.721874Q30.003124 27.925 30.003124 26.940624Q30.003124 25.846874 30.6125 24.909374Q31.221874 23.971874 32.409374 23.4875Q33.596874 22.9875 35.034374 22.9875Q36.628124 22.9875 37.846874 23.503124Q39.065624 24.01875 39.70625 25.01875Q40.3625 26.003124 40.409374 27.26875L38.596874 27.409374Q38.45625 26.05 37.6125 25.3625Q36.76875 24.659374 35.1125 24.659374Q33.39375 24.659374 32.596874 25.3Q31.815624 25.925 31.815624 26.8Q31.815624 27.58125 32.378124 28.08125Q32.925 28.58125 35.2375 29.096874Q37.55 29.6125 38.409374 30.003124Q39.659374 30.58125 40.253124 31.471874Q40.846874 32.346874 40.846874 33.503124Q40.846874 34.64375 40.190624 35.659374Q39.534374 36.675 38.3 37.2375Q37.08125 37.8 35.55 37.8Q33.6125 37.8 32.3 37.2375Q30.9875 36.659374 30.2375 35.51875Q29.4875 34.378124 29.45625 32.95625ZM42.51875 30.58125Q42.51875 27.01875 44.425 25.003124Q46.346874 22.971874 49.378124 22.971874Q51.3625 22.971874 52.940624 23.925Q54.534374 24.878124 55.3625 26.58125Q56.20625 28.26875 56.20625 30.409374Q56.20625 32.58125 55.33125 34.3Q54.45625 36.01875 52.83125 36.909374Q51.221874 37.8 49.3625 37.8Q47.346874 37.8 45.753124 36.83125Q44.159374 35.846874 43.33125 34.159374Q42.51875 32.45625 42.51875 30.58125ZM44.471874 30.6125Q44.471874 33.190624 45.8625 34.690624Q47.253124 36.175 49.346874 36.175Q51.4875 36.175 52.8625 34.675Q54.253124 33.159374 54.253124 30.39375Q54.253124 28.659374 53.659374 27.3625Q53.08125 26.05 51.940624 25.33125Q50.8 24.6125 49.378124 24.6125Q47.378124 24.6125 45.925 26.003124Q44.471874 27.378124 44.471874 30.6125ZM59.08125 37.55L59.08125 23.2375L61.01875 23.2375L68.53438 34.471874L68.53438 23.2375L70.34688 23.2375L70.34688 37.55L68.40938 37.55L60.89375 26.3L60.89375 37.55L59.08125 37.55ZM72.33125 37.55L72.33125 35.55L74.33125 35.55L74.33125 37.55Q74.33125 38.659374 73.94063 39.33125Q73.55 40.01875 72.70625 40.378124L72.20625 39.628124Q72.76875 39.39375 73.03438 38.909374Q73.3 38.440624 73.33125 37.55L72.33125 37.55ZM84.01875 37.55L84.01875 23.2375L85.90938 23.2375L85.90938 30.33125L93.01875 23.2375L95.58125 23.2375L89.58125 29.034374L95.84688 37.55L93.34688 37.55L88.25313 30.3L85.90938 32.58125L85.90938 37.55L84.01875 37.55ZM96.83125 37.55L96.83125 23.2375L98.58125 23.2375L98.58125 37.55L96.83125 37.55ZM107.64375 36.26875Q106.65938 37.096874 105.75313 37.440624Q104.84688 37.784374 103.81563 37.784374Q102.1125 37.784374 101.19063 36.95625Q100.26875 36.1125 100.26875 34.815624Q100.26875 34.05 100.6125 33.425Q100.97188 32.8 101.53438 32.425Q102.09688 32.034374 102.8 31.83125Q103.31563 31.70625 104.3625 31.565624Q106.4875 31.315624 107.4875 30.971874Q107.50313 30.6125 107.50313 30.503124Q107.50313 29.440624 107.00313 28.9875Q106.33125 28.39375 105.00313 28.39375Q103.75313 28.39375 103.15938 28.83125Q102.58125 29.26875 102.3 30.378124L100.58125 30.14375Q100.81563 29.034374 101.34688 28.3625Q101.87813 27.675 102.89375 27.315624Q103.90938 26.940624 105.25313 26.940624Q106.58125 26.940624 107.40938 27.253124Q108.2375 27.565624 108.62813 28.05Q109.01875 28.51875 109.175 29.2375Q109.26875 29.690624 109.26875 30.8625L109.26875 33.20625Q109.26875 35.659374 109.37813 36.315624Q109.4875 36.95625 109.83125 37.55L107.9875 37.55Q107.72188 37.003124 107.64375 36.26875ZM107.4875 32.346874Q106.53438 32.7375 104.6125 33.003124Q103.53438 33.159374 103.08125 33.3625Q102.64375 33.55 102.39375 33.925Q102.14375 34.3 102.14375 34.76875Q102.14375 35.471874 102.675 35.940624Q103.20625 36.409374 104.2375 36.409374Q105.25313 36.409374 106.03438 35.971874Q106.83125 35.51875 107.20625 34.753124Q107.4875 34.14375 107.4875 32.9875L107.4875 32.346874ZM112.28438 37.55L112.28438 28.55L110.7375 28.55L110.7375 27.175L112.28438 27.175L112.28438 26.08125Q112.28438 25.034374 112.47188 24.51875Q112.72188 23.83125 113.3625 23.409374Q114.00313 22.9875 115.15938 22.9875Q115.90938 22.9875 116.8 23.159374L116.53438 24.690624Q115.9875 24.596874 115.50313 24.596874Q114.70625 24.596874 114.3625 24.940624Q114.03438 25.284374 114.03438 26.221874L114.03438 27.175L116.06563 27.175L116.06563 28.55L114.03438 28.55L114.03438 37.55L112.28438 37.55Z" fill-rule="nonzero"/></svg>