<svg version="1.1" style="font-family: Roboto; font-size: 12px;" xmlns="http://www.w3.org/2000/svg" width="650" height="400" viewBox="0 0 650 400" aria-hidden="false" aria-label="Interactive chart"><defs aria-hidden="true"><clipPath ><rect x="0" y="0" width="597" height="279" fill="none"></rect></clipPath><clipPath ><rect x="0" y="0" width="597" height="279" fill="none"></rect></clipPath></defs><rect fill="#ffffff" x="0" y="0" width="650" height="400" rx="0" ry="0" aria-hidden="true"></rect><rect fill="none" x="43" y="47" width="597" height="279" aria-hidden="true"></rect><g data-z-index="0" aria-hidden="true"></g><rect fill="none" data-z-index="1" x="43" y="47" width="597" height="279" aria-hidden="true"></rect><g data-z-index="1" aria-hidden="true"><path fill="none" stroke-dasharray="none" data-z-index="1" d="M 161.5 47 L 161.5 326" opacity="1"></path><path fill="none" stroke-dasharray="none" data-z-index="1" d="M 281.5 47 L 281.5 326" opacity="1"></path><path fill="none" stroke-dasharray="none" data-z-index="1" d="M 400.5 47 L 400.5 326" opacity="1"></path><path fill="none" stroke-dasharray="none" data-z-index="1" d="M 520.5 47 L 520.5 326" opacity="1"></path><path fill="none" stroke-dasharray="none" data-z-index="1" d="M 639.5 47 L 639.5 326" opacity="1"></path><path fill="none" stroke-dasharray="none" data-z-index="1" d="M 42.5 47 L 42.5 326" opacity="1"></path></g><g data-z-index="1" aria-hidden="true"><path fill="none" stroke="#e6e6e6" stroke-width="1" stroke-dasharray="none" data-z-index="1" d="M 43 326.5 L 640 326.5" opacity="1"></path><path fill="none" stroke="#e6e6e6" stroke-width="1" stroke-dasharray="none" data-z-index="1" d="M 43 270.5 L 640 270.5" opacity="1"></path><path fill="none" stroke="#e6e6e6" stroke-width="1" stroke-dasharray="none" data-z-index="1" d="M 43 214.5 L 640 214.5" opacity="1"></path><path fill="none" stroke="#e6e6e6" stroke-width="1" stroke-dasharray="none" data-z-index="1" d="M 43 159.5 L 640 159.5" opacity="1"></path><path fill="none" stroke="#e6e6e6" stroke-width="1" stroke-dasharray="none" data-z-index="1" d="M 43 103.5 L 640 103.5" opacity="1"></path><path fill="none" stroke="#e6e6e6" stroke-width="1" stroke-dasharray="none" data-z-index="1" d="M 43 46.5 L 640 46.5" opacity="1"></path></g><g data-z-index="2" aria-hidden="true"><path fill="none" stroke="#ccd6eb" stroke-width="1" data-z-index="7" d="M 43 326.5 L 640 326.5"></path></g><g data-z-index="2" aria-hidden="true"><path fill="none" data-z-index="7" d="M 43 47 L 43 326"></path></g><g data-z-index="3" aria-hidden="false"><g data-z-index="0.1" opacity="1" transform="translate(43,47) scale(1 1)" clip-path="url(#highcharts-2ahtmys-475-)" aria-hidden="true"><path fill="none" d="M 59.7 273.34188 C 59.7 273.34188 131.33999999999997 271.92456 179.1 266.724 C 226.85999999999999 261.52344 250.74 261.994392 298.5 247.33908 C 346.26 232.683768 370.14 239.139828 417.9 193.44744 C 465.65999999999997 147.755052 537.3 18.877139999999997 537.3 18.877139999999997" data-z-index="1" stroke="#6f58e9" stroke-width="2" stroke-linejoin="round" stroke-linecap="round"></path><path fill="none" d="M 59.7 273.34188 C 59.7 273.34188 131.33999999999997 271.92456 179.1 266.724 C 226.85999999999999 261.52344 250.74 261.994392 298.5 247.33908 C 346.26 232.683768 370.14 239.139828 417.9 193.44744 C 465.65999999999997 147.755052 537.3 18.877139999999997 537.3 18.877139999999997" data-z-index="2" stroke-linecap="round" stroke-linejoin="round" stroke="rgba(192,192,192,0.0001)" stroke-width="22" style="cursor: pointer;"></path></g><g data-z-index="0.1" opacity="1" transform="translate(43,47) scale(1 1)" clip-path="none" style="cursor: pointer; outline: none;" aria-hidden="false" role="region" tabindex="-1" aria-label="JSON, line 1 of 2 with 5 data points."><path fill="#6f58e9" d="M 417 193.44744 A 0 0 0 1 1 417 193.44744 Z" data-z-index="-1" fill-opacity="0.25" visibility="hidden"></path><path fill="#6f58e9" d="M 59 277.34188 A 4 4 0 1 1 59.00399999933334 277.3418780000002 Z" opacity="1" tabindex="-1" role="img" aria-label="1,000 Times, 1,014. JSON." style="outline: none;"></path><path fill="#6f58e9" d="M 179 270.724 A 4 4 0 1 1 179.00399999933333 270.72399800000017 Z" opacity="1" tabindex="-1" role="img" aria-label="2,000 Times, 2,200. JSON." style="outline: none;"></path><path fill="#6f58e9" d="M 298 251.33908 A 4 4 0 1 1 298.00399999933336 251.33907800000017 Z" opacity="1" tabindex="-1" role="img" aria-label="4,000 Times, 5,674. JSON." style="outline: none;"></path><path fill="#6f58e9" d="M 417 197.44744 A 4 4 0 1 1 417.00399999933336 197.44743800000018 Z" opacity="1" tabindex="-1" role="img" aria-label="8,000 Times, 15,332. JSON." style="outline: none;" stroke-width="0.000009869571931497845"></path><path fill="#6f58e9" d="M 537 22.877139999999997 A 4 4 0 1 1 537.0039999993334 22.877138000000166 Z" opacity="1" tabindex="-1" role="img" aria-label="16,000 Times, 46,617. JSON." style="outline: none;"></path></g><g data-z-index="0.1" opacity="1" transform="translate(43,47) scale(1 1)" clip-path="url(#highcharts-2ahtmys-475-)" aria-hidden="true"><path fill="none" d="M 59.7 267.8958 C 59.7 267.8958 131.33999999999997 263.955204 179.1 257.796 C 226.85999999999999 251.636796 250.74 249.362388 298.5 237.09978 C 346.26 224.837172 370.14 221.309496 417.9 196.48296 C 465.65999999999997 171.656424 537.3 112.96709999999999 537.3 112.96709999999999" data-z-index="1" stroke="#ff9800" stroke-width="2" stroke-linejoin="round" stroke-linecap="round"></path><path fill="none" d="M 59.7 267.8958 C 59.7 267.8958 131.33999999999997 263.955204 179.1 257.796 C 226.85999999999999 251.636796 250.74 249.362388 298.5 237.09978 C 346.26 224.837172 370.14 221.309496 417.9 196.48296 C 465.65999999999997 171.656424 537.3 112.96709999999999 537.3 112.96709999999999" data-z-index="2" stroke-linecap="round" stroke-linejoin="round" stroke="rgba(192,192,192,0.0001)" stroke-width="22" style="cursor: pointer;"></path></g><g data-z-index="0.1" opacity="1" transform="translate(43,47) scale(1 1)" clip-path="none" style="cursor: pointer; outline: none;" aria-hidden="false" role="region" tabindex="-1" aria-label="TISSUE-ROLL, line 2 of 2 with 5 data points."><path fill="#ff9800" d="M 537 112.96709999999999 A 0 0 0 1 1 537 112.96709999999999 Z" data-z-index="-1" fill-opacity="0.25" visibility="hidden"></path><path fill="#ff9800" d="M 59 263.8958 L 63 267.8958 L 59 271.8958 L 55 267.8958 Z" opacity="1" tabindex="-1" role="img" aria-label="1,000 Times, 1,990. TISSUE-ROLL." style="outline: none;"></path><path fill="#ff9800" d="M 179 253.796 L 183 257.796 L 179 261.796 L 175 257.796 Z" opacity="1" tabindex="-1" role="img" aria-label="2,000 Times, 3,800. TISSUE-ROLL." style="outline: none;"></path><path fill="#ff9800" d="M 298 233.09978 L 302 237.09978 L 298 241.09978 L 294 237.09978 Z" opacity="1" tabindex="-1" role="img" aria-label="4,000 Times, 7,509. TISSUE-ROLL." style="outline: none;"></path><path fill="#ff9800" d="M 417 192.48296 L 421 196.48296 L 417 200.48296 L 413 196.48296 Z" opacity="1" tabindex="-1" role="img" aria-label="8,000 Times, 14,788. TISSUE-ROLL." style="outline: none;" stroke-width="0.000009869571931497845"></path><path fill="#ff9800" d="M 537 108.96709999999999 L 541 112.96709999999999 L 537 116.96709999999999 L 533 112.96709999999999 Z" opacity="1" tabindex="-1" role="img" aria-label="16,000 Times, 29,755. TISSUE-ROLL." style="outline: none;" stroke-width="0.001032078794778235"></path></g></g><g data-z-index="3" aria-hidden="true"><g stroke-linecap="round" style="cursor: pointer;" transform="translate(616,10)"><title>Chart context menu</title><rect fill="#ffffff" x="0.5" y="0.5" width="24" height="22" rx="2" ry="2" stroke="none" stroke-width="1"></rect><path fill="#666666" d="M 6 6.5 L 20 6.5 M 6 11.5 L 20 11.5 M 6 16.5 L 20 16.5" data-z-index="1" stroke="#666666" stroke-width="3"></path><text font-family='Roboto-Regular,Roboto' x="0" data-z-index="1" y="15.5" style="color: rgb(51, 51, 51); font-weight: normal; fill: rgb(51, 51, 51);"></text></g></g><text font-family='Roboto-Regular,Roboto' x="325" text-anchor="middle" data-z-index="4" style="color: rgb(51, 51, 51); font-size: 18px; fill: rgb(51, 51, 51);" y="24" aria-hidden="true">WRITE</text><text font-family='Roboto-Regular,Roboto' x="325" text-anchor="middle" data-z-index="4" style="color: rgb(102, 102, 102); fill: rgb(102, 102, 102);" y="46" aria-hidden="true"></text><text font-family='Roboto-Regular,Roboto' x="10" text-anchor="start" data-z-index="4" style="color: rgb(102, 102, 102); fill: rgb(102, 102, 102);" y="397" aria-hidden="true"></text><g data-z-index="7" aria-hidden="true" transform="translate(233,359)"><rect fill="none" rx="0" ry="0" x="0" y="0" width="183" height="26"></rect><g data-z-index="1"><g><g data-z-index="1" transform="translate(8,3)"><path fill="none" d="M 0 11 L 16 11" stroke="#6f58e9" stroke-width="2"></path><path fill="#6f58e9" d="M 8 15 A 4 4 0 1 1 8.003999999333336 14.999998000000167 Z" opacity="1"></path><text font-family='Roboto-Regular,Roboto' x="21" text-anchor="start" data-z-index="2" y="15" style="color: rgb(51, 51, 51); cursor: pointer; font-size: 12px; font-weight: bold; fill: rgb(51, 51, 51);">JSON</text></g><g data-z-index="1" transform="translate(80.990234375,3)"><path fill="none" d="M 0 11 L 16 11" stroke="#ff9800" stroke-width="2"></path><path fill="#ff9800" d="M 8 7 L 12 11 L 8 15 L 4 11 Z" opacity="1"></path><text font-family='Roboto-Regular,Roboto' x="21" y="15" text-anchor="start" data-z-index="2" style="color: rgb(51, 51, 51); cursor: pointer; font-size: 12px; font-weight: bold; fill: rgb(51, 51, 51);">TISSUE-ROLL</text></g></g></g></g><g data-z-index="7" aria-hidden="true"><text font-family='Roboto-Regular,Roboto' x="102.7" style="color: rgb(102, 102, 102); cursor: default; font-size: 11px; fill: rgb(102, 102, 102);" text-anchor="middle" transform="translate(0,0)" y="345" opacity="1">1,000 Times</text><text font-family='Roboto-Regular,Roboto' x="222.10000000000002" style="color: rgb(102, 102, 102); cursor: default; font-size: 11px; fill: rgb(102, 102, 102);" text-anchor="middle" transform="translate(0,0)" y="345" opacity="1">2,000 Times</text><text font-family='Roboto-Regular,Roboto' x="341.5" style="color: rgb(102, 102, 102); cursor: default; font-size: 11px; fill: rgb(102, 102, 102);" text-anchor="middle" transform="translate(0,0)" y="345" opacity="1">4,000 Times</text><text font-family='Roboto-Regular,Roboto' x="460.90000000000003" style="color: rgb(102, 102, 102); cursor: default; font-size: 11px; fill: rgb(102, 102, 102);" text-anchor="middle" transform="translate(0,0)" y="345" opacity="1">8,000 Times</text><text font-family='Roboto-Regular,Roboto' x="580.3" style="color: rgb(102, 102, 102); cursor: default; font-size: 11px; fill: rgb(102, 102, 102);" text-anchor="middle" transform="translate(0,0)" y="345" opacity="1">16,000 Times</text></g><g data-z-index="7" aria-hidden="true"><text font-family='Roboto-Regular,Roboto' x="28" style="color: rgb(102, 102, 102); cursor: default; font-size: 11px; fill: rgb(102, 102, 102);" text-anchor="end" transform="translate(0,0)" y="331" opacity="1">0</text><text font-family='Roboto-Regular,Roboto' x="28" style="color: rgb(102, 102, 102); cursor: default; font-size: 11px; fill: rgb(102, 102, 102);" text-anchor="end" transform="translate(0,0)" y="275" opacity="1">10k</text><text font-family='Roboto-Regular,Roboto' x="28" text-anchor="end" transform="translate(0,0)" style="color: rgb(102, 102, 102); cursor: default; font-size: 11px; fill: rgb(102, 102, 102);" y="219" opacity="1">20k</text><text font-family='Roboto-Regular,Roboto' x="28" text-anchor="end" transform="translate(0,0)" style="color: rgb(102, 102, 102); cursor: default; font-size: 11px; fill: rgb(102, 102, 102);" y="163" opacity="1">30k</text><text font-family='Roboto-Regular,Roboto' x="28" text-anchor="end" transform="translate(0,0)" style="color: rgb(102, 102, 102); cursor: default; font-size: 11px; fill: rgb(102, 102, 102);" y="107" opacity="1">40k</text><text font-family='Roboto-Regular,Roboto' x="28" text-anchor="end" transform="translate(0,0)" style="color: rgb(102, 102, 102); cursor: default; font-size: 11px; fill: rgb(102, 102, 102);" y="52" opacity="1">50k</text></g></svg>